<svg id="01232a7a-1d6e-45db-b3ba-c68b2eade8d9" data-name="Ğ¡Ğ»Ğ¾Ğ¹ 1" xmlns="http://www.w3.org/2000/svg" viewBox="0 0 60 60"><title>08_bed</title><path d="M3.47,16.17s-.85,0-.85-.3.47-.27.47-.27l25.82-2.36s.68,0,.69.26-.73.4-.73.4L29,20.7s24.11,4.44,25.25,4.76.9,1.14.9,1.14l0,2.16,2,.39.2.18v7.72L55,38l-.67-.2V35.61L26.11,44.44v3.14L21.93,48.9l-2-2V42.89L5.3,30.74v1.38H3.61Z" style="fill:#754c24"/><path d="M54.39,29l-.24.06L24.89,36.41c-2.51.63-3.2-.06-3.21-.07L6.07,26.17c0-.34,0-1,0-1.55s.51-.84.67-.94L28,20.9,27.87,20,6.51,22.84l-.11,0a2.12,2.12,0,0,0-1.2,1.78c0,.83,0,1.71,0,1.72v.25l15.87,10.3a2.6,2.6,0,0,0,2,.6h0a8.62,8.62,0,0,0,2.07-.29l29.25-7.33.24-.06Z" style="fill:#fff"/></svg>