<svg id="Слой_1" data-name="Слой 1" xmlns="http://www.w3.org/2000/svg" viewBox="0 0 45 45"><defs><style>.cls-1{fill:#754c24;}</style></defs><title>02_chair</title><path class="cls-1" d="M11.86,36.6c1-5.73.72-15.29.72-15.29C12.49,12.63,9.17,1.12,9.08.83s.16-.29.16-.29a6.26,6.26,0,0,1,.79,0,1.3,1.3,0,0,1,1.15.66,31.89,31.89,0,0,0,14-.71c.09-.49.35-.5.35-.5h.86c.23,0,.16,0,.29.19-.61,6.41-.64,16.67-.6,18.15,4.07,0,9.84,3.34,9.84,3.34v.89l-.48.16-.76,18c0,.35-.62.49-.82.47s-.8-.44-.8-.62-.25-10.55-.25-10.55l-6.39,1.23s.16,2.64.15,2.8-.26.7-.56.68-.79-.14-.8-.42-.3-2.82-.3-2.82L19,32.71s-.17,11.74-.22,11.94c-.17.38-1,.37-1.14.35s-.47-.44-.55-.57-.58-12.37-.58-12.37-1.07-.94-2.06-2a32,32,0,0,1-.94,6.72s-.33.52-.67.48a9,9,0,0,1-.91-.19C11.9,37.07,11.81,36.9,11.86,36.6ZM12.83,7a113.71,113.71,0,0,0,11.95-.78c0-.41.07-1.55.12-2.41a48.65,48.65,0,0,1-7.67,1,31.55,31.55,0,0,1-5-.19S12.65,6.2,12.83,7Zm.79,4.41,11-.9s.07-1.65.09-2.75c-2.88.5-11.52.85-11.52.85Zm.62,4.23c.81-.14,3.51-.48,5-.62s5.25-.33,5.25-.33l.07-2.7L13.91,13S14.14,14.71,14.25,15.65Zm.23,3.7a15.91,15.91,0,0,1,4.14-1,28.64,28.64,0,0,1,5.88-.14s0-1.47,0-2c-.12,0-2.91.12-5.48.39s-4.62.7-4.62.7S14.47,18.54,14.47,19.35ZM15.34,27a3,3,0,0,0-.78.69v.18l1.95,1.7-.05-2.69-.29-.27A5,5,0,0,0,15.34,27ZM19,30.72l5.78-1-.12-3.22L19,27.33Zm7.12-4.5.14,3.22,5.64-1-1.79-1.12a12.18,12.18,0,0,0-3.08-1.27Zm6.86.91.07-1.93-2.73.42C30.51,25.63,33,27.13,33,27.13Z"/></svg>