<svg id="Слой_1" data-name="Слой 1" xmlns="http://www.w3.org/2000/svg" viewBox="0 0 45 45"><defs><style>.cls-1{fill:#754c24;}.cls-2{fill:#fff;}</style></defs><title>06_stand</title><path class="cls-1" d="M9.54,37.91c-.43-.61.13-1.11.11-1.74A7.45,7.45,0,0,0,9.27,35a8.86,8.86,0,0,1,0-1.26c0-.42-.52-.85-.52-1.23,0-.14.38-.62.45-.73a6,6,0,0,0,.36-2.9l0-15.62v-10a3.06,3.06,0,0,0,0-1c-.19-.37-1-.34-.7-.86.07-.15.49-.26.66-.31A9.49,9.49,0,0,1,11.2,1L18.68.63,27,.24A21,21,0,0,1,30.89.06c.71.11,5.47,1.74,5.31,2.28-.1.35-1,.29-1.16.62A5.22,5.22,0,0,0,35,4.6V20.23a102.64,102.64,0,0,0,.13,10.28c.05.5,0,1,0,1.53.07.66.2.57.56,1.14.05.09.54,1,.54,1,0,.2-.31.28-.39.48-.19.5.11,1,.18,1.51.12,1-.61,1.84-.43,2.78.14.7.54,1.33.1,2.1-.22.37-.74.63-1.09.08-.06-.1,0-.46,0-.59a3.72,3.72,0,0,1-.23-1.29c0-.62.55-1.81,0-2.33s-2.64.53-3.38.79c-1.47.51-3-.11-4.45.41a6.35,6.35,0,0,1-2.63.71A6.94,6.94,0,0,0,21,39a9.61,9.61,0,0,1-3.53.6l-3.1,0c.12.43-.23.62-.39,1a2.4,2.4,0,0,0-.14,1.24,5.46,5.46,0,0,1,.26,1.28c0,.42-.31.64-.42,1s.14.86-.57.89-.44-.61-.54-1.12c0-.2-.27-.35-.29-.56,0-.41.14-.59.22-1,.18-.91-.33-1.56-.52-2.41-.09-.42.06-.91-.06-1.31s-.85-1.07-1.15-1.07c-.1.46-.12,1.55-.79,1.54S9.54,38.36,9.54,37.91Z"/><path class="cls-2" d="M15,9.68V3.57l18.49-1V8.37Zm.73-5.43V8.91l17-1.21V3.32Z"/><path class="cls-2" d="M15,16.42V10L33.53,8.76v6Zm.73-5.71v4.91l17-1.49V9.54Z"/><path class="cls-2" d="M15,23.13V16.81l18.49-1.68v6.11Zm.73-5.66v4.85l17-1.74V15.93Z"/><path class="cls-2" d="M15,29.89V23.55l18.49-1.93v6.07Zm.73-5.69v4.87l17-2V22.42Z"/><path class="cls-2" d="M15,36.61,15,30.26,33.53,28V34Zm.81-5.7-.07,4.87,17.11-2.37V28.79Z"/></svg>