<svg id="cf59d82f-97b5-44b2-8201-a0b2a23dd4e5" data-name="Слой 1" xmlns="http://www.w3.org/2000/svg" viewBox="0 0 60 60"><title>05_commode</title><path d="M48.89,40.25c0-.36.55-.73.5-1.08s-.6-.47-.57-1c-.84-.71-.56-1.5-.56-2.59q0-3.12,0-6.25l0-14.06c0-.64,0-1.29,0-1.93s0-.35.25-.61,1.17-.43.46-.94a12.69,12.69,0,0,0-2.86-1,16.26,16.26,0,0,0-3.8-1.31,19.87,19.87,0,0,0-3.12.27l-27.1,2.36a15.06,15.06,0,0,0-2.87.25c-.09,0,0,.1-.08.12-.61.24-.7.28-.29.78s.51.32.63.84a21.12,21.12,0,0,1,0,4.31v20a3,3,0,0,1,0,1c-.06.12-.43.25-.56.44a5,5,0,0,0-.29.77c-.09.54.22.69.52,1.2a2.8,2.8,0,0,1,.32,1.27c.13.72.61,1.31.43,2.08-.06.27-.31.47-.31.76s.2.44.25.69c.07.41-.18,1.13.62.95.47-.11.69-1.46.71-1.93.56.74,1.44,1,1.66,2,.11.46,0,.95.13,1.42a5.62,5.62,0,0,1,.55,1.72c0,.53-.42.95-.34,1.45,0,.23.29.36.34.54s0,.34,0,.49c.09.34-.11.47.23.67.84.5.74-.49.86-.81a7.67,7.67,0,0,0,.43-.85,5,5,0,0,0-.16-1.64c0-.59.25-1.92.69-2.16.71-.39,2.05-.11,2.88-.37a24.69,24.69,0,0,1,4.4-1.35c1.5-.19,3.17.18,4.63-.25.67-.19,1.28-.58,1.92-.83a4.87,4.87,0,0,1,2.43-.14c1.27.07,2.07-1,3.24-1.09A15.14,15.14,0,0,0,38,44.39c1.12-.32,2.16-1,3.28-1.34a20.36,20.36,0,0,1,4.29-.52c.55-.06,1.35-.6,1.86-.5.84.15.12,2.06.2,2.73.07.52.25,2.17,1.1,1.6.35-.23.17-.57.2-.95,0-.14.2-.26.2-.44,0-.38-.21-.51-.3-.81-.25-.84.34-1.3.43-2.11C49.34,41.41,48.86,40.85,48.89,40.25ZM20.11,44.32l-3.9.78V25.36c0-.28-.16-1.2,0-1.43s1.11-.26,1.53-.31l5.1-.64,9.09-1.14V42ZM47,39l-14.1,2.81V21.7l4.51-.57L47,19.93Zm0-19.62-26.95,3.3-3.87.47V17c0-.17-.11-.84,0-1s1.14-.12,1.35-.14l3.36-.34,20.54-2.07L47,12.9Z" style="fill:#754c24"/></svg>