<svg id="Слой_1" data-name="Слой 1" xmlns="http://www.w3.org/2000/svg" viewBox="0 0 45 45"><defs><style>.cls-1{fill:#754c24;}</style></defs><title>03_stand</title><path class="cls-1" d="M9.09,38.45c-.17-.66-.42-.94-.18-1.61.31-.87,1-1.57,1.33-2.44.5-1.36.18-3.18,0-4.59A78.66,78.66,0,0,0,8.19,18.2C7.39,15,6.6,12,7.65,8.81,8.22,7,9.24,5.56,8.85,3.62c-.07-.35,0-.32-.15-.51S7.62,2.85,7.26,2.7s-.6,0-.5-.45c0-.18.55-.5.64-.53a7.64,7.64,0,0,1,2-.29L21.08.55c2.3-.17,5-.76,7.25-.46,1.84.24,3.69.79,5.5,1.18a22.64,22.64,0,0,1,3.53.81c.46.19,1.34.69.65,1-.51.25-1.8-.16-2.12.25a7.84,7.84,0,0,0,0,2.74,12.39,12.39,0,0,0,1,2.45c2,5.13-.5,10.16-1.53,15.2a56.87,56.87,0,0,0-1.14,8.11c0,.49-.05,1,0,1.47,0,1.57.84,2.55,1.46,3.93a1.89,1.89,0,0,1,0,1.72,7.39,7.39,0,0,1-.37,1.49,1.32,1.32,0,0,1-1.49-.11c-.23-.34,0-1.27-.06-1.7-.17-.94-.74-1.84-1-2.79a16,16,0,0,1-.16-4.67q.09-1.37.23-2.73l-4.22.81c-.76.15-.76,0-.88.63-.23,1.18.43,2.23.6,3.34a3.79,3.79,0,0,1-.2,1.54,7.94,7.94,0,0,1-.14,1.3,1,1,0,0,1-1.25,0c-.22-.25-.07-1.11-.13-1.47a14.89,14.89,0,0,1-.41-2.48c0-.82,0-1.63,0-2.45l-7.46,1.35c-1,.18-1.34-.06-1.3,1,.05,1.48.11,3,.14,4.44a24.64,24.64,0,0,1-.43,6.12,10.75,10.75,0,0,1-.21,2c-.48.85-1.37.24-1.55-.34-.65-2,0-3.69.36-5.73A18,18,0,0,0,16,34.57c0-.92.28-2.88-.18-3.64-.3-.49-1.51-1-2-1.28-.69-.44-1.38-.88-2.06-1.33.22,2.65.64,5.44-.31,8a9.85,9.85,0,0,0-.66,2.8c-.05.63.08.82-.78.82S9.3,39.26,9.09,38.45ZM11.25,7.2a5.73,5.73,0,0,1-.69,1.68,13.42,13.42,0,0,0-1,2.78,11.06,11.06,0,0,0,.31,4.65c.76,3.8,1.48,7.57,1.86,11.44.33-.47,1.77-.54,2.32-.64s1.47,0,1.64-.57a4.5,4.5,0,0,0-.16-1.36l-.25-2.06c-.16-1.33-.32-2.67-.49-4s-.6-2.61-.84-3.93a11.28,11.28,0,0,1,.16-2.26c0-.79-.2-1.58-.23-2.37a3.28,3.28,0,0,1,.51-2c.22-.35.7-.79.46-1.29s-1.16-.36-1.68-.31a2,2,0,0,1-1.86-.58C11.29,6.64,11.27,6.92,11.25,7.2Zm6.4.94a2.93,2.93,0,0,1,.52,2.63,22.09,22.09,0,0,0-.45,3.55c0,1-.56,1.87-.63,2.89,0,.47,0,.94,0,1.41.05,2.65.23,5.29.35,7.94l6.23-1.05c.57-.1,2.34-.07,2.76-.47.23-.21.14-.76.15-1.14q.1-4,.17-8c0-1.22,0-2.44,0-3.67s-.56-2.3-.53-3.45c0-.41.22-1-.07-1.36s-.06-.15-.54-.28a9.63,9.63,0,0,0-1.74,0C23.27,7.11,22.66,7,22,7a8.47,8.47,0,0,0-3.25.09C17.95,7.31,17.67,7.28,17.65,8.13Zm11.65,0c-.09.65.28,1.17.1,1.84-.1.38-.3.71-.39,1.09a25.58,25.58,0,0,0-.37,3.2c-.29,2.95-.5,5.9-.65,8.85,0,.47-.33,1.76-.1,2.19.14.27.8.46,1.1.61a24.32,24.32,0,0,1,4,2c.27-2.52.68-5,1.16-7.53s1.67-5.58,1.11-8.24A19.57,19.57,0,0,0,33.86,8.6a4.62,4.62,0,0,1-.39-1.27c0-.35.18-1.29,0-1.55-.38-.55-2.25.09-2.88.27-.18.05-.83.16-1,.32A5.2,5.2,0,0,0,29.3,8.17Z"/></svg>