<svg id="Слой_1" data-name="Слой 1" xmlns="http://www.w3.org/2000/svg" viewBox="0 0 45 45"><defs><style>.cls-1{fill:#754c24;}</style></defs><title>04_showcase</title><path class="cls-1" d="M11.95,2.41a25.29,25.29,0,0,1,3-1.21c.44-.11.91,0,1.35-.11S17,.71,17.43.73A8.23,8.23,0,0,0,20.6.52,8.74,8.74,0,0,1,22.08.11a8.6,8.6,0,0,1,1.35.14c.73,0,2.14-.79,2.61.46,1.35-.64,2.9,1,4.09,1.4a15.69,15.69,0,0,0,1.73.26,5.64,5.64,0,0,1,.87.55c1.21.8-.12.31-.49.81-.07.09,0,.51,0,.62V38.28a2.75,2.75,0,0,0,0,.66c.05.19.33.5.38.66a4.08,4.08,0,0,1,0,1.58,2.83,2.83,0,0,0,0,.82c0,.19.07.58-.06.76-.33.45-.49.12-.61-.29s.28-1.55-.2-1.78c-.26-.12-.91.18-1.18.21-.5.06-1-.06-1.5,0-.06.34,0,1.48-.66.81-.37-.4.14-.65-.59-.59a8.89,8.89,0,0,1-1.59.29,2.49,2.49,0,0,0-.92,0c-.26.07-.5.3-.78.31s-.57-.18-.88-.18a3.13,3.13,0,0,0-.86.26,5.23,5.23,0,0,1-1.92,0,6.34,6.34,0,0,0-2,.31,8.8,8.8,0,0,1-1.66.15c-.65,0-.92.1-1,.8-.06.38.3,2.19-.53,1.89-.49-.17-.19-1.66-.34-2.15s-.3-.74-.9-.82c-.26,0-.39.06-.65-.09s-.3-.42-.53-.52c-.34.42.44,2.29-.4,2.3-.44,0-.35-.65-.35-1s.13-.41.1-.72a6.11,6.11,0,0,1-.19-.9c0-.12.18-.39.14-.5s-.33-.13-.39-.29,0-.22.12-.51a1.71,1.71,0,0,0,.17-.63,21.39,21.39,0,0,0,0-2.75q0-2.33,0-4.65,0-11.9,0-23.81,0-2,0-4.06c0-.67.21-1.45-.74-1.26A.26.26,0,0,1,11.95,2.41Zm13.94,32,1.61-.11a10.72,10.72,0,0,0,2.63-.18c.48-.18.34-.21.34-.84V25.56l0-19.64c0-.28.14-1.22-.06-1.39s-2-.18-2.49-.23L25.88,4.1V34.46ZM23.11,3.81l-5-.48V35L22,34.75c.76-.05.94.15,1.1-.43a9.32,9.32,0,0,0,0-2.18V3.81ZM13.44,34.88l1.28.32V3.41c-.65.25-1.14.22-1.29.82a8.09,8.09,0,0,0,0,1.8V34.88Z"/></svg>