<svg id="Слой_1" data-name="Слой 1" xmlns="http://www.w3.org/2000/svg" viewBox="0 0 45 45"><defs><style>.cls-1{fill:#754c24;}.cls-2{fill:#fff;}.cls-3{fill:none;stroke:#fff;stroke-miterlimit:10;stroke-width:0.75px;}</style></defs><title>05_commode</title><path class="cls-1" d="M39.26,30.55c0-.31.48-.63.44-.93s-.53-.42-.5-.88c-.73-.64-.49-1.33-.49-2.29q0-2.74,0-5.48V8.63c0-.56,0-1.13,0-1.7s0-.31.22-.54,1-.38.41-.82a11.07,11.07,0,0,0-2.51-.91,14.06,14.06,0,0,0-3.31-1.13,17,17,0,0,0-2.7.25L8.14,5.88A11.81,11.81,0,0,0,5.8,6.1c-.07,0,0,.09-.06.1-.49.2-.57.24-.24.66s.42.27.51.71a18.54,18.54,0,0,1,0,3.64V28.1a2.66,2.66,0,0,1,0,.83c0,.1-.35.21-.45.36a4.25,4.25,0,0,0-.23.64c-.07.45.18.59.42,1A2.49,2.49,0,0,1,6,32c.1.61.5,1.12.35,1.77-.05.23-.25.39-.25.63s.17.37.2.59-.14,1,.5.82c.39-.08.56-1.22.58-1.61.45.64,1.18.92,1.36,1.75.09.39,0,.8.11,1.21a5,5,0,0,1,.45,1.48c0,.45-.34.79-.27,1.22,0,.19.24.31.28.47s0,.28,0,.42c.07.29-.09.4.19.58.69.45.6-.39.71-.66a6.3,6.3,0,0,0,.35-.7,4.41,4.41,0,0,0-.13-1.4c0-.5.2-1.62.56-1.81.59-.31,1.69,0,2.38-.23a19.49,19.49,0,0,1,3.65-1c1.25-.12,2.65.24,3.88-.08.56-.15,1.07-.46,1.62-.66a4,4,0,0,1,2.05-.05c1.08.1,1.76-.79,2.76-.85a12.79,12.79,0,0,0,2.49,0c1-.25,1.86-.79,2.82-1.08a17.44,17.44,0,0,1,3.73-.34c.48,0,1.18-.49,1.63-.39.74.16.1,1.81.18,2.4s.22,1.91,1,1.44c.3-.19.15-.49.18-.83,0-.12.18-.23.18-.38,0-.34-.18-.45-.26-.72-.22-.74.3-1.13.38-1.84S39.23,31.08,39.26,30.55Z"/><circle class="cls-2" cx="25.54" cy="11.66" r="0.94"/><circle class="cls-2" cx="21.56" cy="18.78" r="0.94"/><circle class="cls-2" cx="29.38" cy="17.85" r="0.94"/><polygon class="cls-3" points="11.49 9.9 37.62 7.24 37.62 29.37 11.48 33.92 11.49 9.9"/><polygon class="cls-2" points="37.77 14.24 11.58 17.37 11.59 16.53 37.78 13.39 37.77 14.24"/><rect class="cls-2" x="24.47" y="15.38" width="1.59" height="16.13"/></svg>