<svg id="Слой_1" data-name="Слой 1" xmlns="http://www.w3.org/2000/svg" viewBox="0 0 45 45"><defs><style>.cls-1{fill:#754c24;}</style></defs><title>07_cupboard</title><path class="cls-1" d="M34,38.4c-.05-.24-.39-.44-.41-.68a25.09,25.09,0,0,1,0-2.66q0-6.34,0-12.69L33.58,8q0-2.39,0-4.78c0-.14.32-1.92.4-1.6C33.75.8,31.84,1,30.83.91L23.67.19a34.66,34.66,0,0,0-10.8.57c-.29.06-1.69.13-1.83.41s.43.28.43.54c0,.91,0,1.82,0,2.72q0,6.31,0,12.61,0,7.85,0,15.69c0,1.56.15,3.2,0,4.76-.06.59-.49,1.08-.49,1.49,0,.17.44.07.46.28s-.12.63-.1.93-.2,1.36.05,1.53c1,.7.53-1.36.65-1.51.46-.55,2.7,1.11,3.24,1.25.89.23,1.8,0,2.56.76s-.23,2.57.63,2.74c1.12.23.61-1.4.7-1.72.51-1.74,3.87-1.33,5.37-1.58s3.3-.61,4.89-1c1.22-.28,2.71-1.14,4-.91,0,.42-.38,2.23.28,2.24s.16-1.08.16-1.38C33.81,39.87,34.19,39.1,34,38.4ZM19.61,40.53H19V1.11h.65Zm5.92-2-4.53.8V1.56l4.53.35Zm2.21-.27V2L32,2.33l.08,35.22Z"/></svg>