<svg id="Слой_1" data-name="Слой 1" xmlns="http://www.w3.org/2000/svg" viewBox="0 0 45 45"><defs><style>.cls-1{fill:#754c24;}.cls-2{fill:#fff;}</style></defs><title>08_bed</title><path class="cls-1" d="M.7,10.24S0,10.21,0,10s.38-.23.38-.23L21.63,7.83s.56,0,.57.22-.6.33-.6.33l.08,5.6s19.84,3.65,20.78,3.92.74.94.74.94l0,1.78,1.66.32.17.15v6.35l-1.88.75L42.57,28V26.23L19.33,33.5v2.58L15.9,37.17l-1.61-1.61V32.23l-12.08-10v1.14H.81Z"/><path class="cls-2" d="M42.6,20.81l-.2.05-24.07,6c-2.06.52-2.64,0-2.65-.06L2.84,18.47c0-.28,0-.79,0-1.27s.42-.69.55-.77l17.49-2.3-.09-.71L3.2,15.73l-.09,0a1.75,1.75,0,0,0-1,1.47c0,.68,0,1.41,0,1.41v.2l13.06,8.48a2.14,2.14,0,0,0,1.62.5h0a7.09,7.09,0,0,0,1.7-.24l24.07-6,.2,0Z"/></svg>