<svg id="Слой_1" data-name="Слой 1" xmlns="http://www.w3.org/2000/svg" viewBox="0 0 45 45"><defs><style>.cls-1{fill:#754c24;}.cls-2{fill:none;stroke:#fff;stroke-linecap:round;stroke-linejoin:round;stroke-width:0.5px;}</style></defs><title>10_living_room</title><path class="cls-1" d="M5.35,1.09,16.06,2,14.28,3.76l.06,26.67,17.73-1.34.11-.07.45,0,0-23.67-.72-2.09,5.3-.2,7.83.5-1.53,2-.14,23.2,1,0v.64l-.7,0,.08,7.56.53.25-.07.92L5.35,43.91.89,43V3.76L0,1.09Zm32.4,27.27L42.66,28V6.3l-4.91-.2Zm-4.32-.25,2.7.25V6l-2.76.14ZM6.69,30.7l6.41-.56V5L6.36,4.66ZM2,30.53l2.9.45L4.35,4.66H1.67Z"/><line class="cls-2" x1="35.8" y1="31.63" x2="16.08" y2="33.75"/><line class="cls-2" x1="36.21" y1="35.46" x2="15.5" y2="38.17"/><line class="cls-2" x1="38" y1="30.5" x2="38" y2="37.5"/><line class="cls-2" x1="13.83" y1="33.17" x2="13.83" y2="41.42"/><line class="cls-2" x1="6.08" y1="33.5" x2="6.08" y2="42.42"/></svg>