<svg id="Слой_1" data-name="Слой 1" xmlns="http://www.w3.org/2000/svg" viewBox="0 0 45 45"><defs><style>.cls-1,.cls-2{fill:#754c24;}.cls-2,.cls-3{stroke:#fff;stroke-miterlimit:10;stroke-width:0.5px;}.cls-3{fill:none;}</style></defs><title>12_bedroom</title><polygon class="cls-1" points="27.71 32.15 27.71 31.39 27.3 31.01 27.5 6.19 28.34 5.45 28.34 5.15 0 5.15 0 5.74 0.74 6.53 0.74 32.45 0.3 32.86 0.26 33.45 27.71 32.15"/><polygon class="cls-2" points="11.58 30.07 8.18 30.14 8.18 31.39 11.61 31.25 11.58 30.07"/><polygon class="cls-2" points="21.77 29.68 13.11 29.93 13.11 31.15 21.77 30.86 21.77 29.68"/><polygon class="cls-1" points="39.99 24.75 40.5 24.53 28.52 22.52 28.27 22.62 28.62 22.89 28.62 27.95 7.7 28.77 3.68 27.43 3.16 27.53 3.28 27.82 3.6 27.92 3.55 34.4 3.03 34.79 3.03 35.76 10.87 39.5 12.21 39.5 12.13 37.25 37.49 35.86 40.23 35.39 39.99 24.75"/><path class="cls-1" d="M44.54,39.33l-5.6.52-4-1.38v-.89a5.27,5.27,0,0,1,.6-.41c.11,0,0-7.14,0-7.14l-.6-.28v-.5l5.86-.3,4.17.87v.39l-.24.17.15,8.2Z"/><polyline class="cls-3" points="34.98 32.82 12.8 33.97 12.7 30.53 13 30.29 12.7 30.03 8.98 28.81"/><line class="cls-3" x1="34.98" y1="29.25" x2="28.62" y2="27.95"/><polyline class="cls-3" points="39.99 28.95 34.98 29.25 34.98 29.75"/><line class="cls-3" x1="35.64" y1="30.46" x2="35.64" y2="35.95"/><line class="cls-3" x1="28.62" y1="27.95" x2="9.04" y2="28.62"/><polyline class="cls-3" points="8.98 28.81 3.68 27.43 3.16 27.53 3.28 27.82 3.6 28.14 3.55 34.4"/><line class="cls-3" x1="22.81" y1="7.63" x2="22.81" y2="27.44"/><line class="cls-3" x1="17.5" y1="7.63" x2="17.5" y2="27.44"/><line class="cls-3" x1="11.44" y1="7.63" x2="11.44" y2="27.44"/><line class="cls-3" x1="6" y1="7.63" x2="6" y2="27.44"/><line class="cls-3" x1="25.94" y1="7.38" x2="3.06" y2="7.38"/><line class="cls-3" x1="39.31" y1="38.5" x2="39.31" y2="31.56"/><line class="cls-3" x1="35.63" y1="30.46" x2="39.31" y2="31.56"/><line class="cls-3" x1="43.88" y1="30.94" x2="39.31" y2="31.56"/><line class="cls-3" x1="39.19" y1="35.44" x2="36.38" y2="34.63"/></svg>