<svg id="Слой_1" data-name="Слой 1" xmlns="http://www.w3.org/2000/svg" viewBox="0 0 45 45"><defs><style>.cls-1{fill:#754c24;}.cls-2{fill:none;stroke:#fff;stroke-miterlimit:10;stroke-width:0.5px;}</style></defs><title>13_cabinet</title><path class="cls-1" d="M53.43,45l.07-1.57-.71-.54V30.51l1.69-.27v-.91h.34L54.68,29l-.88-.14v-.27l-3.06-.37-1.16-.14L33.35,25.85,26,26.66V3.43l.3-.17.26-.91.28-.51-.28-.2L.59.08-2.93.49l.2.41.07.71.17.37-.27,35.74-.17.61.17.74L.32,40.15l17.41-3.41s.07,1.39.24,2.37a40.34,40.34,0,0,1,.51,5.49,3.14,3.14,0,0,0,.92-.17,19.08,19.08,0,0,0,.33-5.11c.57,0,5.13.07,5.13.07a4.37,4.37,0,0,0,0,1.71l.2,1.09L25.44,45l.78,0,.35-3.09,1.3.1,2.16.64,4.29-.71,2.6.81v.2l-.41.3-.1.57.14.51,2.32.69Z"/><polyline class="cls-2" points="52.44 30.47 44.32 31.5 21.78 28"/><path class="cls-2" d="M17.91,36.38a51.76,51.76,0,0,0-1-8c-.73-2.11-1.49-2.44-1.75-2.56a.55.55,0,0,1-.61-.45c-.26-.64,0-.61,0-.61a48,48,0,0,1,5.29-.6c2,.62,1.66,4.4,2.08,5.78.6,2,7.28,1.7,7.87,1.75s1.81.23,1.67,1.3-1.31,1.54-1.31,1.54c-1.34,1.17.85,2.06.75,3.44"/><path class="cls-2" d="M17.78,32.56a5.39,5.39,0,0,0,3.1,1c2.16.16,5,0,5.2,1.25.14,1-1.35,1.17-1.19,2.21.09.57.85,1.15.79,1.46"/><polyline class="cls-2" points="16.35 29.06 8.12 29.96 8.12 32.49 16.93 31.45"/><polyline class="cls-2" points="8.12 32.72 8.12 35.1 17.2 33.91"/><polyline class="cls-2" points="8.06 35.28 8.06 37.81 17.72 36.13"/><polyline class="cls-2" points="7.89 29.97 1.3 30.69 1.18 38.9 7.83 37.9"/><line class="cls-2" x1="24.35" y1="3.63" x2="2.22" y2="2.13"/><line class="cls-2" x1="20.85" y1="24.13" x2="20.85" y2="4.63"/><line class="cls-2" x1="12.97" y1="27" x2="12.97" y2="4.25"/><line class="cls-2" x1="5.35" y1="27.75" x2="5.35" y2="3.38"/><line class="cls-2" x1="44.41" y1="31.75" x2="44.41" y2="44.69"/><polygon class="cls-1" points="31.16 42.25 30.78 45.25 29.85 45.13 29.41 41.56 30.91 42.06 31.16 42.25"/><line class="cls-2" x1="30.91" y1="42.06" x2="30.97" y2="38.25"/><line class="cls-2" x1="25.47" y1="39.42" x2="30.3" y2="38.67"/></svg>