<svg id="a9c31042-37c4-4015-b966-710f3b51b7b3" data-name="Слой 1" xmlns="http://www.w3.org/2000/svg" viewBox="0 0 60 60"><title>04_showcase</title><path d="M17.24,6.33a30.41,30.41,0,0,1,3.57-1.45c.52-.14,1.09,0,1.62-.13s.83-.47,1.4-.45a9.89,9.89,0,0,0,3.81-.24,10.51,10.51,0,0,1,1.77-.5A10.34,10.34,0,0,1,31,3.73c.88,0,2.57-.95,3.14.55C35.8,3.51,37.65,5.42,39.09,6a18.86,18.86,0,0,0,2.09.31,6.77,6.77,0,0,1,1,.66c1.45,1-.15.38-.59,1-.08.11,0,.61,0,.75V49.45a3.31,3.31,0,0,0,0,.8c.07.23.4.6.45.79a4.91,4.91,0,0,1,.05,1.9,3.4,3.4,0,0,0,0,1c0,.23.09.7-.07.91-.4.54-.59.15-.74-.35s.34-1.86-.24-2.14c-.31-.15-1.09.22-1.41.25-.6.07-1.2-.07-1.8,0-.07.41,0,1.78-.8,1-.45-.48.17-.79-.71-.71a10.69,10.69,0,0,1-1.91.35,3,3,0,0,0-1.11,0c-.31.09-.61.36-.94.37s-.69-.21-1.06-.21a3.77,3.77,0,0,0-1,.31,6.29,6.29,0,0,1-2.31,0,7.62,7.62,0,0,0-2.41.37,10.58,10.58,0,0,1-2,.17c-.78,0-1.11.12-1.24,1-.07.45.36,2.63-.64,2.28-.59-.21-.23-2-.4-2.59-.22-.75-.36-.89-1.08-1-.32,0-.47.07-.78-.11s-.36-.5-.63-.63c-.41.51.53,2.75-.49,2.77-.53,0-.43-.78-.42-1.15s.16-.49.12-.87a7.34,7.34,0,0,1-.23-1.08c0-.15.21-.47.16-.6s-.39-.16-.47-.35,0-.26.15-.61a2.05,2.05,0,0,0,.2-.75,25.72,25.72,0,0,0,0-3.31q0-2.8,0-5.59,0-14.31,0-28.62,0-2.44,0-4.88c0-.81.25-1.75-.88-1.52A.32.32,0,0,1,17.24,6.33ZM34,44.85l1.94-.13a12.89,12.89,0,0,0,3.16-.21c.58-.21.41-.26.41-1V34.16l0-23.61c0-.34.16-1.46-.07-1.68-.41-.38-2.44-.22-3-.27L34,8.37V44.85ZM30.66,8l-6-.58V45.52l4.7-.32c.91-.06,1.13.18,1.32-.51a11.21,11.21,0,0,0,0-2.62V8ZM19,45.36l1.54.38V7.53c-.78.31-1.36.27-1.55,1a9.73,9.73,0,0,0,0,2.17V45.36Z" style="fill:#754c24"/></svg>