<svg id="68bf40d5-aa56-4176-8043-c7a2ebe9a88f" data-name="Слой 1" xmlns="http://www.w3.org/2000/svg" viewBox="0 0 60 60"><title>07_cupboard</title><path d="M43.19,48.65c-.06-.27-.44-.51-.47-.78a28.84,28.84,0,0,1,0-3.05q0-7.29,0-14.58l0-16.48q0-2.75,0-5.5c0-.16.36-2.2.46-1.84-.25-1-2.45-.76-3.6-.87l-8.23-.82a39.85,39.85,0,0,0-12.41.65c-.33.06-1.94.14-2.11.48s.49.32.5.62c0,1,0,2.09,0,3.13q0,7.25,0,14.5,0,9,0,18c0,1.79.17,3.68,0,5.47-.07.67-.56,1.24-.56,1.71,0,.2.5.08.53.32s-.14.72-.12,1.07-.23,1.57.06,1.76c1.18.8.61-1.57.75-1.74.53-.63,3.11,1.28,3.73,1.44,1,.27,2.06,0,2.94.87s-.26,3,.72,3.15c1.29.27.7-1.61.81-2,.58-2,4.45-1.53,6.17-1.82s3.8-.7,5.62-1.12c1.41-.33,3.12-1.31,4.59-1,0,.48-.44,2.56.33,2.57s.19-1.25.19-1.59C42.94,50.33,43.37,49.45,43.19,48.65ZM26.61,51.09h-.75V5.78h.75Zm6.8-2.25-5.2.92V6.3l5.2.4ZM36,48.53V6.83l4.9.36.09,40.49Z" style="fill:#754c24"/></svg>