<svg id="Слой_1" data-name="Слой 1" xmlns="http://www.w3.org/2000/svg" viewBox="0 0 60 30"><defs><style>.cls-1{fill:#ed1c24;}.cls-1,.cls-2{stroke:#fff;stroke-linecap:round;stroke-linejoin:round;}.cls-1,.cls-2,.cls-3{stroke-width:3px;}.cls-3{fill:none;stroke:#ed1c24;stroke-miterlimit:10;}</style></defs><title>action</title><rect class="cls-1" x="3.51" y="22.58" width="54.15" height="3" transform="translate(-1.69 2.31) rotate(-4.22)"/><path class="cls-2" d="M6.47,10.67a4.21,4.21,0,0,1,2.64.56,2.58,2.58,0,0,1,1,2.07c.09,1.19,0,1.89.15,5.12.05,1.36.05,1.83.15,2.84L8,21.44c0-.75,0-1.63,0-2.87s0-.85-.08-2.64a3.54,3.54,0,0,1-1.21.78,15.42,15.42,0,0,0-1.45.68A1.66,1.66,0,0,0,4.2,19a1.28,1.28,0,0,0,1.52,1.21,3.5,3.5,0,0,0,1.42-.41l-.3,1.81a7.84,7.84,0,0,1-1.59.3,3.25,3.25,0,0,1-2.44-.65,3.64,3.64,0,0,1-.88-2.18,3,3,0,0,1,.57-2,4.88,4.88,0,0,1,2.12-1.5c.81-.35,1.23-.44,1.75-.64a2,2,0,0,0,1-.71,1.21,1.21,0,0,0,.23-.77c0-.38-.24-1.18-1.68-1.08a7.75,7.75,0,0,0-3.29,1.16l.1-2A14.55,14.55,0,0,1,6.47,10.67Z"/><path class="cls-2" d="M14.58,10.33c0,2,.08,4.78.22,6.87l.26,3.71-2.58.19c0-2,0-3-.08-4.64-.06-1.44-.12-3.09-.31-5.94Zm.93,3.8c.25-.47.48-1,.72-1.42s.38-.7.57-1a16.44,16.44,0,0,0,.76-1.56L20.3,9.9c-.87,1.33-1.12,1.88-1.7,2.9-.7,1.25-.44.77-1.33,2.38,2.36,3.1,2,2.8,3.9,5.27l-2.84.21c-.25-.43-.65-1.13-.93-1.56l-.67-1c-.3-.4-.58-.83-.86-1.26l-1-1.51Z"/><path class="cls-2" d="M24.26,9.6c.16,4.51.1,3.54.15,4.82,0,1.07.07,1.34.16,3.69l3.62-.27c-.09-2.31,0-1.38-.12-3.31,0-.45-.06-1.44-.27-5.19l2.53-.19c0,1.69.07,4,.16,5.65,0,.59.08,1.24.17,2.86l1.42-.11c0,2.6,0,3.34.14,4.9l-2.12.16c0-.94,0-1.51-.08-2.83l-7.94.6,0-3.54c0-2-.17-5-.33-7Z"/><path class="cls-2" d="M35.65,8.74c.05,1.81.05,2.24.08,3.72,0,.87,0,1.73.08,3.5.22-.38.75-1.3,1.32-2.36l1.52-2.84c.33-.64,1-1.84,1.22-2.33l2.37-.18c0,2.89.13,5.29.23,6.87,0,.65.08,1.32.13,2s.07,1.16.11,1.74l-2.6.19c0-3.5-.06-2.83-.14-7.22l-1.3,2.42-1.31,2.5c-.48.91-.73,1.38-1.35,2.61l-2.5.19c0-4.28-.19-7.79-.36-10.58Z"/><path class="cls-2" d="M45.64,16.36c.25-.45.16-.34,1.31-2.44a2.8,2.8,0,0,1-1.86-.84,2.92,2.92,0,0,1-.62-1.66A3.39,3.39,0,0,1,46,8.19a7.22,7.22,0,0,1,2.71-.69,32.1,32.1,0,0,1,3.55.08c0,1.12,0,2,.08,5.31.11,3,.21,4.53.26,5.19l-2.51.19c0-1.14,0-1.92,0-3.05-.12-3.58-.05-3.56-.18-5.89a6.09,6.09,0,0,0-1.47-.05,1.92,1.92,0,0,0-1.15.41,1.78,1.78,0,0,0-.49,1.44,1.61,1.61,0,0,0,.72,1.33,2.21,2.21,0,0,0,1.42.24,2.88,2.88,0,0,0,.59-.11c-.49,1.05-.86,1.9-1.28,2.89-.31.76-.95,2.25-1.27,3l-2.75.21C44.6,18.13,45.3,17,45.64,16.36Z"/><path class="cls-2" d="M57.09,3.49c0,1.12,0,2.69.1,4.86.07,2.74.09,3.19.13,5.2l-2.2.17c-.06-1.65-.11-2.84-.25-5.32-.12-2.19-.19-3.39-.27-4.73ZM57.62,15l.09,2.7-2.61.2L55,15.19Z"/><path d="M6.47,10.67a4.21,4.21,0,0,1,2.64.56,2.58,2.58,0,0,1,1,2.07c.09,1.19,0,1.89.15,5.12.05,1.36.05,1.83.15,2.84L8,21.44c0-.75,0-1.63,0-2.87s0-.85-.08-2.64a3.54,3.54,0,0,1-1.21.78,15.42,15.42,0,0,0-1.45.68A1.66,1.66,0,0,0,4.2,19a1.28,1.28,0,0,0,1.52,1.21,3.5,3.5,0,0,0,1.42-.41l-.3,1.81a7.84,7.84,0,0,1-1.59.3,3.25,3.25,0,0,1-2.44-.65,3.64,3.64,0,0,1-.88-2.18,3,3,0,0,1,.57-2,4.88,4.88,0,0,1,2.12-1.5c.81-.35,1.23-.44,1.75-.64a2,2,0,0,0,1-.71,1.21,1.21,0,0,0,.23-.77c0-.38-.24-1.18-1.68-1.08a7.75,7.75,0,0,0-3.29,1.16l.1-2A14.55,14.55,0,0,1,6.47,10.67Z"/><path d="M14.58,10.33c0,2,.08,4.78.22,6.87l.26,3.71-2.58.19c0-2,0-3-.08-4.64-.06-1.44-.12-3.09-.31-5.94Zm.93,3.8c.25-.47.48-1,.72-1.42s.38-.7.57-1a16.44,16.44,0,0,0,.76-1.56L20.3,9.9c-.87,1.33-1.12,1.88-1.7,2.9-.7,1.25-.44.77-1.33,2.38,2.36,3.1,2,2.8,3.9,5.27l-2.84.21c-.25-.43-.65-1.13-.93-1.56l-.67-1c-.3-.4-.58-.83-.86-1.26l-1-1.51Z"/><path d="M24.26,9.6c.16,4.51.1,3.54.15,4.82,0,1.07.07,1.34.16,3.69l3.62-.27c-.09-2.31,0-1.38-.12-3.31,0-.45-.06-1.44-.27-5.19l2.53-.19c0,1.69.07,4,.16,5.65,0,.59.08,1.24.17,2.86l1.42-.11c0,2.6,0,3.34.14,4.9l-2.12.16c0-.94,0-1.51-.08-2.83l-7.94.6,0-3.54c0-2-.17-5-.33-7Z"/><path d="M35.65,8.74c.05,1.81.05,2.24.08,3.72,0,.87,0,1.73.08,3.5.22-.38.75-1.3,1.32-2.36l1.52-2.84c.33-.64,1-1.84,1.22-2.33l2.37-.18c0,2.89.13,5.29.23,6.87,0,.65.08,1.32.13,2s.07,1.16.11,1.74l-2.6.19c0-3.5-.06-2.83-.14-7.22l-1.3,2.42-1.31,2.5c-.48.91-.73,1.38-1.35,2.61l-2.5.19c0-4.28-.19-7.79-.36-10.58Z"/><path d="M45.64,16.36c.25-.45.16-.34,1.31-2.44a2.8,2.8,0,0,1-1.86-.84,2.92,2.92,0,0,1-.62-1.66A3.39,3.39,0,0,1,46,8.19a7.22,7.22,0,0,1,2.71-.69,32.1,32.1,0,0,1,3.55.08c0,1.12,0,2,.08,5.31.11,3,.21,4.53.26,5.19l-2.51.19c0-1.14,0-1.92,0-3.05-.12-3.58-.05-3.56-.18-5.89a6.09,6.09,0,0,0-1.47-.05,1.92,1.92,0,0,0-1.15.41,1.78,1.78,0,0,0-.49,1.44,1.61,1.61,0,0,0,.72,1.33,2.21,2.21,0,0,0,1.42.24,2.88,2.88,0,0,0,.59-.11c-.49,1.05-.86,1.9-1.28,2.89-.31.76-.95,2.25-1.27,3l-2.75.21C44.6,18.13,45.3,17,45.64,16.36Z"/><path d="M57.09,3.49c0,1.12,0,2.69.1,4.86.07,2.74.09,3.19.13,5.2l-2.2.17c-.06-1.65-.11-2.84-.25-5.32-.12-2.19-.19-3.39-.27-4.73ZM57.62,15l.09,2.7-2.61.2L55,15.19Z"/><line class="cls-3" x1="3.58" y1="26.08" x2="57.58" y2="22.08"/></svg>