<svg id="Слой_1" data-name="Слой 1" xmlns="http://www.w3.org/2000/svg" xmlns:xlink="http://www.w3.org/1999/xlink" viewBox="0 0 365.6 272"><defs><clipPath id="clip-path"><rect x="-12.72" width="386.67" height="272" style="fill:none"/></clipPath></defs><title>bckgr</title><g style="clip-path:url(#clip-path)"><polygon points="-102.38 -5.44 -102.38 544 656.79 544 656.79 -6.57 -102.38 -6.57 -102.38 -5.44" style="fill:#342618;fill-rule:evenodd"/><path d="M82.12,242.39c6.48-1.73,7.89-4.3,7-7.23-2.58,2.64-4.92,3.54-7,3.24a6.73,6.73,0,0,1-4.92,2.79c2.5-2.34,2.66-3.54,1-2.94-2.58,2.11-5.08,3.09-6.33,1.73a9.21,9.21,0,0,1-3.12.83c2.42-7.23,20.23.15,19.06-8.14-9.22-.9-9.37-6.1-3.28-7.38C83.68,211.49,73,206.22,69.54,211c-3.9,5.43,5.55,7.69,6.09,12.28.47,3.84-1.33,6-7.34,6.1-.62.23-.86.53-.16,1a1.76,1.76,0,0,1,.08,3.32c-1.49.68-3.2-.75-1.8-2.71.55-.83-.78-2-1.48-1.28-2,.91-3.28.83-3.75-1,.62-1.73,2-2.11,4.3-.45.94,0,1.33-1.06.62-1.43-2.11-1.28-1.33-3.39.16-3.39,1.8-.07,3.51,1.43,1.48,3.32-.55.75-.39,1.58.55,1.51,9.68-.83,5.78-6.93-2.89-9.12-15.39-3.84-10.15-17-2.42-18.24,10.47-1.73,22.34,10.62,22.88,24.11a8.88,8.88,0,0,0,1.41-.07c-.86-10.48-3.51-18.39-7.57-24.11-5.47-.68-6.4-1.36-7-2l6.09.45a37.05,37.05,0,0,0-4.53-4.52c-7.34.15-10-.15-9.61-.68l7.65-.83A77.84,77.84,0,0,0,63,184.82c-1.8.75-2.34,2.41-2.81,4.14-1.48-2.64-1.09-4.67,1.8-6-5.31.23-5.23-1.73-3.83-4.14,3.75-1.58,4.53.53,4.92,3.17,4-2.86,5-.6,5.78.68A2.59,2.59,0,0,0,64.78,184l9.45,8.06-.55-7.23.62-.23c.7,3.17,1.25,6.25,1.72,9.19l3.91,4.14c-.7-5.12,0-4.9.39-4.82a22.28,22.28,0,0,1,.94,6.78A55.4,55.4,0,0,1,88.44,225h.7c.16-2.26.31-4.9.31-7.31a45.91,45.91,0,0,0-1-9.8c-2-9-9.76-18.31-9.61-25.85,0-5.5,6.49-8.36,12.34-12.36,5.86,4,12.11,6.86,12.19,12.36.08,7.54-7.66,16.88-9.69,25.85a45.8,45.8,0,0,0-1,9.8c0,2.41.16,5,.31,7.31a2.5,2.5,0,0,0,.78-.07,53.48,53.48,0,0,1,7.19-25,20,20,0,0,1,.86-6.78c.39-.08,1.09-.3.39,4.82l3.9-4.14c.47-2.94,1-6,1.72-9.19l.62.23-.55,7.23,9.45-8.06c-.39-1.36-2-2.49-4.06-1.28.78-1.28,1.8-3.54,5.78-.68.39-2.64,1.17-4.75,4.92-3.17,1.48,2.41,1.56,4.37-3.83,4.14,2.89,1.28,3.28,3.32,1.88,6-.55-1.73-1.09-3.39-2.89-4.14a77.41,77.41,0,0,0-9.29,8.36l7.58.83c.39.53-2.27.83-9.61.68a32.19,32.19,0,0,0-4.45,4.52l6-.45c-.55.68-1.48,1.36-7,2-4.06,5.73-6.72,13.64-7.58,24.19a7.49,7.49,0,0,1,1.33.07c.55-13.49,12.42-26,23-24.19,7.73,1.28,13,14.39-2.42,18.24-8.67,2.18-12.58,8.29-2.89,9.12.94.07,1.09-.75.55-1.51-2-1.88-.31-3.39,1.48-3.32,1.48,0,2.26,2.11.16,3.39-.7.38-.31,1.43.55,1.43,2.42-1.66,3.75-1.28,4.37.45-.47,1.81-1.87,1.88-3.75,1-.7-.75-2,.45-1.48,1.28,1.41,2-.31,3.39-1.8,2.71a1.76,1.76,0,0,1,.08-3.32c.7-.45.47-.75-.16-1.06-6-.08-7.81-2.19-7.34-6,.55-4.6,10-6.86,6.09-12.28-3.44-4.82-14.21.53-14.92,14.39,5.62,1.51,5.23,6.41-3.75,7.31-1.09,8.29,16.64.91,19.14,8.14a8.42,8.42,0,0,1-3.12-.83c-1.33,1.36-3.83.38-6.33-1.73-1.72-.6-1.48.6.94,2.94a6.73,6.73,0,0,1-4.92-2.79c-2.11.3-4.45-.6-6.95-3.24-.94,2.94.47,5.5,6.87,7.23,3.52,1,5.94,2.56,6.48,5.43h-3.28a8.53,8.53,0,0,1-2.66-3.39l-1.64,2.79c.16-2.56-3.75-1.13-4.14-5l-2.11-1c-.86,2.41.7,4.45,2.11,6.56H87.35c1.41-2.11,3-4.14,2.11-6.56l-2.11,1c-.31,3.84-4.3,2.41-4.14,5l-1.56-2.79a8.61,8.61,0,0,1-2.73,3.39H75.63c.55-2.86,3-4.44,6.48-5.43Z" style="fill:#3f3024;fill-rule:evenodd"/><path d="M265.13,242.39c6.41-1.73,7.81-4.3,6.87-7.23-2.5,2.64-4.84,3.54-6.95,3.24a6.73,6.73,0,0,1-4.92,2.79c2.42-2.34,2.66-3.54,1-2.94-2.58,2.11-5.08,3.09-6.41,1.73a8.46,8.46,0,0,1-3,.83c2.42-7.23,20.23.15,19.06-8.14-9.22-.9-9.37-6.1-3.36-7.38-.7-13.79-11.48-19.06-14.92-14.32-3.83,5.43,5.55,7.69,6.17,12.28.47,3.84-1.33,6-7.34,6.1-.62.23-.86.53-.16,1a1.74,1.74,0,0,1,0,3.32c-1.41.68-3.12-.75-1.72-2.71.55-.83-.86-2-1.56-1.28-1.88.91-3.2.83-3.67-1,.62-1.73,2-2.11,4.3-.45.94,0,1.25-1.06.62-1.43-2.19-1.28-1.33-3.39.08-3.39,1.8-.07,3.52,1.43,1.56,3.32-.55.75-.39,1.58.55,1.51,9.68-.83,5.78-6.93-2.89-9.12-15.46-3.84-10.15-17-2.42-18.24,10.47-1.73,22.34,10.62,22.88,24.11a7.94,7.94,0,0,0,1.33-.07c-.78-10.48-3.44-18.39-7.58-24.11-5.39-.68-6.33-1.36-6.87-2l6,.45a32.26,32.26,0,0,0-4.45-4.52c-7.34.15-10.08-.15-9.61-.68l7.58-.83a77.41,77.41,0,0,0-9.29-8.36c-1.8.75-2.34,2.41-2.89,4.14-1.41-2.64-1-4.67,1.87-6-5.39.23-5.31-1.73-3.83-4.14,3.75-1.58,4.53.53,4.92,3.17,4-2.86,5-.6,5.78.68a2.59,2.59,0,0,0-4.06,1.28l9.45,8.06-.55-7.23.62-.23c.7,3.17,1.25,6.25,1.72,9.19l3.91,4.14c-.78-5.12,0-4.9.39-4.82a20,20,0,0,1,.86,6.78A53.54,53.54,0,0,1,271.38,225h.7c.16-2.26.39-4.9.31-7.31a45.85,45.85,0,0,0-.94-9.8c-2-9-9.76-18.31-9.69-25.85.08-5.5,6.48-8.36,12.42-12.36,5.86,4,12,6.86,12.11,12.36.16,7.54-7.58,16.88-9.68,25.85a51.3,51.3,0,0,0-.94,9.8c0,2.41.16,5,.31,7.31a2.26,2.26,0,0,0,.7-.07,55.35,55.35,0,0,1,7.19-25,24.87,24.87,0,0,1,.86-6.78c.47-.08,1.17-.3.47,4.82l3.91-4.14c.47-2.94,1-6,1.72-9.19l.63.23-.55,7.23,9.45-8.06c-.39-1.36-2-2.49-4.06-1.28.78-1.28,1.8-3.54,5.78-.68.31-2.64,1.17-4.75,4.92-3.17,1.41,2.41,1.48,4.37-3.83,4.14,2.89,1.28,3.28,3.32,1.8,6-.47-1.73-1-3.39-2.81-4.14a77.8,77.8,0,0,0-9.37,8.36l7.66.83c.39.53-2.27.83-9.61.68a37,37,0,0,0-4.53,4.52l6.09-.45c-.55.68-1.48,1.36-7,2-4.06,5.73-6.72,13.64-7.58,24.19a7.49,7.49,0,0,1,1.33.07c.55-13.49,12.42-26,22.88-24.19,7.81,1.28,13,14.39-2.42,18.24-8.67,2.18-12.58,8.29-2.81,9.12.86.07,1.09-.75.55-1.51-2-1.88-.31-3.39,1.48-3.32,1.48,0,2.26,2.11.08,3.39-.62.38-.23,1.43.63,1.43,2.42-1.66,3.75-1.28,4.3.45-.39,1.81-1.8,1.88-3.67,1-.7-.75-2,.45-1.48,1.28,1.41,2-.39,3.39-1.8,2.71a1.76,1.76,0,0,1,.08-3.32c.7-.45.47-.75-.23-1.06-6-.08-7.81-2.19-7.26-6,.55-4.6,10-6.86,6.09-12.28-3.44-4.82-14.21.53-14.92,14.39,5.62,1.51,5.23,6.41-3.75,7.31-1.17,8.29,16.64.91,19.06,8.14a8.47,8.47,0,0,1-3-.83c-1.33,1.36-3.83.38-6.4-1.73-1.64-.6-1.41.6,1,2.94a6.73,6.73,0,0,1-4.92-2.79c-2.11.3-4.45-.6-6.95-3.24-.94,2.94.47,5.5,6.87,7.23,3.52,1,5.94,2.56,6.48,5.43h-3.28a8.61,8.61,0,0,1-2.73-3.39l-1.56,2.79c.16-2.56-3.75-1.13-4.14-5l-2.11-1c-.94,2.41.7,4.45,2.11,6.56h-6.95c1.41-2.11,3-4.14,2.11-6.56l-2.11,1c-.39,3.84-4.3,2.41-4.14,5l-1.56-2.79a9.34,9.34,0,0,1-2.73,3.39h-3.28c.55-2.86,3-4.44,6.48-5.43Z" style="fill:#3f3024;fill-rule:evenodd"/><path d="M90.79,117v-.08c-1.8-1.51-1.88-4.67-.86-8.82-2.11,1.2-2,4.14-3.67,4.14-2.34-4.45,4.92-7.69,3.2-12.21l-2.11,1c-.31,3.84-4.3,2.41-4.14,5l-1.56-2.79A7.82,7.82,0,0,1,75.56,108c-.08-3.69,2.5-5.73,6.56-6.78,6.48-1.73,7.89-4.29,7-7.23-2.58,2.64-4.92,3.54-7,3.24A6.73,6.73,0,0,1,77.12,100c2.5-2.34,2.66-3.54,1-2.94-2.58,2.11-5.08,3.09-6.33,1.73a9.3,9.3,0,0,1-3.12.83c2.42-7.23,20.23.15,19.06-8.14-9.22-.91-9.37-6.1-3.28-7.39C83.68,70.3,73,65,69.54,69.77c-3.9,5.43,5.55,7.69,6.09,12.28.47,3.84-1.33,6-7.34,6.1-.62.23-.86.53-.16,1a1.76,1.76,0,0,1,.08,3.32c-1.49.68-3.2-.75-1.8-2.71.55-.83-.78-2-1.48-1.28-2,.9-3.28.83-3.75-1,.62-1.73,2-2.11,4.3-.38.94-.08,1.33-1.13.62-1.51-2.11-1.28-1.33-3.39.16-3.39,1.8-.08,3.51,1.43,1.48,3.32-.55.75-.39,1.58.55,1.51,9.68-.83,5.78-6.93-2.89-9C50,74.14,55.25,60.95,63,59.67,73.45,57.94,85.32,70.3,85.87,83.78a8.86,8.86,0,0,0,1.41-.07c-.86-10.47-3.51-18.39-7.57-24.11-5.47-.68-6.4-1.36-7-2l6.09.45a37,37,0,0,0-4.53-4.52c-7.34.15-10-.15-9.61-.68L72.35,52A78,78,0,0,0,63,43.62c-1.8.75-2.34,2.41-2.81,4.15-1.48-2.64-1.09-4.67,1.8-6-5.31.22-5.23-1.73-3.83-4.15,3.75-1.58,4.53.53,4.92,3.17,4-2.86,5-.6,5.78.68a2.59,2.59,0,0,0-4.06,1.28l9.45,8.06-.55-7.23.62-.23c.7,3.17,1.25,6.25,1.72,9.19l3.91,4.15c-.7-5.12,0-4.9.39-4.82a22.28,22.28,0,0,1,.94,6.78,55.41,55.41,0,0,1,7.19,25.09h.7c.16-2.33.31-4.9.31-7.31a45.91,45.91,0,0,0-1-9.8c-2-9-9.76-18.31-9.61-25.85,0-5.5,6.49-8.36,12.34-12.36,5.86,4,12.11,6.86,12.19,12.36.08,7.54-7.66,16.88-9.69,25.85a45.8,45.8,0,0,0-1,9.8c0,2.41.16,5,.31,7.31a2.5,2.5,0,0,0,.78-.07,53.49,53.49,0,0,1,7.19-25,20,20,0,0,1,.86-6.78c.39-.07,1.09-.3.39,4.82l3.9-4.15c.47-2.94,1-6,1.72-9.19l.62.23-.55,7.23,9.45-8.06c-.39-1.36-2-2.49-4.06-1.28.78-1.28,1.8-3.54,5.78-.68.39-2.64,1.17-4.75,4.92-3.17,1.48,2.41,1.56,4.37-3.83,4.15,2.89,1.28,3.28,3.31,1.88,6-.55-1.73-1.09-3.39-2.89-4.15A77.58,77.58,0,0,0,109.85,52l7.58.83c.39.53-2.27.83-9.61.68A32.16,32.16,0,0,0,103.36,58l6-.45c-.55.68-1.48,1.36-7,2-4.06,5.8-6.72,13.64-7.58,24.19a7.27,7.27,0,0,1,1.33.08c.55-13.49,12.42-26,23-24.19,7.73,1.28,13,14.47-2.42,18.24-8.67,2.19-12.58,8.29-2.89,9.12.94.08,1.09-.75.55-1.51-2-1.88-.31-3.39,1.48-3.39,1.48.08,2.26,2.19.16,3.47-.7.38-.31,1.43.55,1.43,2.42-1.66,3.75-1.28,4.37.45-.47,1.81-1.87,1.88-3.75,1-.7-.75-2,.45-1.48,1.28,1.41,2-.31,3.39-1.8,2.71a1.76,1.76,0,0,1,.08-3.32c.7-.45.47-.75-.16-1-6-.15-7.81-2.26-7.34-6.1.55-4.6,10-6.86,6.09-12.28-3.44-4.82-14.21.53-14.92,14.39,5.62,1.51,5.23,6.48-3.75,7.31-1.09,8.29,16.64.9,19.14,8.14a8.5,8.5,0,0,1-3.12-.83c-1.33,1.36-3.83.38-6.33-1.73-1.72-.6-1.48.6.94,2.94a6.73,6.73,0,0,1-4.92-2.79c-2.11.3-4.45-.6-6.95-3.24-.94,2.94.47,5.5,6.87,7.23,4.14,1.06,6.72,3.09,6.56,6.78a7.88,7.88,0,0,1-6-4.75L98.44,106c.16-2.56-3.75-1.13-4.14-5l-2.11-1c-1.72,4.52,5.55,7.76,3.2,12.21-1.64,0-1.56-2.94-3.67-4.14,1,4.14,1,7.23-.86,8.82V117h-.08Z" style="fill:#3f3024;fill-rule:evenodd"/><path d="M273.8,117v-.08c-1.88-1.51-1.88-4.67-.86-8.82-2.11,1.2-2,4.14-3.67,4.14-2.34-4.45,4.92-7.69,3.2-12.21l-2.11,1c-.39,3.84-4.3,2.41-4.14,5l-1.56-2.79a7.93,7.93,0,0,1-6.09,4.75c-.08-3.69,2.5-5.73,6.56-6.78,6.41-1.73,7.81-4.29,6.87-7.23-2.5,2.64-4.84,3.54-6.95,3.24a6.73,6.73,0,0,1-4.92,2.79c2.42-2.34,2.66-3.54,1-2.94-2.58,2.11-5.08,3.09-6.41,1.73a8.55,8.55,0,0,1-3,.83c2.42-7.23,20.23.15,19.06-8.14-9.22-.91-9.37-6.1-3.36-7.39-.7-13.79-11.48-19.06-14.92-14.32-3.83,5.43,5.55,7.69,6.17,12.28.47,3.84-1.33,6-7.34,6.1-.62.23-.86.53-.16,1a1.74,1.74,0,0,1,0,3.32c-1.41.68-3.12-.75-1.72-2.71.55-.83-.86-2-1.56-1.28-1.88.9-3.2.83-3.67-1,.62-1.73,2-2.11,4.3-.38.94-.08,1.25-1.13.62-1.51-2.19-1.28-1.33-3.39.08-3.39,1.8-.08,3.52,1.43,1.56,3.32-.55.75-.39,1.58.55,1.51,9.68-.83,5.78-6.93-2.89-9-15.46-3.84-10.15-17-2.42-18.31,10.47-1.73,22.34,10.63,22.88,24.11a7.93,7.93,0,0,0,1.33-.07c-.78-10.47-3.44-18.39-7.58-24.11-5.39-.68-6.33-1.36-6.87-2l6,.45a32.23,32.23,0,0,0-4.45-4.52c-7.34.15-10.08-.15-9.61-.68l7.58-.83A77.58,77.58,0,0,0,246,43.62c-1.8.75-2.34,2.41-2.89,4.15-1.41-2.64-1-4.67,1.87-6-5.39.22-5.31-1.73-3.83-4.15,3.75-1.58,4.53.53,4.92,3.17,4-2.86,5-.6,5.78.68a2.59,2.59,0,0,0-4.06,1.28l9.45,8.06-.55-7.23.62-.23c.7,3.17,1.25,6.25,1.72,9.19l3.91,4.15c-.78-5.12,0-4.9.39-4.82a20.05,20.05,0,0,1,.86,6.78,53.55,53.55,0,0,1,7.18,25.09h.7c.16-2.33.39-4.9.31-7.31a45.85,45.85,0,0,0-.94-9.8c-2-9-9.76-18.31-9.69-25.85.08-5.5,6.48-8.36,12.42-12.36,5.86,4,12,6.86,12.11,12.36.16,7.54-7.58,16.88-9.68,25.85a51.29,51.29,0,0,0-.94,9.8c0,2.41.16,5,.31,7.31a2.25,2.25,0,0,0,.7-.07,55.35,55.35,0,0,1,7.19-25,24.87,24.87,0,0,1,.86-6.78c.47-.07,1.17-.3.47,4.82l3.91-4.15c.47-2.94,1-6,1.72-9.19l.63.23-.55,7.23,9.45-8.06c-.39-1.36-2-2.49-4.06-1.28.78-1.28,1.8-3.54,5.78-.68.31-2.64,1.17-4.75,4.92-3.17,1.41,2.41,1.48,4.37-3.83,4.15,2.89,1.28,3.28,3.31,1.8,6-.47-1.73-1-3.39-2.81-4.15A78,78,0,0,0,292.78,52l7.66.83c.39.53-2.27.83-9.61.68A37,37,0,0,0,286.29,58l6.09-.45c-.55.68-1.48,1.36-7,2-4.06,5.8-6.72,13.64-7.58,24.19a7.27,7.27,0,0,1,1.33.08c.55-13.49,12.42-26,22.88-24.19,7.81,1.28,13,14.47-2.42,18.24-8.67,2.19-12.58,8.29-2.81,9.12.86.08,1.09-.75.55-1.51-2-1.88-.31-3.39,1.48-3.39,1.48.08,2.26,2.19.08,3.47-.62.38-.23,1.43.63,1.43,2.42-1.66,3.75-1.28,4.3.45-.39,1.81-1.8,1.88-3.67,1-.7-.75-2,.45-1.48,1.28,1.41,2-.39,3.39-1.8,2.71a1.76,1.76,0,0,1,.08-3.32c.7-.45.47-.75-.23-1-6-.15-7.81-2.26-7.26-6.1.55-4.6,10-6.86,6.09-12.28-3.44-4.82-14.21.53-14.92,14.39,5.62,1.51,5.23,6.48-3.75,7.31-1.17,8.29,16.64.9,19.06,8.14a8.55,8.55,0,0,1-3-.83c-1.33,1.36-3.83.38-6.4-1.73-1.64-.6-1.41.6,1,2.94a6.73,6.73,0,0,1-4.92-2.79c-2.11.3-4.45-.6-6.95-3.24-.94,2.94.47,5.5,6.87,7.23,4.06,1.06,6.64,3.09,6.56,6.78a8.1,8.1,0,0,1-6.09-4.75L281.45,106c.16-2.56-3.75-1.13-4.14-5l-2.11-1c-1.72,4.52,5.55,7.76,3.2,12.21-1.64,0-1.56-2.94-3.67-4.14,1,4.14.94,7.23-.86,8.82V117Z" style="fill:#3f3024;fill-rule:evenodd"/><path d="M-.28,321.76c-1.87-1.58-1.87-4.75-.86-8.82-2.11,1.13-2,4.07-3.67,4.07-2.34-4.45,4.92-7.61,3.12-12.21l-2,1c-.39,3.92-4.3,2.41-4.14,5L-9.5,308a7.73,7.73,0,0,1-6,4.75C-15.67,309-13.09,307.07-9,306c6.4-1.81,7.81-4.37,6.87-7.31-2.5,2.71-4.84,3.54-7,3.24A6.73,6.73,0,0,1-14,304.74c2.42-2.34,2.65-3.54.94-2.86-2.5,2.11-5,3-6.33,1.66a6.46,6.46,0,0,1-3.13.83c2.5-7.23,20.23.23,19.14-8.06-9.21-1-9.37-6.1-3.36-7.46-.78-13.79-11.48-19.06-14.92-14.24-3.83,5.43,5.55,7.69,6.17,12.28.47,3.84-1.33,6-7.34,6-.7.23-.94.53-.23,1,1.56.3,1.72,2.71.08,3.39-1.41.6-3.12-.83-1.72-2.79.55-.83-.86-2-1.56-1.28-1.88.9-3.2.83-3.67-1,.62-1.66,1.88-2,4.3-.38.94-.08,1.25-1.13.63-1.51-2.19-1.28-1.33-3.39.08-3.39,1.8-.07,3.51,1.43,1.56,3.32-.55.75-.39,1.66.55,1.51,9.69-.83,5.78-6.93-2.89-9-15.46-3.84-10.23-17-2.42-18.31C-17.62,262.69-5.75,275-5.2,288.61a7.93,7.93,0,0,1,1.33-.07c-.78-10.55-3.44-18.39-7.58-24.19-5.39-.68-6.4-1.36-6.87-2l6,.45a37.29,37.29,0,0,0-4.45-4.52c-7.34.15-10.08-.15-9.61-.68l7.57-.83a76.5,76.5,0,0,0-9.29-8.29c-1.8.68-2.34,2.34-2.89,4.07-1.41-2.64-1-4.67,1.8-6-5.31.23-5.23-1.73-3.75-4.14,3.75-1.58,4.53.53,4.92,3.17,4-2.86,5-.6,5.78.68-2.11-1.2-3.67-.07-4.06,1.36l9.45,8-.55-7.16.63-.3c.7,3.24,1.25,6.25,1.72,9.19l3.91,4.14c-.78-5-.08-4.9.39-4.82a22.74,22.74,0,0,1,.86,6.78A54.74,54.74,0,0,1-2.7,288.53a2.25,2.25,0,0,1,.7.07c.16-2.33.39-5,.31-7.31a46.38,46.38,0,0,0-.94-9.87c-2-9-9.76-18.31-9.68-25.85.08-5.5,6.48-8.36,12.34-12.36,5.94,4,12.11,6.86,12.19,12.36.08,7.53-7.58,16.88-9.69,25.85a52.22,52.22,0,0,0-.94,9.87c-.08,2.34.16,4.9.31,7.23h.7a55.71,55.71,0,0,1,7.18-25.09,25.64,25.64,0,0,1,.86-6.78c.47-.07,1.17-.22.47,4.82L15,257.34c.47-2.94,1-6,1.72-9.19l.55.3-.47,7.16,9.37-8c-.39-1.43-2-2.56-4.06-1.36.78-1.28,1.87-3.54,5.86-.68.31-2.64,1.17-4.75,4.92-3.17,1.41,2.41,1.49,4.37-3.83,4.14,2.89,1.28,3.28,3.32,1.8,6-.47-1.73-1-3.39-2.81-4.07a76.93,76.93,0,0,0-9.37,8.29l7.65.83c.39.53-2.34.83-9.61.68a37,37,0,0,0-4.53,4.52l6.09-.45c-.55.68-1.48,1.36-6.95,2-4.06,5.8-6.72,13.64-7.58,24.19.47,0,.94.07,1.33.07.55-13.49,12.42-25.92,22.89-24.19,7.81,1.36,13,14.47-2.42,18.31-8.67,2.11-12.57,8.22-2.81,9,.86.15,1.09-.75.55-1.51-2-1.88-.31-3.39,1.48-3.32,1.49,0,2.27,2.11.08,3.39-.62.38-.23,1.43.62,1.51,2.42-1.66,3.67-1.28,4.3.38-.47,1.81-1.8,1.88-3.67,1-.7-.75-2.11.45-1.56,1.28,1.48,2-.31,3.39-1.72,2.79-1.64-.68-1.49-3.09.08-3.39.7-.45.47-.75-.23-1-6-.07-7.81-2.19-7.26-6,.55-4.6,10-6.86,6.09-12.28-3.44-4.82-14.22.45-14.92,14.32,5.54,1.51,5.23,6.48-3.75,7.38-1.17,8.29,16.64.83,19.06,8.06a6.67,6.67,0,0,1-3.12-.83c-1.25,1.36-3.75.45-6.33-1.66-1.64-.68-1.49.53,1,2.86a6.73,6.73,0,0,1-4.92-2.79c-2.11.3-4.45-.6-7-3.24-.94,2.94.47,5.5,6.95,7.31,4.06,1.06,6.64,3,6.56,6.71A7.82,7.82,0,0,1,8.93,308l-1.56,2.86c.16-2.64-3.83-1.13-4.14-5l-2.11-1c-1.72,4.6,5.55,7.76,3.2,12.21-1.64,0-1.56-2.94-3.67-4.07,1,4.07.94,7.24-.86,8.82Z" style="fill:#493a2f;fill-rule:evenodd"/><path d="M365.7,321.76c-1.87-1.58-2-4.75-.86-8.82-2.19,1.13-2,4.07-3.67,4.07-2.34-4.45,4.84-7.61,3.12-12.21l-2.11,1c-.31,3.92-4.22,2.41-4.14,5L356.48,308a7.82,7.82,0,0,1-6.09,4.75c-.08-3.69,2.5-5.65,6.64-6.71,6.41-1.81,7.81-4.37,6.87-7.31-2.58,2.71-4.84,3.54-7,3.24a6.48,6.48,0,0,1-4.84,2.79c2.42-2.34,2.58-3.54.94-2.86-2.5,2.11-5,3-6.33,1.66a6.45,6.45,0,0,1-3.12.83c2.42-7.23,20.23.23,19.14-8.06-9.22-1-9.37-6.1-3.36-7.46-.78-13.79-11.48-19.06-14.92-14.24-3.9,5.43,5.55,7.69,6.09,12.28.55,3.84-1.25,6-7.26,6-.7.23-.94.53-.23,1,1.56.3,1.72,2.71.08,3.39-1.41.6-3.2-.83-1.8-2.79.55-.83-.78-2-1.48-1.28-1.87.9-3.2.83-3.67-1,.55-1.66,1.87-2,4.3-.38.86-.08,1.25-1.13.62-1.51-2.19-1.28-1.41-3.39.08-3.39,1.8-.07,3.51,1.43,1.48,3.32-.55.75-.31,1.66.55,1.51,9.76-.83,5.86-6.93-2.81-9-15.47-3.84-10.23-17-2.42-18.31,10.47-1.73,22.34,10.62,22.89,24.19a7.47,7.47,0,0,1,1.33-.07c-.86-10.55-3.51-18.39-7.57-24.19-5.47-.68-6.41-1.36-7-2l6.09.45a37.09,37.09,0,0,0-4.53-4.52c-7.26.15-10-.15-9.53-.68l7.58-.83a77,77,0,0,0-9.37-8.29c-1.8.68-2.27,2.34-2.81,4.07-1.48-2.64-1.09-4.67,1.8-6-5.31.23-5.23-1.73-3.83-4.14,3.75-1.58,4.61.53,5,3.17,3.91-2.86,5-.6,5.78.68-2.11-1.2-3.67-.07-4.06,1.36l9.37,8-.47-7.16.55-.3c.7,3.24,1.25,6.25,1.72,9.19l3.91,4.14c-.7-5,0-4.9.47-4.82a25.67,25.67,0,0,1,.86,6.78,55.69,55.69,0,0,1,7.19,25.09,2.26,2.26,0,0,1,.7.07c.16-2.33.39-5,.31-7.31a52.26,52.26,0,0,0-.94-9.87c-2.11-9-9.76-18.31-9.69-25.85.08-5.5,6.48-8.36,12.34-12.36,5.86,4,12.11,6.86,12.19,12.36.08,7.53-7.66,16.88-9.69,25.85a46.42,46.42,0,0,0-.94,9.87c-.08,2.34.16,4.9.31,7.23h.7a55.71,55.71,0,0,1,7.19-25.09,22.82,22.82,0,0,1,.86-6.78c.47-.07,1.17-.22.47,4.82l3.83-4.14c.47-2.94,1-6,1.72-9.19l.62.3-.47,7.16,9.37-8c-.39-1.43-2-2.56-4.06-1.36.78-1.28,1.8-3.54,5.78-.68.39-2.64,1.17-4.75,4.92-3.17,1.48,2.41,1.56,4.37-3.75,4.14,2.89,1.28,3.2,3.32,1.8,6-.55-1.73-1.09-3.39-2.89-4.07a76.55,76.55,0,0,0-9.29,8.29l7.58.83c.47.53-2.26.83-9.61.68a37,37,0,0,0-4.45,4.52l6-.45c-.47.68-1.48,1.36-6.87,2-4.14,5.8-6.8,13.64-7.58,24.19.47,0,.86.07,1.33.07.47-13.49,12.42-25.92,22.89-24.19,7.73,1.36,13,14.47-2.42,18.31-8.67,2.11-12.58,8.22-2.89,9,.94.15,1.09-.75.55-1.51-2-1.88-.23-3.39,1.56-3.32,1.41,0,2.27,2.11.08,3.39-.63.38-.31,1.43.62,1.51,2.34-1.66,3.67-1.28,4.3.38-.47,1.81-1.8,1.88-3.67,1-.7-.75-2.11.45-1.56,1.28,1.41,2-.31,3.39-1.72,2.79-1.72-.68-1.48-3.09,0-3.39.7-.45.47-.75-.16-1-6-.07-7.81-2.19-7.34-6,.62-4.6,10-6.86,6.17-12.28-3.44-4.82-14.22.45-14.92,14.32,5.54,1.51,5.23,6.48-3.83,7.38-1.09,8.29,16.72.83,19.14,8.06a6.46,6.46,0,0,1-3.12-.83c-1.33,1.36-3.75.45-6.33-1.66-1.64-.68-1.49.53.94,2.86-1.56-.08-3.12-.75-4.84-2.79-2.19.3-4.45-.6-7-3.24-.94,2.94.47,5.5,6.87,7.31,4.14,1.06,6.72,3,6.64,6.71a7.82,7.82,0,0,1-6.09-4.75l-1.56,2.86c.08-2.64-3.83-1.13-4.14-5l-2.11-1c-1.72,4.6,5.55,7.76,3.12,12.21-1.64,0-1.48-2.94-3.67-4.07,1.09,4.07,1,7.24-.78,8.82Z" style="fill:#493a2f;fill-rule:evenodd"/><path d="M182.75,320.86l-.23-.07c-1.49-1.28-1.88-3.47-1.56-6.25l.39-2-.39.38c-.94,1.28-1.72,3.17-3,3-2-3.84,3.12-7.08,3.36-10.7l-.16-1.21-1.64.75-.23,1.2c-1,2.64-4,1.43-3.83,3.62l.08,1.2-2-3.47-1.17,1.73a8,8,0,0,1-4.84,2.71l-.39.07v-.38c-.08-3.84,2.65-6,6.79-7,4.76-1.28,6.64-3,7-4.9l-.16-1.51-1.48,1.36a7.92,7.92,0,0,1-3.59,1.58h-1.56l-1.25,1.2a6,6,0,0,1-3.75,1.58l-.78.08.55-.53c.78-.83,1.25-1.43,1.56-1.81l.39-.75-.7.08-1.8,1.36a5.59,5.59,0,0,1-3.51,1l-1.09-.6-1.72.6a10.66,10.66,0,0,1-1.41.23l-.47.08.16-.45c2.42-7.16,18-.68,19.06-6.63v-1.13l-2.73-.53c-5.31-1.43-6.17-4.9-2.5-6.71l1.87-.68-.62-4.52c-2.65-10.17-11-13-13.67-9.34-4,5.5,5.47,6.7,6.17,12.06.39,3.54-1,5.73-5.54,6.25l-2,.15-.39.22.31.3.94.6a2.06,2.06,0,0,1-.94,3.16c-1.72.75-3.67-1-2.11-3.16.47-.75-.78-1.21-1.09-.91-2,1-3.67,1-4.14-1.28a2.05,2.05,0,0,1,3-1.43l1.56.83.55-.45-.16-.53c-2.26-1.28-1.64-3.84.23-3.92,1.48,0,3,.91,2.73,2.34l-.94,1.51c-.55.75-.16,1.06.23,1.06,8.75-.75,5.86-6.41-2.89-8.52-15.78-4-10.39-17.56-2.35-18.84,9.37-1.58,19.68,7.84,22.5,19.37l.7,4.75.7-.08-.86-7.08A47,47,0,0,0,174.08,268l-2.73-4.67-3.12-.45c-2.66-.53-3.36-1-3.83-1.58l-.39-.53,5.94.45-1.8-2L166,257.34l-4.06.08c-3.91-.08-6.33-.3-5.55-1.28l7.11-.75-4.22-4.15-4.45-3.69-.94.6a6.8,6.8,0,0,0-1.64,3.24l-.16.68-.39-.6c-1.09-2-1.17-3.84.16-5.12l1-.68H152c-3.67-.3-3.59-2.34-2.11-4.67,3-1.28,4.38-.23,4.92,1.51l.39,1.43,1-.68c3.12-1.51,4.14.53,4.84,1.66l.55,1-1-.6a2.34,2.34,0,0,0-3.12.38l-.39.68,8.67,7.39-.47-6.71,1.17-.45.08.38,1.72,9,3.2,3.47-.08-.75c-.39-3.32.16-3.62,1.17-3.39a25.9,25.9,0,0,1,.7,3.54l.16,3.32,2.81,5.5a52.7,52.7,0,0,1,3.59,12.58l.86,6.86.39-7a50.88,50.88,0,0,0-.94-9.8c-2-8.67-9.76-18.39-9.69-25.92.08-5.65,6.72-8.67,12.58-12.66l.23.08c5.78,3.92,12.18,6.93,12.26,12.58.16,7.54-7.66,17.26-9.69,25.92a50.83,50.83,0,0,0-.94,9.8l.47,6.93.78-6.78a52.72,52.72,0,0,1,3.59-12.58l2.81-5.5.16-3.32a15.12,15.12,0,0,1,.86-3.62c.86-.15,1.41.15,1,3.47l-.08.75,3.2-3.47,1.72-9,.08-.38,1.17.45-.47,6.71,8.67-7.39-.39-.75a2.43,2.43,0,0,0-3.12-.3l-1,.6.62-1c.62-1.13,1.64-3.17,4.76-1.66l1,.68.31-1.43c.62-1.73,2-2.79,5.08-1.43,1.41,2.26,1.48,4.3-2.19,4.6H213l1,.68c1.33,1.28,1.25,3.09.16,5.12l-.39.6-.16-.68a6.79,6.79,0,0,0-1.64-3.24l-.94-.6-4.45,3.69-4.22,4.15,7.19.83c.7.9-1.49,1.13-5.39,1.2l-4.3-.08-2.11,1.88-1.88,2,6-.45-.39.53c-.47.6-1.17,1.05-3.83,1.58l-3.12.45L191.81,268A46.94,46.94,0,0,0,188,279.94l-.86,7.16h.7l.7-4.67c2.73-11.53,13.12-21,22.49-19.44,8,1.28,13.44,14.84-2.42,18.84-9,2.19-11.87,7.69-2.89,8.52.47,0,.86-.38.31-1.06l-.94-1.51c-.31-1.43,1.25-2.34,2.65-2.34,2,.08,2.58,2.64.31,3.92l-.16.53.55.45,1.56-.83q2.23-.9,3,1.58c-.47,2.11-2.19,2.11-4.14,1.13-.31-.3-1.64.15-1.09.91,1.56,2.18-.39,3.92-2.11,3.16a2.06,2.06,0,0,1-.94-3.16l.94-.6.31-.3-.39-.22-2-.15c-4.53-.53-6-2.71-5.55-6.25.7-5.35,10.15-6.56,6.17-12.06-2.66-3.69-11.09-.83-13.67,9.34l-.7,4.67,1.8.68c3.36,1.88,2.34,5.2-2.89,6.63l-2.66.45v1.13c1,5.73,16.56-.68,19.06,6.63l.16.38h-.47a13.21,13.21,0,0,1-1.41-.23l-1.64-.6-1.17.6a5.58,5.58,0,0,1-3.51-1l-1.8-1.36-.62-.08.31.75a18.88,18.88,0,0,0,1.64,1.81l.55.53-.78-.08a6.18,6.18,0,0,1-3.83-1.58l-1.17-1.2h-1.56a8.16,8.16,0,0,1-3.67-1.58l-1.41-1.36-.16,1.51c.23,1.88,2.11,3.62,6.87,4.9,4.14,1.06,6.87,3.16,6.79,7v.38l-.39-.07a8,8,0,0,1-4.84-2.71L192,307.37l-2,3.47v-1.2c.16-2.34-2.81-1.21-3.83-3.69l-.23-1.13-1.64-.75-.16,1.13c.31,3.54,5.47,6.86,3.2,10.93-1.17,0-2-1.88-2.89-3.17l-.39-.38.39,2c.31,2.71-.08,4.9-1.72,6.25Zm-.08-1.13h0l.62-.83c.7-1.58.63-4-.15-7.08l-.31-1.06,1,.53c1.88,1,2,2.79,2.66,3.62l.47.23.31-1.06c.08-3.47-5.47-5.8-3.67-10.62l.23-.53,2.81,1.36.08.23c.23,2.49,2.5,2.49,3.59,3.54l.08.38,1.56-2.71.39.91a8.08,8.08,0,0,0,2.73,3.24l2.27.91-.23-1.51c-.78-2-2.81-3.24-5.86-4-6.48-1.81-8.28-4.52-7.26-7.84l.31-.83.55.6c2.5,2.56,4.69,3.39,6.56,3.09l.31-.07.16.23a9,9,0,0,0,2.34,2l.62.15-.62-.83c-.47-.83-.39-1.36-.08-1.58l.62-.15-2.11-.15c-4.3-.23-8-.83-7.34-4.9v-.38l.39-.07c8.44-.83,8.59-5,3.67-6.33l-.39-.15.08-.38c.7-13.49,11.72-20.42,15.85-14.62s-5.62,8.82-6.09,12.58c-.39,3.47,1,5.43,6.87,5.58.94.23,1.72,1.06.39,1.88a1.32,1.32,0,0,0-.08,2.49c.94.38,2.26-.45,1.09-2a1.92,1.92,0,0,1,1.25-2.41l.94.38c1.41.68,2.19.75,2.65.15l.23-.68-.31-.6c-.55-.6-1.41-.6-3.12.6l-.23.08c-1.17-.08-2.19-1.66-.94-2.41,2-1.05.86-2.41.16-2.49-1.64,0-2.58,1.13-1.09,2.56.55.83.7,2.56-1,2.34-10.39-.9-6.17-7.84,2.81-10,14.76-3.69,9.84-16.12,2.42-17.33-10-1.73-21.71,10.33-22.26,23.74V288l-.55-.07c-.47-.08-.86-.08-1.33-.15h-.55l.08-.53c.86-10.55,3.51-18.54,7.65-24.41l.23-.15c1.48-.23,2.58-.38,3.44-.53l1.48-.38-5,.38.7-.91a37.08,37.08,0,0,1,4.61-4.52l.23-.15h6.56l-5.55-.68.7-.68a67.26,67.26,0,0,1,9.37-8.36l.23-.23.23.15a3.83,3.83,0,0,1,2.19,1.88l.55,1.28.16-.53c.39-1.58-.31-2.71-2.19-3.62l-1.17-1c-1.88-1.36-3-1.51-3.67-1.21l-.55.53a2.9,2.9,0,0,1,3.2,2.11l.08.3-10.55,9,.31-5.12-1.09,5.88-5.08,5.58.23-1.58c.08-.91.16-1.58.23-2.11l.08-1.28-.47,2c-.08,1.13-.16,2.26-.16,3.39a55.25,55.25,0,0,0-7.19,25v.45l-1.72.07v-.45c-.15-2.34-.39-4.9-.31-7.31a53,53,0,0,1,.94-9.95c2.19-9.42,9.76-18.16,9.69-25.77-.08-3.84-3.36-6.33-7.58-9l-4.06-2.71-4.22,2.71c-4.22,2.71-7.58,5.2-7.66,9-.08,7.61,7.5,16.28,9.69,25.77a47.14,47.14,0,0,1,.94,9.95c.08,2.41-.16,5-.31,7.31v.53l-1.72-.15v-.45a55,55,0,0,0-7.11-24.87c-.08-1.28-.16-2.41-.23-3.54l-.47-2,.08,1.28c.08.53.16,1.2.23,2.11l.23,1.58-5.08-5.58-1.09-5.88.31,5.12-10.54-9,.08-.3a3,3,0,0,1,3.2-2.18l-.55-.45c-.7-.3-1.8-.15-3.59,1.21l-1.17,1c-2,.91-2.65,2-2.34,3.62l.23.53.55-1.28a3.83,3.83,0,0,1,2.19-1.88l.23-.15.23.23a67.11,67.11,0,0,1,9.37,8.36l.7.68-5.55.68h6.48l.23.07a38.2,38.2,0,0,1,4.69,4.6l.7.91-5-.38,1.48.38c.86.15,2,.3,3.28.53l.31.07c4.22,6,6.87,13.94,7.73,24.49l.08.53h-.55c-.47,0-.94.07-1.33.07l-.55.08v-.53c-.55-13.34-12.26-25.39-22.34-23.66-7.34,1.21-12.26,13.64,2.5,17.33,9.22,2.26,13.36,9.12,2.81,10-1.8.23-1.56-1.58-1-2.26,1.48-1.51.55-2.64-1.09-2.64-.7.08-1.8,1.36.16,2.49,1.25.75.23,2.34-.86,2.41h-.23c-1.8-1.28-2.73-1.28-3.2-.68l-.39.6.31.68c.47.6,1.25.53,2.66-.15l.94-.38a2,2,0,0,1,1.25,2.41c-1.17,1.58.16,2.41,1.09,2a1.28,1.28,0,0,0,0-2.41c-1.33-.9-.7-1.66.16-2,6-.15,7.42-2.11,7-5.58-.55-4.07-10.23-6.78-6.09-12.58s15.15,1.06,15.86,14.54V288l-.39.08c-5.15,1.13-5.47,5.65,3.28,6.48l.39.07.08.38c.55,4.44-3.67,4.9-8.28,5l-.94.08.55.38a1.61,1.61,0,0,1-.31,1.2l-.62.91.62-.15a9,9,0,0,0,2.34-2l.16-.23.31.07c1.88.3,4.06-.53,6.56-3.09l.62-.6.23.83c1,3.32-.78,6-7.26,7.84-3,.75-5.08,2-5.86,4l-.23,1.51,2.26-.91a7.51,7.51,0,0,0,2.73-3.24l.39-.91L175,308.5l.16-.3c1-1,3.36-1.06,3.59-3.69v-.23l2.89-1.36.16.53c1.72,4.52-3.75,7.24-3.59,10.62l.23,1.06.39-.23c.47-.75.62-2.49,2.73-3.62l1-.53-.23,1.06c-.78,3.09-.94,5.5-.23,7.08l.55.83Zm-21.24-17.18h0l.39-.08a4.15,4.15,0,0,0,1.56-.6l.39-.15.23.23c.94,1.06,3,.53,5.7-1.66l.55-.15-1.88.08c-2.89.15-5.47.53-6.79,2l-.16.3Zm42.57,0h0l-.16-.3c-1-1.2-2.65-1.73-4.68-2l-4.37-.23.86.15c2.73,2.26,4.84,2.71,5.78,1.81l.23-.3.39.15a4.68,4.68,0,0,0,1.56.6l.39.08ZM153.85,244.9h.62v-.45c-.31-2-.7-3.32-2.27-3.24l-1.8.45-.62,1.28c-.39,1.28.31,2.11,4.06,2Zm62.25-2h0l-.62-1.28-1.8-.45c-1.56-.08-2,1.28-2.26,3.24v.45h.7c3.67.15,4.37-.68,4-2Z" style="fill:#493a2f;fill-rule:evenodd"/><path d="M-.28,49.77C-2.16,48.19-2.16,45-1.14,41-3.25,42.08-3.17,45-4.81,45-7.16,40.57.11,37.41-1.69,32.81l-2,1c-.39,3.92-4.3,2.41-4.14,5L-9.5,36a7.73,7.73,0,0,1-6,4.75C-15.67,37-13.09,35.07-9,34c6.4-1.81,7.81-4.37,6.87-7.31-2.5,2.71-4.84,3.54-7,3.24A6.73,6.73,0,0,1-14,32.74c2.42-2.34,2.65-3.54.94-2.86-2.5,2.11-5,3-6.33,1.66a6.46,6.46,0,0,1-3.13.83c2.5-7.23,20.23.23,19.14-8.06-9.21-1-9.37-6.1-3.36-7.46C-7.47,3-18.17-2.22-21.61,2.6c-3.83,5.43,5.55,7.69,6.17,12.28.47,3.84-1.33,6-7.34,6-.7.23-.94.53-.23,1,1.56.3,1.72,2.71.08,3.39-1.41.6-3.12-.83-1.72-2.79.55-.83-.86-2-1.56-1.28-1.88.9-3.2.83-3.67-1,.62-1.66,1.88-2,4.3-.38.94-.08,1.25-1.13.63-1.51-2.19-1.28-1.33-3.39.08-3.39,1.8-.07,3.51,1.43,1.56,3.32-.55.75-.39,1.66.55,1.51,9.69-.83,5.78-6.93-2.89-9-15.46-3.84-10.23-17-2.42-18.31C-17.62-9.31-5.75,3-5.2,16.61a7.94,7.94,0,0,1,1.33-.07C-4.66,6-7.31-1.85-11.45-7.65c-5.39-.68-6.4-1.36-6.87-2l6,.45a37.29,37.29,0,0,0-4.45-4.52c-7.34.15-10.08-.15-9.61-.68l7.57-.83a76.5,76.5,0,0,0-9.29-8.29c-1.8.68-2.34,2.34-2.89,4.07-1.41-2.64-1-4.67,1.8-6-5.31.23-5.23-1.73-3.75-4.14,3.75-1.58,4.53.53,4.92,3.17,4-2.86,5-.6,5.78.68-2.11-1.2-3.67-.07-4.06,1.36l9.45,8-.55-7.16.63-.3c.7,3.24,1.25,6.25,1.72,9.19l3.91,4.14c-.78-5-.08-4.9.39-4.82a22.74,22.74,0,0,1,.86,6.78A54.74,54.74,0,0,1-2.7,16.54a2.26,2.26,0,0,1,.7.07c.16-2.33.39-5,.31-7.31A46.38,46.38,0,0,0-2.63-.57c-2-9-9.76-18.31-9.68-25.85.08-5.5,6.48-8.36,12.34-12.36,5.94,4,12.11,6.86,12.19,12.36C12.29-18.88,4.64-9.53,2.53-.57A52.22,52.22,0,0,0,1.59,9.3c-.08,2.34.16,4.9.31,7.23h.7A55.71,55.71,0,0,1,9.79-8.56a25.64,25.64,0,0,1,.86-6.78c.47-.07,1.17-.22.47,4.82L15-14.66c.47-2.94,1-6,1.72-9.19l.55.3-.47,7.16,9.37-8c-.39-1.43-2-2.56-4.06-1.36C22.92-27,24-29.28,28-26.41c.31-2.64,1.17-4.75,4.92-3.17,1.41,2.41,1.49,4.37-3.83,4.14,2.89,1.28,3.28,3.32,1.8,6-.47-1.73-1-3.39-2.81-4.07a76.93,76.93,0,0,0-9.37,8.29l7.65.83c.39.53-2.34.83-9.61.68a37,37,0,0,0-4.53,4.52l6.09-.45c-.55.68-1.48,1.36-6.95,2C7.29-1.85,4.64,6,3.78,16.54c.47,0,.94.07,1.33.07C5.65,3.12,17.53-9.31,28-7.58,35.8-6.22,41,6.89,25.57,10.73c-8.67,2.11-12.57,8.22-2.81,9,.86.15,1.09-.75.55-1.51-2-1.88-.31-3.39,1.48-3.32,1.49,0,2.27,2.11.08,3.39-.62.38-.23,1.43.62,1.51,2.42-1.66,3.67-1.28,4.3.38-.47,1.81-1.8,1.88-3.67,1-.7-.75-2.11.45-1.56,1.28,1.48,2-.31,3.39-1.72,2.79-1.64-.68-1.49-3.09.08-3.39.7-.45.47-.75-.23-1-6-.07-7.81-2.19-7.26-6C16,10.28,25.41,8,21.51,2.6,18.07-2.22,7.29,3,6.59,16.91c5.54,1.51,5.23,6.48-3.75,7.38-1.17,8.29,16.64.83,19.06,8.06a6.66,6.66,0,0,1-3.12-.83c-1.25,1.36-3.75.45-6.33-1.66-1.64-.68-1.49.53,1,2.86A6.73,6.73,0,0,1,8.54,30c-2.11.3-4.45-.6-7-3.24C.58,29.65,2,32.21,8.46,34c4.06,1.06,6.64,3,6.56,6.71A7.82,7.82,0,0,1,8.93,36L7.37,38.84c.16-2.64-3.83-1.13-4.14-5l-2.11-1C-.6,37.41,6.67,40.57,4.33,45,2.69,45,2.76,42.08.66,41c1,4.07.94,7.23-.86,8.82Z" style="fill:#493a2f;fill-rule:evenodd"/><path d="M365.7,49.77c-1.87-1.58-2-4.75-.86-8.82-2.19,1.13-2,4.07-3.67,4.07-2.34-4.45,4.84-7.61,3.12-12.21l-2.11,1c-.31,3.92-4.22,2.41-4.14,5L356.48,36a7.82,7.82,0,0,1-6.09,4.75c-.08-3.69,2.5-5.65,6.64-6.71,6.41-1.81,7.81-4.37,6.87-7.31-2.58,2.71-4.84,3.54-7,3.24A6.48,6.48,0,0,1,352,32.74c2.42-2.34,2.58-3.54.94-2.86-2.5,2.11-5,3-6.33,1.66a6.45,6.45,0,0,1-3.12.83c2.42-7.23,20.23.23,19.14-8.06-9.22-1-9.37-6.1-3.36-7.46C358.52,3,347.81-2.22,344.38,2.6c-3.9,5.43,5.55,7.69,6.09,12.28.55,3.84-1.25,6-7.26,6-.7.23-.94.53-.23,1,1.56.3,1.72,2.71.08,3.39-1.41.6-3.2-.83-1.8-2.79.55-.83-.78-2-1.48-1.28-1.87.9-3.2.83-3.67-1,.55-1.66,1.87-2,4.3-.38.86-.08,1.25-1.13.62-1.51-2.19-1.28-1.41-3.39.08-3.39,1.8-.07,3.51,1.43,1.48,3.32-.55.75-.31,1.66.55,1.51,9.76-.83,5.86-6.93-2.81-9-15.47-3.84-10.23-17-2.42-18.31C348.36-9.31,360.23,3,360.78,16.61a7.47,7.47,0,0,1,1.33-.07C361.25,6,358.59-1.85,354.53-7.65c-5.47-.68-6.41-1.36-7-2l6.09.45a37.09,37.09,0,0,0-4.53-4.52c-7.26.15-10-.15-9.53-.68l7.58-.83a77,77,0,0,0-9.37-8.29c-1.8.68-2.27,2.34-2.81,4.07-1.48-2.64-1.09-4.67,1.8-6-5.31.23-5.23-1.73-3.83-4.14,3.75-1.58,4.61.53,5,3.17,3.91-2.86,5-.6,5.78.68-2.11-1.2-3.67-.07-4.06,1.36l9.37,8-.47-7.16.55-.3c.7,3.24,1.25,6.25,1.72,9.19l3.91,4.14c-.7-5,0-4.9.47-4.82a25.67,25.67,0,0,1,.86,6.78,55.69,55.69,0,0,1,7.19,25.09,2.26,2.26,0,0,1,.7.07c.16-2.33.39-5,.31-7.31a52.26,52.26,0,0,0-.94-9.87c-2.11-9-9.76-18.31-9.69-25.85.08-5.5,6.48-8.36,12.34-12.36,5.86,4,12.11,6.86,12.19,12.36.08,7.53-7.66,16.88-9.69,25.85a46.43,46.43,0,0,0-.94,9.87c-.08,2.34.16,4.9.31,7.23h.7a55.71,55.71,0,0,1,7.19-25.09,22.82,22.82,0,0,1,.86-6.78c.47-.07,1.17-.22.47,4.82l3.83-4.14c.47-2.94,1-6,1.72-9.19l.62.3-.47,7.16,9.37-8c-.39-1.43-2-2.56-4.06-1.36.78-1.28,1.8-3.54,5.78-.68.39-2.64,1.17-4.75,4.92-3.17,1.48,2.41,1.56,4.37-3.75,4.14,2.89,1.28,3.2,3.32,1.8,6-.55-1.73-1.09-3.39-2.89-4.07a76.55,76.55,0,0,0-9.29,8.29l7.58.83c.47.53-2.26.83-9.61.68a37,37,0,0,0-4.45,4.52l6-.45c-.47.68-1.48,1.36-6.87,2-4.14,5.8-6.8,13.64-7.58,24.19.47,0,.86.07,1.33.07C371.56,3.12,383.51-9.31,394-7.58c7.73,1.36,13,14.47-2.42,18.31-8.67,2.11-12.58,8.22-2.89,9,.94.15,1.09-.75.55-1.51-2-1.88-.23-3.39,1.56-3.32,1.41,0,2.27,2.11.08,3.39-.63.38-.31,1.43.62,1.51,2.34-1.66,3.67-1.28,4.3.38-.47,1.81-1.8,1.88-3.67,1-.7-.75-2.11.45-1.56,1.28,1.41,2-.31,3.39-1.72,2.79-1.72-.68-1.48-3.09,0-3.39.7-.45.47-.75-.16-1-6-.07-7.81-2.19-7.34-6,.62-4.6,10-6.86,6.17-12.28-3.44-4.82-14.22.45-14.92,14.32,5.54,1.51,5.23,6.48-3.83,7.38-1.09,8.29,16.72.83,19.14,8.06a6.46,6.46,0,0,1-3.12-.83c-1.33,1.36-3.75.45-6.33-1.66-1.64-.68-1.49.53.94,2.86-1.56-.08-3.12-.75-4.84-2.79-2.19.3-4.45-.6-7-3.24-.94,2.94.47,5.5,6.87,7.31,4.14,1.06,6.72,3,6.64,6.71A7.82,7.82,0,0,1,374.92,36l-1.56,2.86c.08-2.64-3.83-1.13-4.14-5l-2.11-1c-1.72,4.6,5.55,7.76,3.12,12.21-1.64,0-1.48-2.94-3.67-4.07,1.09,4.07,1,7.23-.78,8.82Z" style="fill:#493a2f;fill-rule:evenodd"/><path d="M182.75,48.86l-.23-.07c-1.49-1.28-1.88-3.47-1.56-6.25l.39-2L181,41c-.94,1.28-1.72,3.17-3,3-2-3.84,3.12-7.08,3.36-10.7l-.16-1.21-1.64.75-.23,1.2c-1,2.64-4,1.43-3.83,3.62l.08,1.2-2-3.47-1.17,1.73a8,8,0,0,1-4.84,2.71l-.39.07v-.38c-.08-3.84,2.65-6,6.79-7,4.76-1.28,6.64-3,7-4.9l-.16-1.51-1.48,1.36A7.92,7.92,0,0,1,175.64,29h-1.56l-1.25,1.2a6,6,0,0,1-3.75,1.58l-.78.08.55-.53c.78-.83,1.25-1.43,1.56-1.81l.39-.75-.7.08-1.8,1.36a5.59,5.59,0,0,1-3.51,1l-1.09-.6-1.72.6a10.62,10.62,0,0,1-1.41.23l-.47.08.16-.45c2.42-7.16,18-.68,19.06-6.63V23.32l-2.73-.53c-5.31-1.43-6.17-4.9-2.5-6.71l1.87-.68-.62-4.52c-2.65-10.17-11-13-13.67-9.34-4,5.5,5.47,6.7,6.17,12.06.39,3.54-1,5.73-5.54,6.25l-2,.15-.39.22.31.3.94.6a2.06,2.06,0,0,1-.94,3.16c-1.72.75-3.67-1-2.11-3.16.47-.75-.78-1.21-1.09-.91-2,1-3.67,1-4.14-1.28a2.05,2.05,0,0,1,3-1.43l1.56.83.55-.45-.16-.53c-2.26-1.28-1.64-3.84.23-3.92,1.48,0,3,.91,2.73,2.34l-.94,1.51c-.55.75-.16,1.06.23,1.06,8.75-.75,5.86-6.41-2.89-8.52-15.78-4-10.39-17.56-2.35-18.84,9.37-1.58,19.68,7.84,22.5,19.37l.7,4.75.7-.08-.86-7.08A47,47,0,0,0,174.08-4l-2.73-4.67-3.12-.45c-2.66-.53-3.36-1-3.83-1.58l-.39-.53,5.94.45-1.8-2L166-14.66l-4.06.08c-3.91-.08-6.33-.3-5.55-1.28l7.11-.75-4.22-4.15-4.45-3.69-.94.6a6.8,6.8,0,0,0-1.64,3.24l-.16.68-.39-.6c-1.09-2-1.17-3.84.16-5.12l1-.68H152c-3.67-.3-3.59-2.34-2.11-4.67,3-1.28,4.38-.23,4.92,1.51l.39,1.43,1-.68c3.12-1.51,4.14.53,4.84,1.66l.55,1-1-.6a2.34,2.34,0,0,0-3.12.38l-.39.68,8.67,7.39L165.25-25l1.17-.45.08.38,1.72,9,3.2,3.47-.08-.75c-.39-3.32.16-3.62,1.17-3.39a25.91,25.91,0,0,1,.7,3.54l.16,3.32,2.81,5.5a52.7,52.7,0,0,1,3.59,12.58l.86,6.86.39-7a50.88,50.88,0,0,0-.94-9.8c-2-8.67-9.76-18.39-9.69-25.92.08-5.65,6.72-8.67,12.58-12.66l.23.08c5.78,3.92,12.18,6.93,12.26,12.58.16,7.54-7.66,17.26-9.69,25.92a50.83,50.83,0,0,0-.94,9.8l.47,6.93.78-6.78A52.72,52.72,0,0,1,189.7-4.33l2.81-5.5.16-3.32a15.12,15.12,0,0,1,.86-3.62c.86-.15,1.41.15,1,3.47l-.08.75,3.2-3.47,1.72-9,.08-.38,1.17.45-.47,6.71,8.67-7.39-.39-.75a2.43,2.43,0,0,0-3.12-.3l-1,.6.62-1c.62-1.13,1.64-3.17,4.76-1.66l1,.68L211-29.5c.62-1.73,2-2.79,5.08-1.43,1.41,2.26,1.48,4.3-2.19,4.6H213l1,.68c1.33,1.28,1.25,3.09.16,5.12l-.39.6-.16-.68A6.79,6.79,0,0,0,212-23.85l-.94-.6-4.45,3.69-4.22,4.15,7.19.83c.7.9-1.49,1.13-5.39,1.2l-4.3-.08-2.11,1.88-1.88,2,6-.45-.39.53c-.47.6-1.17,1.05-3.83,1.58l-3.12.45L191.81-4A46.94,46.94,0,0,0,188,7.95l-.86,7.16h.7l.7-4.67C191.26-1.09,201.65-10.59,211-9c8,1.28,13.44,14.84-2.42,18.84-9,2.19-11.87,7.69-2.89,8.52.47,0,.86-.38.31-1.06l-.94-1.51c-.31-1.43,1.25-2.34,2.65-2.34,2,.08,2.58,2.64.31,3.92l-.16.53.55.45,1.56-.83q2.23-.9,3,1.58c-.47,2.11-2.19,2.11-4.14,1.13-.31-.3-1.64.15-1.09.91,1.56,2.18-.39,3.92-2.11,3.16a2.06,2.06,0,0,1-.94-3.16l.94-.6.31-.3-.39-.22-2-.15c-4.53-.53-6-2.71-5.55-6.25.7-5.35,10.15-6.56,6.17-12.06-2.66-3.69-11.09-.83-13.67,9.34l-.7,4.67,1.8.68c3.36,1.88,2.34,5.2-2.89,6.63l-2.66.45v1.13c1,5.73,16.56-.68,19.06,6.63l.16.38h-.47a13.15,13.15,0,0,1-1.41-.23l-1.64-.6-1.17.6a5.58,5.58,0,0,1-3.51-1l-1.8-1.36-.62-.08.31.75a18.88,18.88,0,0,0,1.64,1.81l.55.53-.78-.08a6.18,6.18,0,0,1-3.83-1.58L191.42,29h-1.56a8.16,8.16,0,0,1-3.67-1.58l-1.41-1.36-.16,1.51c.23,1.88,2.11,3.62,6.87,4.9,4.14,1.05,6.87,3.16,6.79,7v.38l-.39-.07a8,8,0,0,1-4.84-2.71L192,35.38l-2,3.47v-1.2c.16-2.34-2.81-1.21-3.83-3.69l-.23-1.13-1.64-.75-.16,1.13c.31,3.54,5.47,6.86,3.2,10.93-1.17,0-2-1.88-2.89-3.17l-.39-.38.39,2c.31,2.71-.08,4.9-1.72,6.25Zm-.08-1.13h0l.62-.83c.7-1.58.63-4-.15-7.08l-.31-1.06,1,.53c1.88,1,2,2.79,2.66,3.62l.47.23.31-1.06c.08-3.47-5.47-5.8-3.67-10.62l.23-.53,2.81,1.36.08.23c.23,2.49,2.5,2.49,3.59,3.54l.08.38L192,33.72l.39.91a8.08,8.08,0,0,0,2.73,3.24l2.27.91-.23-1.51c-.78-2-2.81-3.24-5.86-4-6.48-1.81-8.28-4.52-7.26-7.84l.31-.83.55.6c2.5,2.56,4.69,3.39,6.56,3.09l.31-.07.16.23a9,9,0,0,0,2.34,2l.62.15-.62-.83c-.47-.83-.39-1.36-.08-1.58l.62-.15-2.11-.15c-4.3-.23-8-.83-7.34-4.9v-.38l.39-.07c8.44-.83,8.59-5,3.67-6.33l-.39-.15.08-.38c.7-13.49,11.72-20.42,15.85-14.62s-5.62,8.82-6.09,12.58c-.39,3.47,1,5.43,6.87,5.58.94.23,1.72,1.06.39,1.88a1.32,1.32,0,0,0-.08,2.49c.94.38,2.26-.45,1.09-2a1.92,1.92,0,0,1,1.25-2.41l.94.38c1.41.68,2.19.75,2.65.15l.23-.68-.31-.6c-.55-.6-1.41-.6-3.12.6l-.23.08c-1.17-.08-2.19-1.66-.94-2.41,2-1.05.86-2.41.16-2.49-1.64,0-2.58,1.13-1.09,2.56.55.83.7,2.56-1,2.34-10.39-.9-6.17-7.84,2.81-10C223.21,5.39,218.29-7,210.86-8.25c-10-1.73-21.71,10.33-22.26,23.74V16l-.55-.07c-.47-.08-.86-.08-1.33-.15h-.55l.08-.53c.86-10.55,3.51-18.54,7.65-24.41l.23-.15c1.48-.23,2.58-.38,3.44-.53l1.48-.38-5,.38.7-.91a37.09,37.09,0,0,1,4.61-4.52l.23-.15h6.56l-5.55-.68.7-.68a67.25,67.25,0,0,1,9.37-8.36l.23-.23.23.15a3.83,3.83,0,0,1,2.19,1.88l.55,1.28.16-.53c.39-1.58-.31-2.71-2.19-3.62l-1.17-1c-1.88-1.36-3-1.51-3.67-1.21l-.55.53a2.9,2.9,0,0,1,3.2,2.11l.08.3-10.55,9,.31-5.12-1.09,5.88-5.08,5.58.23-1.58c.08-.91.16-1.58.23-2.11l.08-1.28-.47,2c-.08,1.13-.16,2.26-.16,3.39a55.25,55.25,0,0,0-7.19,25v.45l-1.72.07v-.45c-.15-2.34-.39-4.9-.31-7.31A53,53,0,0,1,185-1.85c2.19-9.42,9.76-18.16,9.69-25.77-.08-3.84-3.36-6.33-7.58-9l-4.06-2.71-4.22,2.71c-4.22,2.71-7.58,5.2-7.66,9-.08,7.61,7.5,16.28,9.69,25.77a47.14,47.14,0,0,1,.94,9.95c.08,2.41-.16,5-.31,7.31v.53l-1.72-.15v-.45a55,55,0,0,0-7.11-24.87c-.08-1.28-.16-2.41-.23-3.54l-.47-2,.08,1.28c.08.53.16,1.2.23,2.11l.23,1.58-5.08-5.58-1.09-5.88.31,5.12-10.54-9,.08-.3a3,3,0,0,1,3.2-2.18l-.55-.45c-.7-.3-1.8-.15-3.59,1.21l-1.17,1c-2,.91-2.65,2-2.34,3.62L152-22l.55-1.28a3.83,3.83,0,0,1,2.19-1.88l.23-.15.23.23a67.09,67.09,0,0,1,9.37,8.36l.7.68-5.55.68h6.48l.23.07a38.22,38.22,0,0,1,4.69,4.6l.7.91-5-.38,1.48.38c.86.15,2,.3,3.28.53l.31.07c4.22,6,6.87,13.94,7.73,24.49l.08.53h-.55c-.47,0-.94.07-1.33.07l-.55.08v-.53C176.73,2.07,165-10,154.94-8.25,147.6-7,142.68,5.39,157.44,9.08c9.22,2.26,13.36,9.12,2.81,10-1.8.23-1.56-1.58-1-2.26,1.48-1.51.55-2.64-1.09-2.64-.7.08-1.8,1.36.16,2.49,1.25.75.23,2.34-.86,2.41h-.23c-1.8-1.28-2.73-1.28-3.2-.68l-.39.6.31.68c.47.6,1.25.53,2.66-.15l.94-.38a2,2,0,0,1,1.25,2.41c-1.17,1.58.16,2.41,1.09,2a1.28,1.28,0,0,0,0-2.41c-1.33-.9-.7-1.66.16-2,6-.15,7.42-2.11,7-5.58C166.5,9.6,156.82,6.89,161,1.09s15.15,1.06,15.86,14.54V16l-.39.08c-5.15,1.13-5.47,5.65,3.28,6.48l.39.07.08.38c.55,4.44-3.67,4.9-8.28,5l-.94.08.55.38a1.61,1.61,0,0,1-.31,1.2l-.62.91.62-.15a9,9,0,0,0,2.34-2l.16-.23.31.07c1.88.3,4.06-.53,6.56-3.09l.62-.6.23.83c1,3.32-.78,6-7.26,7.84-3,.75-5.08,2-5.86,4l-.23,1.51,2.26-.91a7.51,7.51,0,0,0,2.73-3.24l.39-.91L175,36.51l.16-.3c1-1,3.36-1.06,3.59-3.69v-.23l2.89-1.36.16.53c1.72,4.52-3.75,7.23-3.59,10.62l.23,1.06.39-.23c.47-.75.62-2.49,2.73-3.62l1-.53-.23,1.06c-.78,3.09-.94,5.5-.23,7.08l.55.83ZM161.42,30.55h0l.39-.08a4.15,4.15,0,0,0,1.56-.6l.39-.15L164,30c.94,1.06,3,.53,5.7-1.66l.55-.15-1.88.08c-2.89.15-5.47.53-6.79,2l-.16.3Zm42.57,0h0l-.16-.3c-1-1.2-2.65-1.73-4.68-2l-4.37-.23.86.15c2.73,2.26,4.84,2.71,5.78,1.81l.23-.3.39.15a4.68,4.68,0,0,0,1.56.6l.39.08ZM153.85-27.09h.62v-.45c-.31-2-.7-3.31-2.27-3.24l-1.8.45-.62,1.28c-.39,1.28.31,2.11,4.06,2Zm62.25-2h0l-.62-1.28-1.8-.45c-1.56-.08-2,1.28-2.26,3.24v.45h.7c3.67.15,4.37-.68,4-2Z" style="fill:#493a2f;fill-rule:evenodd"/><path d="M182.32,185.77c-1.87-1.58-1.87-4.75-.86-8.82-2.11,1.13-2,4.07-3.67,4.07-2.34-4.45,4.92-7.61,3.12-12.21l-2,1c-.39,3.92-4.3,2.41-4.14,5L173.1,172a7.73,7.73,0,0,1-6,4.75c-.16-3.69,2.42-5.65,6.56-6.71,6.4-1.81,7.81-4.37,6.87-7.31-2.5,2.71-4.84,3.54-7,3.24a6.73,6.73,0,0,1-4.92,2.79c2.42-2.34,2.65-3.54.94-2.86-2.5,2.11-5,3-6.33,1.66a6.46,6.46,0,0,1-3.13.83c2.5-7.23,20.23.23,19.14-8.06-9.21-1-9.37-6.1-3.36-7.46-.78-13.79-11.48-19.06-14.92-14.24-3.83,5.43,5.55,7.69,6.17,12.28.47,3.84-1.33,6-7.34,6-.7.23-.94.53-.23,1,1.56.3,1.72,2.71.08,3.39-1.41.6-3.12-.83-1.72-2.79.55-.83-.86-2-1.56-1.28-1.88.9-3.2.83-3.67-1,.62-1.66,1.88-2,4.3-.38.94-.08,1.25-1.13.63-1.51-2.19-1.28-1.33-3.39.08-3.39,1.8-.07,3.51,1.43,1.56,3.32-.55.75-.39,1.66.55,1.51,9.69-.83,5.78-6.93-2.89-9-15.46-3.84-10.23-17-2.42-18.31C165,126.69,176.85,139,177.4,152.61a7.93,7.93,0,0,1,1.33-.07c-.78-10.55-3.44-18.39-7.58-24.19-5.39-.68-6.4-1.36-6.87-2l6,.45a37.28,37.28,0,0,0-4.45-4.52c-7.34.15-10.08-.15-9.61-.68l7.57-.83a76.5,76.5,0,0,0-9.29-8.29c-1.8.68-2.34,2.34-2.89,4.07-1.41-2.64-1-4.67,1.8-6-5.31.23-5.23-1.73-3.75-4.14,3.75-1.58,4.53.53,4.92,3.17,4-2.86,5-.6,5.78.68-2.11-1.2-3.67-.07-4.06,1.36l9.45,8-.55-7.16.63-.3c.7,3.24,1.25,6.25,1.72,9.19l3.91,4.14c-.78-5-.08-4.9.39-4.82a22.74,22.74,0,0,1,.86,6.78,54.74,54.74,0,0,1,7.19,25.09,2.25,2.25,0,0,1,.7.07c.16-2.33.39-5,.31-7.31a46.39,46.39,0,0,0-.94-9.87c-2-9-9.76-18.31-9.68-25.85.08-5.5,6.48-8.36,12.34-12.36,5.94,4,12.11,6.86,12.19,12.36.08,7.53-7.58,16.88-9.69,25.85a52.22,52.22,0,0,0-.94,9.87c-.08,2.34.16,4.9.31,7.23h.7a55.71,55.71,0,0,1,7.18-25.09,25.64,25.64,0,0,1,.86-6.78c.47-.07,1.17-.22.47,4.82l3.91-4.14c.47-2.94,1-6,1.72-9.19l.55.3-.47,7.16,9.37-8c-.39-1.43-2-2.56-4.06-1.36.78-1.28,1.87-3.54,5.86-.68.31-2.64,1.17-4.75,4.92-3.17,1.41,2.41,1.49,4.37-3.83,4.14,2.89,1.28,3.28,3.32,1.8,6-.47-1.73-1-3.39-2.81-4.07a76.93,76.93,0,0,0-9.37,8.29l7.65.83c.39.53-2.34.83-9.61.68a37,37,0,0,0-4.53,4.52l6.09-.45c-.55.68-1.48,1.36-6.95,2-4.06,5.8-6.72,13.64-7.58,24.19.47,0,.94.07,1.33.07.55-13.49,12.42-25.92,22.89-24.19,7.81,1.36,13,14.47-2.42,18.31-8.67,2.11-12.57,8.22-2.81,9,.86.15,1.09-.75.55-1.51-2-1.88-.31-3.39,1.48-3.32,1.49,0,2.27,2.11.08,3.39-.62.38-.23,1.43.62,1.51,2.42-1.66,3.67-1.28,4.3.38-.47,1.81-1.8,1.88-3.67,1-.7-.75-2.11.45-1.56,1.28,1.48,2-.31,3.39-1.72,2.79-1.64-.68-1.49-3.09.08-3.39.7-.45.47-.75-.23-1-6-.07-7.81-2.19-7.26-6,.55-4.6,10-6.86,6.09-12.28-3.44-4.82-14.22.45-14.92,14.32,5.54,1.51,5.23,6.48-3.75,7.38-1.17,8.29,16.64.83,19.06,8.06a6.67,6.67,0,0,1-3.12-.83c-1.25,1.36-3.75.45-6.33-1.66-1.64-.68-1.49.53,1,2.86a6.73,6.73,0,0,1-4.92-2.79c-2.11.3-4.45-.6-7-3.24-.94,2.94.47,5.5,6.95,7.31,4.06,1.06,6.64,3,6.56,6.71a7.82,7.82,0,0,1-6.09-4.75L190,174.84c.16-2.64-3.83-1.13-4.14-5l-2.11-1c-1.72,4.6,5.55,7.76,3.2,12.21-1.64,0-1.56-2.94-3.67-4.07,1,4.07.94,7.24-.86,8.82Z" style="fill:#493a2f;fill-rule:evenodd"/><path d="M-.55,184.86l-.31-.07c-1.49-1.28-1.88-3.47-1.49-6.25l.39-2-.39.38c-.94,1.28-1.8,3.17-3,3-2.11-3.84,3-7.08,3.28-10.7l-.16-1.21-1.56.75-.31,1.2c-1,2.64-3.91,1.43-3.83,3.62l.08,1.2-2-3.47L-11,173.11a8,8,0,0,1-4.84,2.71l-.31.07-.08-.38c-.08-3.84,2.65-6,6.87-7,4.76-1.28,6.56-3,6.87-4.9l-.16-1.51-1.48,1.36A7.91,7.91,0,0,1-7.74,165H-9.3l-1.25,1.2a5.82,5.82,0,0,1-3.75,1.58l-.78.08.55-.53c.78-.83,1.25-1.43,1.56-1.81l.39-.75-.7.08-1.8,1.36a5.59,5.59,0,0,1-3.51,1l-1.09-.6-1.72.6a9,9,0,0,1-1.41.23l-.47.08.16-.45c2.42-7.16,18-.68,19.14-6.63v-1.13l-2.81-.53c-5.31-1.43-6.09-4.9-2.5-6.71l1.87-.68-.62-4.52c-2.58-10.17-11-13-13.67-9.34-4,5.5,5.47,6.7,6.17,12.06.47,3.54-1,5.73-5.54,6.25l-2,.15-.39.22.31.3.94.6a2.06,2.06,0,0,1-.94,3.16c-1.72.75-3.67-1-2.11-3.16.55-.75-.78-1.21-1.09-.91-2,1-3.59,1-4.14-1.28.55-1.51,1.56-2,3-1.43l1.56.83.55-.45-.08-.53c-2.34-1.28-1.72-3.84.23-3.92,1.41,0,3,.91,2.65,2.34l-.94,1.51c-.55.75-.16,1.06.31,1.06,8.67-.75,5.78-6.41-2.89-8.52-15.85-4-10.47-17.56-2.42-18.84,9.37-1.58,19.68,7.84,22.49,19.37l.7,4.75.78-.08-.94-7.08A47,47,0,0,0-9.3,132L-12,127.37l-3.12-.45c-2.66-.53-3.36-1-3.83-1.58l-.39-.53,6,.45-1.87-2-2-1.88-4.14.08c-3.91-.08-6.33-.3-5.55-1.28l7.11-.75-4.22-4.15-4.45-3.69-.94.6a6.81,6.81,0,0,0-1.64,3.24l-.16.68-.39-.6c-1.09-2-1.17-3.84.16-5.12l1-.68h-.86c-3.75-.3-3.67-2.34-2.19-4.67,3.13-1.28,4.38-.23,5,1.51l.31,1.43,1-.68c3.12-1.51,4.14.53,4.84,1.66l.55,1-.94-.6c-1.48-.75-2.58-.38-3.2.38l-.39.68,8.75,7.39-.55-6.71,1.17-.45.08.38,1.72,9,3.2,3.47-.08-.75c-.39-3.32.16-3.62,1.17-3.39a18,18,0,0,1,.7,3.54l.16,3.32,2.81,5.5a56.63,56.63,0,0,1,3.67,12.58l.86,6.86.31-7a50.7,50.7,0,0,0-.94-9.8c-2-8.67-9.76-18.39-9.68-25.92.08-5.65,6.72-8.67,12.57-12.66l.23.08c5.78,3.92,12.26,6.93,12.26,12.58.16,7.54-7.65,17.26-9.61,25.92a45.29,45.29,0,0,0-1,9.8L1.95,151l.78-6.78A52.78,52.78,0,0,1,6.4,131.66l2.73-5.5.16-3.32a12.35,12.35,0,0,1,.94-3.62c.78-.15,1.33.15,1,3.47l-.16.75L14.36,120l1.72-9,.08-.38,1.09.45-.47,6.71,8.67-7.39-.31-.75a2.54,2.54,0,0,0-3.2-.3l-1,.6.62-1c.7-1.13,1.72-3.17,4.76-1.66l1,.68.39-1.43c.55-1.73,1.88-2.79,5-1.43,1.41,2.26,1.56,4.3-2.19,4.6h-.94l1,.68c1.33,1.28,1.33,3.09.16,5.12l-.31.6-.23-.68a6.8,6.8,0,0,0-1.64-3.24l-.94-.6-4.45,3.69L19,119.38l7.19.83c.78.9-1.49,1.13-5.39,1.2l-4.3-.08-2.11,1.88-1.8,2,5.94-.45-.39.53c-.47.6-1.17,1.05-3.83,1.58l-3.12.45L8.43,132a47,47,0,0,0-3.75,11.91l-.94,7.16h.7l.7-4.67C8,134.9,18.27,125.41,27.64,127c8,1.28,13.43,14.84-2.34,18.84-9,2.19-12,7.69-3,8.52.47,0,.86-.38.31-1.06l-.94-1.51c-.31-1.43,1.33-2.34,2.73-2.34,1.87.08,2.5,2.64.23,3.92l-.15.53.55.45,1.56-.83c1.49-.6,2.58-.07,3,1.58-.47,2.11-2.19,2.11-4.14,1.13-.31-.3-1.56.15-1.09.91,1.56,2.18-.39,3.92-2.11,3.16a2.06,2.06,0,0,1-.94-3.16l.94-.6.31-.3-.39-.22-2-.15c-4.53-.53-5.94-2.71-5.55-6.25.7-5.35,10.15-6.56,6.17-12.06-2.66-3.69-11.09-.83-13.67,9.34l-.7,4.67,1.8.68c3.36,1.88,2.34,5.2-2.89,6.63l-2.66.45v1.13c1,5.73,16.56-.68,19.06,6.63l.16.38h-.47a13.19,13.19,0,0,1-1.41-.23l-1.64-.6-1.17.6a5.71,5.71,0,0,1-3.51-1l-1.8-1.36-.62-.08.31.75q.47.56,1.64,1.81l.55.53-.78-.08a6.18,6.18,0,0,1-3.83-1.58L8,165H6.48a8.16,8.16,0,0,1-3.67-1.58L1.4,162.11l-.16,1.51c.23,1.88,2.11,3.62,6.87,4.9,4.14,1.06,6.95,3.16,6.79,7v.38l-.31-.07a8.14,8.14,0,0,1-4.92-2.71l-1.09-1.73-2,3.47.08-1.2c.08-2.34-2.89-1.21-3.91-3.69l-.23-1.13L1,168.06l-.16,1.13C1.09,172.73,6.24,176,4,180.12c-1.17,0-2-1.88-2.89-3.17l-.39-.38.39,2c.31,2.71,0,4.9-1.64,6.25Zm-.16-1.13h0l.62-.83c.7-1.58.63-4-.16-7.08l-.31-1.06,1,.53c1.87,1,2,2.79,2.66,3.62l.47.23.31-1.06c.08-3.47-5.47-5.8-3.59-10.62l.16-.53,2.89,1.36v.23c.23,2.49,2.5,2.49,3.59,3.54l.08.38,1.56-2.71.47.91a7.44,7.44,0,0,0,2.65,3.24l2.26.91-.23-1.51c-.78-2-2.81-3.24-5.86-4C1.4,167.46-.4,164.74.69,161.43l.23-.83.62.6C4,163.76,6.16,164.59,8,164.29l.31-.07.23.23a7.08,7.08,0,0,0,2.35,2l.62.15-.62-.83c-.55-.83-.47-1.36-.16-1.58l.62-.15-2-.15c-4.3-.23-8-.83-7.42-4.9l.08-.38.39-.07c8.36-.83,8.52-5,3.67-6.33l-.39-.15v-.38c.7-13.49,11.72-20.42,15.85-14.62s-5.54,8.82-6,12.58c-.47,3.47.94,5.43,6.8,5.58.94.23,1.72,1.06.47,1.88a1.31,1.31,0,0,0-.16,2.49c.94.38,2.26-.45,1.17-2A1.88,1.88,0,0,1,25,155.17l.94.38c1.41.68,2.19.75,2.65.15l.31-.68-.39-.6c-.47-.6-1.41-.6-3.12.6l-.23.08c-1.17-.08-2.19-1.66-.94-2.41,2-1.05.86-2.41.16-2.49-1.64,0-2.58,1.13-1.09,2.56.55.83.7,2.56-1,2.34-10.39-.9-6.17-7.84,2.81-10,14.76-3.69,9.84-16.12,2.5-17.33C17.49,126,5.77,138.07,5.22,151.48V152l-.55-.07c-.39-.08-.86-.08-1.33-.15H2.88v-.53c.86-10.55,3.51-18.54,7.65-24.41l.23-.15c1.48-.23,2.58-.38,3.44-.53l1.49-.38-5,.38.78-.91A32.29,32.29,0,0,1,16,120.74l.23-.15h6.64l-5.55-.68.63-.68a77.37,77.37,0,0,1,9.37-8.36l.23-.23.31.15A3.92,3.92,0,0,1,30,112.67l.55,1.28.23-.53c.31-1.58-.39-2.71-2.26-3.62l-1.17-1c-1.88-1.36-2.89-1.51-3.67-1.21l-.55.53a2.85,2.85,0,0,1,3.2,2.11l.08.3-10.55,9,.39-5.12-1.17,5.88L10,125.86l.23-1.58c.08-.91.16-1.58.23-2.11l.08-1.28-.47,2c-.08,1.13-.16,2.26-.16,3.39a55.25,55.25,0,0,0-7.19,25v.45l-1.64.07L1,151.41c-.16-2.34-.39-4.9-.31-7.31a53.08,53.08,0,0,1,.94-9.95c2.19-9.42,9.84-18.16,9.69-25.77,0-3.84-3.36-6.33-7.5-9L-.32,96.62l-4.14,2.71c-4.3,2.71-7.65,5.2-7.73,9-.08,7.61,7.5,16.28,9.69,25.77a47.14,47.14,0,0,1,.94,9.95c.08,2.41-.16,5-.31,7.31v.53l-1.64-.15-.08-.45a55,55,0,0,0-7.11-24.87c-.08-1.28-.08-2.41-.23-3.54l-.39-2v1.28c.08.53.16,1.2.31,2.11l.16,1.58-5.08-5.58L-17,114.41l.39,5.12-10.62-9,.08-.3a3.08,3.08,0,0,1,3.2-2.18l-.55-.45c-.7-.3-1.8-.15-3.59,1.21l-1.17,1c-2,.91-2.66,2-2.27,3.62l.23.53.47-1.28a4.09,4.09,0,0,1,2.19-1.88l.23-.15.23.23a72.28,72.28,0,0,1,9.45,8.36l.62.68-5.54.68h6.48l.31.07a33.49,33.49,0,0,1,4.61,4.6l.7.91-5-.38,1.56.38c.78.15,1.88.3,3.28.53l.23.07c4.22,6,7,13.94,7.73,24.49l.08.53h-.55c-.47,0-.86.07-1.33.07l-.55.08v-.53c-.55-13.34-12.26-25.4-22.26-23.66-7.42,1.21-12.34,13.64,2.42,17.33,9.3,2.26,13.36,9.12,2.81,10-1.72.23-1.56-1.58-1-2.26,1.48-1.51.55-2.64-1.09-2.64-.7.08-1.8,1.36.16,2.49,1.25.75.31,2.34-.86,2.41h-.23c-1.8-1.28-2.66-1.28-3.2-.68l-.31.6.23.68c.47.6,1.25.53,2.65-.15l.94-.38a1.92,1.92,0,0,1,1.25,2.41c-1.17,1.58.16,2.41,1.09,2a1.28,1.28,0,0,0,0-2.41c-1.33-.9-.62-1.66.23-2,5.94-.15,7.34-2.11,7-5.58-.55-4.07-10.23-6.78-6.09-12.58s15.15,1.06,15.85,14.54V152l-.39.08c-5.15,1.13-5.47,5.65,3.28,6.48l.39.07.08.38c.63,4.44-3.67,4.9-8.28,5l-.94.08.62.38a1.43,1.43,0,0,1-.39,1.2l-.62.91.62-.15a7.08,7.08,0,0,0,2.34-2l.16-.23.31.07c2,.3,4.06-.53,6.56-3.09l.62-.6.23.83c1.09,3.32-.7,6-7.26,7.84-3,.75-5,2-5.86,4l-.23,1.51,2.27-.91a7,7,0,0,0,2.73-3.24l.47-.91,1.48,2.79.16-.3c1-1,3.36-1.06,3.59-3.69v-.23l2.89-1.36.16.53c1.72,4.52-3.75,7.24-3.59,10.62l.31,1.06.31-.23c.47-.75.62-2.49,2.73-3.62l1-.53L-1,175.82c-.78,3.09-.94,5.5-.23,7.08l.55.83ZM-22,166.55h0l.39-.08a5,5,0,0,0,1.64-.6l.31-.15.31.23c.94,1.06,3,.53,5.62-1.66l.55-.15-1.88.08c-2.89.15-5.47.53-6.72,2l-.23.3Zm42.57,0h0l-.16-.3c-.94-1.2-2.65-1.73-4.68-2l-4.38-.23.86.15c2.81,2.26,4.84,2.71,5.78,1.81l.31-.3.31.15a4.43,4.43,0,0,0,1.64.6l.31.08Zm-50.14-57.65h.7l-.08-.45c-.31-2-.7-3.32-2.26-3.24l-1.8.45-.62,1.28c-.39,1.28.39,2.11,4.06,2Zm62.25-2h0l-.55-1.28-1.88-.45c-1.56-.08-2,1.28-2.19,3.24l-.08.45h.7c3.67.15,4.37-.68,4-2Z" style="fill:#493a2f;fill-rule:evenodd"/><path d="M365.35,184.86l-.23-.07c-1.49-1.28-1.88-3.47-1.56-6.25l.39-2-.39.38c-.94,1.28-1.72,3.17-3,3-2-3.84,3.12-7.08,3.36-10.7l-.16-1.21-1.64.75-.23,1.2c-1,2.64-4,1.43-3.83,3.62l.08,1.2-2-3.47L355,173.11a8,8,0,0,1-4.84,2.71l-.39.07v-.38c-.08-3.84,2.65-6,6.79-7,4.76-1.28,6.64-3,7-4.9l-.16-1.51-1.48,1.36a7.92,7.92,0,0,1-3.59,1.58h-1.56l-1.25,1.2a6,6,0,0,1-3.75,1.58l-.78.08.55-.53c.78-.83,1.25-1.43,1.56-1.81l.39-.75-.7.08-1.8,1.36a5.59,5.59,0,0,1-3.51,1l-1.09-.6-1.72.6a10.64,10.64,0,0,1-1.41.23l-.47.08.16-.45c2.42-7.16,18-.68,19.06-6.63v-1.13l-2.73-.53c-5.31-1.43-6.17-4.9-2.5-6.71l1.87-.68-.62-4.52c-2.65-10.17-11-13-13.67-9.34-4,5.5,5.47,6.7,6.17,12.06.39,3.54-1,5.73-5.54,6.25l-2,.15-.39.22.31.3.94.6a2.06,2.06,0,0,1-.94,3.16c-1.72.75-3.67-1-2.11-3.16.47-.75-.78-1.21-1.09-.91-2,1-3.67,1-4.14-1.28a2.05,2.05,0,0,1,3-1.43l1.56.83.55-.45-.15-.53c-2.26-1.28-1.64-3.84.23-3.92,1.48,0,3,.91,2.73,2.34l-.94,1.51c-.55.75-.16,1.06.23,1.06,8.75-.75,5.86-6.41-2.89-8.52-15.78-4-10.39-17.56-2.35-18.84,9.37-1.58,19.68,7.84,22.49,19.37l.7,4.75.7-.08-.86-7.08A47,47,0,0,0,356.68,132l-2.73-4.67-3.12-.45c-2.66-.53-3.36-1-3.83-1.58l-.39-.53,5.94.45-1.8-2-2.11-1.88-4.06.08c-3.91-.08-6.33-.3-5.55-1.28l7.11-.75-4.22-4.15-4.45-3.69-.94.6a6.8,6.8,0,0,0-1.64,3.24l-.15.68-.39-.6c-1.09-2-1.17-3.84.16-5.12l1-.68h-.94c-3.67-.3-3.59-2.34-2.11-4.67,3-1.28,4.38-.23,4.92,1.51l.39,1.43,1-.68c3.12-1.51,4.14.53,4.84,1.66l.55,1-1-.6a2.34,2.34,0,0,0-3.12.38l-.39.68,8.67,7.39-.47-6.71,1.17-.45.08.38,1.72,9,3.2,3.47-.08-.75c-.39-3.32.16-3.62,1.17-3.39a25.91,25.91,0,0,1,.7,3.54l.16,3.32,2.81,5.5a52.69,52.69,0,0,1,3.59,12.58l.86,6.86.39-7a50.89,50.89,0,0,0-.94-9.8c-2-8.67-9.76-18.39-9.69-25.92.08-5.65,6.72-8.67,12.58-12.66l.23.08c5.78,3.92,12.18,6.93,12.26,12.58.16,7.54-7.66,17.26-9.69,25.92a50.83,50.83,0,0,0-.94,9.8l.47,6.93.78-6.78a52.71,52.71,0,0,1,3.59-12.58l2.81-5.5.16-3.32a15.11,15.11,0,0,1,.86-3.62c.86-.15,1.41.15,1,3.47l-.08.75,3.2-3.47,1.72-9,.08-.38,1.17.45-.47,6.71,8.67-7.39-.39-.75a2.43,2.43,0,0,0-3.12-.3l-1,.6.62-1c.62-1.13,1.64-3.17,4.76-1.66l1,.68.31-1.43c.62-1.73,2-2.79,5.08-1.43,1.41,2.26,1.48,4.3-2.19,4.6h-.94l1,.68c1.33,1.28,1.25,3.09.16,5.12l-.39.6-.16-.68a6.79,6.79,0,0,0-1.64-3.24l-.94-.6-4.45,3.69L385,119.38l7.19.83c.7.9-1.49,1.13-5.39,1.2l-4.3-.08-2.11,1.88-1.88,2,6-.45-.39.53c-.47.6-1.17,1.05-3.83,1.58l-3.12.45L374.41,132a46.93,46.93,0,0,0-3.83,11.91l-.86,7.16h.7l.7-4.67c2.73-11.53,13.12-21,22.49-19.44,8,1.28,13.43,14.84-2.42,18.84-9,2.19-11.87,7.69-2.89,8.52.47,0,.86-.38.31-1.06l-.94-1.51c-.31-1.43,1.25-2.34,2.65-2.34,2,.08,2.58,2.64.31,3.92l-.15.53.55.45,1.56-.83q2.23-.9,3,1.58c-.47,2.11-2.19,2.11-4.14,1.13-.31-.3-1.64.15-1.09.91,1.56,2.18-.39,3.92-2.11,3.16a2.06,2.06,0,0,1-.94-3.16l.94-.6.31-.3-.39-.22-2-.15c-4.53-.53-6-2.71-5.55-6.25.7-5.35,10.15-6.56,6.17-12.06-2.66-3.69-11.09-.83-13.67,9.34l-.7,4.67,1.8.68c3.36,1.88,2.34,5.2-2.89,6.63l-2.66.45v1.13c1,5.73,16.56-.68,19.06,6.63l.16.38h-.47a13.18,13.18,0,0,1-1.41-.23l-1.64-.6-1.17.6a5.58,5.58,0,0,1-3.51-1l-1.8-1.36-.62-.08.31.75a18.9,18.9,0,0,0,1.64,1.81l.55.53-.78-.08a6.18,6.18,0,0,1-3.83-1.58L374,165h-1.56a8.16,8.16,0,0,1-3.67-1.58l-1.41-1.36-.16,1.51c.23,1.88,2.11,3.62,6.87,4.9,4.14,1.06,6.87,3.16,6.79,7v.38l-.39-.07a8,8,0,0,1-4.84-2.71l-1.09-1.73-2,3.47v-1.2c.16-2.34-2.81-1.21-3.83-3.69l-.23-1.13-1.64-.75-.16,1.13c.31,3.54,5.47,6.86,3.2,10.93-1.17,0-2-1.88-2.89-3.17l-.39-.38.39,2c.31,2.71-.08,4.9-1.72,6.25Zm-.08-1.13h0l.62-.83c.7-1.58.63-4-.16-7.08l-.31-1.06,1,.53c1.88,1,2,2.79,2.66,3.62l.47.23.31-1.06c.08-3.47-5.47-5.8-3.67-10.62l.23-.53,2.81,1.36.08.23c.23,2.49,2.5,2.49,3.59,3.54l.08.38,1.56-2.71.39.91a8.08,8.08,0,0,0,2.73,3.24l2.27.91-.23-1.51c-.78-2-2.81-3.24-5.86-4-6.48-1.81-8.28-4.52-7.26-7.84l.31-.83.55.6c2.5,2.56,4.69,3.39,6.56,3.09l.31-.07.16.23a9,9,0,0,0,2.34,2l.62.15-.62-.83c-.47-.83-.39-1.36-.08-1.58l.62-.15-2.11-.15c-4.3-.23-8-.83-7.34-4.9v-.38l.39-.07c8.44-.83,8.59-5,3.67-6.33l-.39-.15.08-.38c.7-13.49,11.72-20.42,15.85-14.62s-5.62,8.82-6.09,12.58c-.39,3.47,1,5.43,6.87,5.58.94.23,1.72,1.06.39,1.88a1.32,1.32,0,0,0-.08,2.49c.94.38,2.26-.45,1.09-2a1.92,1.92,0,0,1,1.25-2.41l.94.38c1.41.68,2.19.75,2.65.15l.23-.68-.31-.6c-.55-.6-1.41-.6-3.12.6l-.23.08c-1.17-.08-2.19-1.66-.94-2.41,2-1.05.86-2.41.16-2.49-1.64,0-2.58,1.13-1.09,2.56.55.83.7,2.56-1,2.34-10.39-.9-6.17-7.84,2.81-10,14.76-3.69,9.84-16.12,2.42-17.33-10-1.73-21.71,10.33-22.26,23.74V152l-.55-.07c-.47-.08-.86-.08-1.33-.15h-.55l.08-.53c.86-10.55,3.51-18.54,7.65-24.41l.23-.15c1.48-.23,2.58-.38,3.44-.53l1.48-.38-5,.38.7-.91a37.1,37.1,0,0,1,4.61-4.52l.23-.15h6.56l-5.55-.68.7-.68a67.27,67.27,0,0,1,9.37-8.36l.23-.23.23.15a3.83,3.83,0,0,1,2.19,1.88l.55,1.28.16-.53c.39-1.58-.31-2.71-2.19-3.62l-1.17-1c-1.88-1.36-3-1.51-3.67-1.21l-.55.53a2.9,2.9,0,0,1,3.2,2.11l.08.3-10.55,9,.31-5.12L381,120.28,376,125.86l.23-1.58c.08-.91.16-1.58.23-2.11l.08-1.28-.47,2c-.08,1.13-.16,2.26-.16,3.39a55.25,55.25,0,0,0-7.19,25v.45l-1.72.07v-.45c-.16-2.34-.39-4.9-.31-7.31a53,53,0,0,1,.94-9.95c2.19-9.42,9.76-18.16,9.69-25.77-.08-3.84-3.36-6.33-7.58-9l-4.06-2.71-4.22,2.71c-4.22,2.71-7.58,5.2-7.66,9-.08,7.61,7.5,16.28,9.69,25.77a47.14,47.14,0,0,1,.94,9.95c.08,2.41-.15,5-.31,7.31v.53l-1.72-.15v-.45a55,55,0,0,0-7.11-24.87c-.08-1.28-.16-2.41-.23-3.54l-.47-2,.08,1.28c.08.53.16,1.2.23,2.11l.23,1.58L350,120.28l-1.09-5.88.31,5.12-10.54-9,.08-.3a3,3,0,0,1,3.2-2.18l-.55-.45c-.7-.3-1.8-.15-3.59,1.21l-1.17,1c-2,.91-2.65,2-2.34,3.62l.23.53.55-1.28a3.83,3.83,0,0,1,2.19-1.88l.23-.15.23.23a67.12,67.12,0,0,1,9.37,8.36l.7.68-5.55.68h6.48l.23.07a38.19,38.19,0,0,1,4.69,4.6l.7.91-5-.38,1.48.38c.86.15,2,.3,3.28.53l.31.07c4.22,6,6.87,13.94,7.73,24.49l.08.53h-.55c-.47,0-.94.07-1.33.07l-.55.08v-.53c-.55-13.34-12.26-25.4-22.34-23.66-7.34,1.21-12.26,13.64,2.5,17.33,9.22,2.26,13.36,9.12,2.81,10-1.8.23-1.56-1.58-1-2.26,1.48-1.51.55-2.64-1.09-2.64-.7.08-1.8,1.36.16,2.49,1.25.75.23,2.34-.86,2.41h-.23c-1.8-1.28-2.73-1.28-3.2-.68l-.39.6.31.68c.47.6,1.25.53,2.66-.15l.94-.38a2,2,0,0,1,1.25,2.41c-1.17,1.58.16,2.41,1.09,2a1.28,1.28,0,0,0,0-2.41c-1.33-.9-.7-1.66.16-2,6-.15,7.42-2.11,7-5.58-.55-4.07-10.23-6.78-6.09-12.58s15.15,1.06,15.86,14.54V152l-.39.08c-5.15,1.13-5.47,5.65,3.28,6.48l.39.07.08.38c.55,4.44-3.67,4.9-8.28,5l-.94.08.55.38a1.61,1.61,0,0,1-.31,1.2l-.62.91.62-.15a9,9,0,0,0,2.34-2l.16-.23.31.07c1.88.3,4.06-.53,6.56-3.09l.62-.6.23.83c1,3.32-.78,6-7.26,7.84-3,.75-5.08,2-5.86,4l-.23,1.51,2.26-.91a7.51,7.51,0,0,0,2.73-3.24l.39-.91,1.56,2.79.16-.3c1-1,3.36-1.06,3.59-3.69v-.23l2.89-1.36.15.53c1.72,4.52-3.75,7.24-3.59,10.62l.23,1.06.39-.23c.47-.75.62-2.49,2.73-3.62l1-.53-.23,1.06c-.78,3.09-.94,5.5-.23,7.08l.55.83ZM344,166.55h0l.39-.08a4.15,4.15,0,0,0,1.56-.6l.39-.15.23.23c.94,1.06,3,.53,5.7-1.66l.55-.15-1.88.08c-2.89.15-5.47.53-6.79,2l-.16.3Zm42.57,0h0l-.16-.3c-1-1.2-2.65-1.73-4.68-2l-4.37-.23.86.15c2.73,2.26,4.84,2.71,5.78,1.81l.23-.3.39.15a4.68,4.68,0,0,0,1.56.6l.39.08Zm-50.14-57.65h.62v-.45c-.31-2-.7-3.32-2.27-3.24l-1.8.45-.62,1.28c-.39,1.28.31,2.11,4.06,2Zm62.25-2h0l-.62-1.28-1.8-.45c-1.56-.08-2,1.28-2.26,3.24v.45h.7c3.67.15,4.37-.68,4-2Z" style="fill:#493a2f;fill-rule:evenodd"/></g></svg>