<svg id="Слой_1" data-name="Слой 1" xmlns="http://www.w3.org/2000/svg" viewBox="0 0 50 50"><defs><style>.cls-1{opacity:0.3;}.cls-2{fill:#fff;}.cls-3{fill:#add000;}.cls-4{fill:none;stroke:#9898a1;stroke-linecap:round;stroke-linejoin:round;stroke-width:2px;}</style></defs><title>hit</title><g class="cls-1"><ellipse class="cls-2" cx="24.6" cy="24.96" rx="24.81" ry="20.72" transform="translate(-8.95 35.09) rotate(-62.21)"/></g><path class="cls-3" d="M46.42,33.59C43.21,39.31,35,43.45,28.84,44.52a22.69,22.69,0,0,1-19-5.4C1.43,31.38,2.32,15,10.78,7.58c1.09-1,1.81-3.62,2.43-4.17-9.11,8-16,24.77-9.24,36,10.89,18.12,35.32,8.06,43.6-6.67,1.71-3-.35-.58-1.15.85Z"/><path class="cls-3" d="M8.91,12.77C13.5,4.34,29.08,2.92,36.6,7.67c10,6.33,11.79,18.11,6.22,28.22-1.48,2.69,1.33-1.14,1.74-1.89,3.55-6.44,6-13.78,3-20.93a21.47,21.47,0,0,0-9.2-10.22C33.16.11,26.07.38,20.67,2.13c-6.41,2.08-10.38,6.8-13.5,12.52-1.47,2.7,1.33-1.14,1.74-1.89Z"/><path class="cls-4" d="M8.58,33.72l-1-.51A26.18,26.18,0,0,1,9,30.44q.78-1.36,2.13-3.43l1.68-2.59q-.58-.9-2.38-3.49t-2.68-4l1-.44a81.86,81.86,0,0,1,4.94,6.61,20.08,20.08,0,0,1,2-3.08q1.91-2.64,2.19-3.13a1,1,0,0,1,.83-.58,1.11,1.11,0,0,1,.83.41,1.45,1.45,0,0,1,.39.94q-.14.16-2.4,3.32t-2.82,3.8q.79,1.23,3,4.25t2.8,4a.94.94,0,0,1-.22.67.75.75,0,0,1-.57.23,1.31,1.31,0,0,1-1.21-.77L13.77,26q-.72,1.16-2.53,3.71T8.58,33.72Z"/><path d="M8.58,33.72l-1-.51A26.18,26.18,0,0,1,9,30.44q.78-1.36,2.13-3.43l1.68-2.59q-.58-.9-2.38-3.49t-2.68-4l1-.44a81.86,81.86,0,0,1,4.94,6.61,20.08,20.08,0,0,1,2-3.08q1.91-2.64,2.19-3.13a1,1,0,0,1,.83-.58,1.11,1.11,0,0,1,.83.41,1.45,1.45,0,0,1,.39.94q-.14.16-2.4,3.32t-2.82,3.8q.79,1.23,3,4.25t2.8,4a.94.94,0,0,1-.22.67.75.75,0,0,1-.57.23,1.31,1.31,0,0,1-1.21-.77L13.77,26q-.72,1.16-2.53,3.71T8.58,33.72Z"/><path class="cls-4" d="M21.82,16.52l1,.23q.23,3.83.53,12.73a85.3,85.3,0,0,0,6.21-12.94,1.09,1.09,0,0,1,.67-.28,1,1,0,0,1,.85.6,3,3,0,0,1,.36,1.37q.07,2.16.13,7.28t.17,7.65q-.21.7-.79.7a1.25,1.25,0,0,1-.81-.34,1.4,1.4,0,0,1-.49-.82q.07-2,.08-6.19t0-5.63q-.51.88-1.79,3.34t-2.35,4.22a22.39,22.39,0,0,1-2.21,3.06l.09,1.88c-.14.48-.41.72-.81.72a1.18,1.18,0,0,1-.8-.35,1.48,1.48,0,0,1-.48-.83q.07-2,.14-7.72T21.82,16.52Z"/><path d="M21.82,16.52l1,.23q.23,3.83.53,12.73a85.3,85.3,0,0,0,6.21-12.94,1.09,1.09,0,0,1,.67-.28,1,1,0,0,1,.85.6,3,3,0,0,1,.36,1.37q.07,2.16.13,7.28t.17,7.65q-.21.7-.79.7a1.25,1.25,0,0,1-.81-.34,1.4,1.4,0,0,1-.49-.82q.07-2,.08-6.19t0-5.63q-.51.88-1.79,3.34t-2.35,4.22a22.39,22.39,0,0,1-2.21,3.06l.09,1.88c-.14.48-.41.72-.81.72a1.18,1.18,0,0,1-.8-.35,1.48,1.48,0,0,1-.48-.83q.07-2,.14-7.72T21.82,16.52Z"/><path class="cls-4" d="M33,18l-.23-1,8.86-.51a1.41,1.41,0,0,1,1,.42,1.2,1.2,0,0,1,.39.86.73.73,0,0,1-.23.53,1.11,1.11,0,0,1-.7.28l-3.89-.21q.58,8.18.86,14.88-.21.7-.79.7a1.25,1.25,0,0,1-.81-.34,1.4,1.4,0,0,1-.49-.82q0-1.25,0-3.8,0-.95,0-2.85t0-2.85q0-2.76.09-5Q34.4,18,33,18Z"/><path d="M33,18l-.23-1,8.86-.51a1.41,1.41,0,0,1,1,.42,1.2,1.2,0,0,1,.39.86.73.73,0,0,1-.23.53,1.11,1.11,0,0,1-.7.28l-3.89-.21q.58,8.18.86,14.88-.21.7-.79.7a1.25,1.25,0,0,1-.81-.34,1.4,1.4,0,0,1-.49-.82q0-1.25,0-3.8,0-.95,0-2.85t0-2.85q0-2.76.09-5Q34.4,18,33,18Z"/></svg>