<svg id="Слой_1" data-name="Слой 1" xmlns="http://www.w3.org/2000/svg" viewBox="0 0 64.83 22.5"><defs><style>.cls-1{fill:#e0e087;}.cls-2{fill:none;stroke:#754c24;stroke-linecap:round;stroke-miterlimit:10;}.cls-3{fill:#8c6239;}</style></defs><title>new</title><rect class="cls-1" x="7.16" y="2.49" width="56.24" height="16.61" transform="translate(-0.7 2.64) rotate(-4.25)"/><line class="cls-2" x1="0.67" y1="18.67" x2="63.17" y2="18.67"/><path class="cls-3" d="M14.83,6l.79-.16a52.11,52.11,0,0,1,.31,5.33q.06,3.41.13,4.51-.12.42-.48.42a.69.69,0,0,1-.47-.2.87.87,0,0,1-.28-.49q0-.49,0-1.63V11.13l-.84.06-1,.07-.84,0h-.52q0,.83.1,2.35t.09,2.09c-.08.28-.24.42-.47.42a.68.68,0,0,1-.46-.2.87.87,0,0,1-.28-.49q0-1.17.07-4.54t.13-5l.6.14s0,.07,0,.13,0,.11,0,.14q.17,3.35.2,4.19l1-.09,1.16-.11,1-.09s0,0,0-.14,0-.46,0-1.1S14.83,7.34,14.83,6Z"/><path class="cls-3" d="M17.6,11.27v-.7q0-.24,0-.73t.05-.78q0-.29.1-.74A3.55,3.55,0,0,1,18,7.58L18.21,7a1.71,1.71,0,0,1,.36-.57A4.89,4.89,0,0,1,19,6a1.74,1.74,0,0,1,.61-.29,3,3,0,0,1,.78-.1,3.08,3.08,0,0,1,1.47.33,2.75,2.75,0,0,1,1,.84A4.1,4.1,0,0,1,23.44,8a7.64,7.64,0,0,1,.27,1.4q.06.67.06,1.47,0,.54,0,1t-.08,1a6.39,6.39,0,0,1-.18,1,5.19,5.19,0,0,1-.32.85,2.55,2.55,0,0,1-.48.71,2.15,2.15,0,0,1-.7.46,2.41,2.41,0,0,1-.94.18,4.55,4.55,0,0,1-1.45-.2,2.65,2.65,0,0,1-1-.57,2.52,2.52,0,0,1-.61-1,5.73,5.73,0,0,1-.31-1.31A13.57,13.57,0,0,1,17.6,11.27Zm5.2.11A10,10,0,0,0,22.7,10a11.49,11.49,0,0,0-.34-1.55,3.1,3.1,0,0,0-.76-1.35,1.69,1.69,0,0,0-1.24-.52q-.54,0-1,.73a5.31,5.31,0,0,0-.59,1.63,8.9,8.9,0,0,0-.18,1.71q0,.56,0,.85t0,.83a5.56,5.56,0,0,0,.12.85,5.34,5.34,0,0,0,.24.72,1.86,1.86,0,0,0,.39.63,2.08,2.08,0,0,0,.59.39,2,2,0,0,0,.81.18A1.69,1.69,0,0,0,22.31,14,6.15,6.15,0,0,0,22.8,11.37Z"/><path class="cls-3" d="M25.3,15.47l.07-9.58q.15-.5,1.17-.5a5.66,5.66,0,0,1,1.73.25,3,3,0,0,1,1.33.84,2,2,0,0,1,.54,1.42,2.71,2.71,0,0,1-.32,1.27A1.55,1.55,0,0,1,29,10a1.91,1.91,0,0,1,1.4,1A4.32,4.32,0,0,1,31,13.2a2,2,0,0,1-.68,1.49,4.06,4.06,0,0,1-1.59.91,6.19,6.19,0,0,1-1.83.28A2.3,2.3,0,0,1,25.3,15.47ZM26.39,9.7h.84A1.68,1.68,0,0,0,29,8a1.79,1.79,0,0,0-.48-1.25,1.69,1.69,0,0,0-1.32-.52,3.06,3.06,0,0,0-.9.16q0,.83,0,2.05T26.39,9.7Zm0,1q0,.93,0,3.75a1.34,1.34,0,0,0,1,.46,2.45,2.45,0,0,0,1.63-.7,2,2,0,0,0,.79-1.49,1.89,1.89,0,0,0-.67-1.54,2.59,2.59,0,0,0-1.71-.55A5.28,5.28,0,0,0,26.41,10.72Z"/><path class="cls-3" d="M32.68,5.85l.61.14q.14,2.24.31,7.47a50.1,50.1,0,0,0,3.65-7.59.64.64,0,0,1,.39-.16.57.57,0,0,1,.5.35,1.72,1.72,0,0,1,.21.8q0,1.27.08,4.27t.1,4.49q-.12.41-.46.41a.73.73,0,0,1-.48-.2.82.82,0,0,1-.29-.48q0-1.18,0-3.63t0-3.31q-.3.52-1,2t-1.38,2.48a13.14,13.14,0,0,1-1.3,1.8l.05,1.1c-.08.28-.24.42-.48.42a.69.69,0,0,1-.47-.2.87.87,0,0,1-.28-.49q0-1.16.08-4.53T32.68,5.85Z"/><path class="cls-3" d="M44.26,6,45,5.88a52.11,52.11,0,0,1,.31,5.33q.06,3.41.13,4.51-.12.42-.48.42a.69.69,0,0,1-.47-.2.87.87,0,0,1-.28-.49q0-.49,0-1.63V11.13l-.84.06-1,.07-.84,0h-.52q0,.83.1,2.35t.09,2.09c-.08.28-.24.42-.47.42a.68.68,0,0,1-.46-.2.87.87,0,0,1-.28-.49q0-1.17.07-4.54t.13-5l.6.14s0,.07,0,.13,0,.11,0,.14q.17,3.35.2,4.19l1-.09,1.16-.11,1-.09s0,0,0-.14,0-.46,0-1.1S44.26,7.34,44.26,6Z"/><path class="cls-3" d="M53.53,15.52l0,.52a4.76,4.76,0,0,1-1.37.22,1.72,1.72,0,0,1-1.07-.33,2.1,2.1,0,0,1-.67-.84q-.22-.5-.45-1.09l-.42-1.09a2.12,2.12,0,0,0-.58-.84,1.34,1.34,0,0,0-.91-.33l.14,4c-.08.28-.24.42-.48.42a.69.69,0,0,1-.47-.2.87.87,0,0,1-.28-.49q0-.29.1-4.61t.12-5l.61.14q0,.52.08,1.94T48,9.86a1.39,1.39,0,0,0,1-.44,3.43,3.43,0,0,0,.68-1l.54-1.22a3.32,3.32,0,0,1,.71-1A1.46,1.46,0,0,1,52,5.7a10,10,0,0,1,1.56.2l-.14.54q-.85-.14-1-.14a1,1,0,0,0-.81.39,3.36,3.36,0,0,0-.55,1q-.22.59-.48,1.21A3.63,3.63,0,0,1,49.87,10a2.49,2.49,0,0,1-1.23.69,2.48,2.48,0,0,1,1.14.58,2.81,2.81,0,0,1,.71,1q.23.54.45,1.15t.38,1.1a2.3,2.3,0,0,0,.45.82.92.92,0,0,0,.71.33A4.54,4.54,0,0,0,53.53,15.52Z"/><path class="cls-3" d="M57.16,6l1,.07a37.4,37.4,0,0,0,1.57,4.77,44.26,44.26,0,0,1,1.56,4.61,1.05,1.05,0,0,1-.14.59.4.4,0,0,1-.34.2A.49.49,0,0,1,60.5,16a.73.73,0,0,1-.21-.4,20.84,20.84,0,0,0-.79-2.4L56,12.82a16,16,0,0,0-.43,1.59q-.26,1.1-.41,1.52a.59.59,0,0,1-.46.25.61.61,0,0,1-.49-.25,1,1,0,0,1-.2-.62q.44-1.59,1.58-4.68T57.16,6Zm.47,1.37a27,27,0,0,1-1.51,4.83h1.52q1,0,1.72.07A21.27,21.27,0,0,1,57.63,7.33Z"/></svg>