<svg id="134411e2-26d6-442a-8681-2416616759e8" data-name="Ğ¡Ğ»Ğ¾Ğ¹ 1" xmlns="http://www.w3.org/2000/svg" viewBox="0 0 60 60"><title>06_stand</title><path d="M16.55,47.58c-.45-.63.14-1.14.11-1.8a7.7,7.7,0,0,0-.39-1.26,9.16,9.16,0,0,1,0-1.31c0-.43-.54-.88-.53-1.27,0-.15.4-.64.46-.76a6.17,6.17,0,0,0,.37-3l0-16.14V11.72a3.16,3.16,0,0,0,0-1c-.19-.39-1-.35-.73-.89.08-.15.5-.27.69-.32a9.8,9.8,0,0,1,1.73-.08L26,9l8.56-.4a21.69,21.69,0,0,1,4.07-.19c.73.11,5.65,1.8,5.49,2.35-.1.36-1,.3-1.2.64a5.4,5.4,0,0,0,0,1.69V29.31A106.08,106.08,0,0,0,43,39.93c.05.52,0,1.06,0,1.58.07.68.21.59.57,1.18.06.09.56,1,.56,1,0,.21-.32.29-.4.5-.2.51.12,1,.19,1.56.12,1-.63,1.9-.44,2.88.14.73.56,1.38.1,2.17-.22.38-.77.65-1.13.08-.06-.1,0-.47,0-.61A3.85,3.85,0,0,1,42.21,49c0-.64.56-1.87,0-2.41s-2.73.54-3.5.81c-1.52.53-3.1-.11-4.6.42a6.56,6.56,0,0,1-2.72.74,7.17,7.17,0,0,0-3,.2,9.93,9.93,0,0,1-3.65.62l-3.2,0c.12.45-.24.64-.4,1A2.48,2.48,0,0,0,21,51.61a5.64,5.64,0,0,1,.27,1.32c0,.44-.32.66-.44,1s.15.89-.59.92-.46-.63-.56-1.16c0-.21-.28-.36-.3-.58,0-.43.14-.61.23-1,.19-.94-.34-1.61-.54-2.49-.1-.43.06-.95-.06-1.36s-.88-1.11-1.19-1.11c-.1.48-.12,1.6-.81,1.59S16.55,48,16.55,47.58Z" style="fill:#754c24"/><path d="M22.24,18.41V12.08L41.35,11v6ZM23,12.79V17.6L40.6,16.35V11.83Z" style="fill:#fff"/><path d="M22.24,25.37v-6.6l19.11-1.32V23.7Zm.75-5.9v5.08L40.6,23V18.26Z" style="fill:#fff"/><path d="M22.24,32.31V25.77L41.35,24v6.31ZM23,26.46v5l17.61-1.8V24.86Z" style="fill:#fff"/><path d="M22.24,39.29V32.73l19.11-2V37ZM23,33.41v5l17.61-2.1V31.57Z" style="fill:#fff"/><path d="M22.15,46.23l.1-6.56,19.1-2.37v6.27Zm.84-5.9-.07,5L40.6,42.92V38.15Z" style="fill:#fff"/></svg>