<svg id="Слой_1" data-name="Слой 1" xmlns="http://www.w3.org/2000/svg" viewBox="0 0 45 45"><defs><style>.cls-1{fill:#754c24;}</style></defs><title>09_hall</title><path class="cls-1" d="M36.63,3.51a10.38,10.38,0,0,1,1.17-1c-.05-.55-4.22-.61-4.52-.64L16.85.33A18.92,18.92,0,0,0,13.12,0C11.13.26,9.18,1.1,7.2,1.47c0,0,.64,1.18.71,1.36s.15.06.19.19,0,.46,0,.64.35.18.46.43c.26.63-.18,32.53,0,37.25-.85-.07-.25,1.22-.09,1.57.08.19,0,.26.12.42a2.79,2.79,0,0,0,.81.27A21.52,21.52,0,0,0,13.57,45a8.3,8.3,0,0,0,1.71-.22l4.27-.56,10-1.31,4.22-.55a7.88,7.88,0,0,0,2.31-.3c.32-.18,0,.08.23-.29a2.44,2.44,0,0,0,0-1.29c-.26-.41-1-.16-1.29-.43s-.24-.76-.26-1.14c-.06-1.53-.1-2.7-.09-4.25q.06-9.25.11-18.5,0-3.55,0-7.1c0-.46,0-.91,0-1.31,0-.74,0-1.53.07-2.26,0-.33.23-.57.22-.9.23,0,.82.12,1-.07s0-.43.06-.56S36.49,3.67,36.63,3.51ZM24.53,4a.89.89,0,0,1-.45.2c-.35.41-1.16.51-2.59.66a13.08,13.08,0,0,0-1.68.25,7.19,7.19,0,0,0,.05,1.11c0,.2,0,.36,0,.45l-.1,32c0,.09,0,.2,0,.31a2.19,2.19,0,0,0,0,.64c.12.06,1.11.27,1.53.35,1.52.31,2.32.49,2.57,1a.62.62,0,0,1,0,.55l-.16.37-.39-.11c-.42-.11-.85-.25-1.28-.4a8.67,8.67,0,0,0-3.62-.66l-7.18.88-.15-1.19,6.54-.81.56-.05a1.76,1.76,0,0,0,.36,0,4.87,4.87,0,0,0,0-.5l.08-24.27c0-1,0-2.07,0-3.11,0-2.08.07-4.18,0-6.22a2.07,2.07,0,0,1,0-.21v0c-.15,0-.41,0-.83,0h-.4L11.7,4.5l0-.39a.63.63,0,0,1,0-.24l-.32.06-.14-.35a.66.66,0,0,1,.08-.65c.17-.23.61-.84,5.82-.42l7.54.61,0,.38A.63.63,0,0,1,24.53,4Zm8.31,34.86c-.24.19-1.17.11-1.48.14l-2.13.21-2.78.27V36.33c0-.54-.22-1.94.14-2.23S27.76,34,28.07,34l2.13-.2L33,33.51v3.17C33,37.22,33.2,38.6,32.84,38.89Zm.23-28.25-.12,17.26c0,.61.32,3-.1,3.4-.16.16-1.19.06-1.4.07l-2.21.12-3,.16q0-1.65,0-3.31,0-11.49,0-23l6.8.49Z"/></svg>