<svg id="Слой_1" data-name="Слой 1" xmlns="http://www.w3.org/2000/svg" viewBox="0 0 45 45"><defs><style>.cls-1{fill:#754c24;}</style></defs><title>11_dinner</title><path class="cls-1" d="M32.48,10.92c.38-1.32,1.3-2.16,1.39-4.08A4.2,4.2,0,0,0,29.6,2.33a4.32,4.32,0,0,0-4.73,4.13,7.43,7.43,0,0,0,1.22,3.75s.78,2.18.22,3.31a17.76,17.76,0,0,1-2.67,3.13v6.43l.58,0,.24-6.22,1.15-.55,5.62.1.48,5h.62l0-5.14h.29l.14,7h.62L33.54,15l-.86-1.12A5.57,5.57,0,0,1,32.48,10.92Zm-5.11,3.15a10.79,10.79,0,0,0-.14-2.89,8.45,8.45,0,0,0,4.16-.07,5.84,5.84,0,0,0,.49,3Z"/><path class="cls-1" d="M3.45,16.91v2.53l.47.39.29.72a1.16,1.16,0,0,0-.38.76A1.21,1.21,0,0,0,4.2,22l-.38.65.67,9.94h.72l.72-9.94-.29-.79s.25-.07.29-.65a1,1,0,0,0-.18-.79s.5-.78.4-1c1.26.1,10,.93,10,.93l.43,7.56.68-.07.47-7.28,5.69.5v.61l.68,1a5.2,5.2,0,0,0-.18,1.12.73.73,0,0,0,.4.65l-.32.68.72,10.95h.76l.83-11-.47-.61a1.55,1.55,0,0,0,.47-.83c0-.43-.5-1-.5-1l.9-.94v-.83L34,18.28l.29.47a1.13,1.13,0,0,0-.26.69,2.36,2.36,0,0,0,.26,1l-.32.4.11,12.86.61-.07L36,20.81l-.17-.35a2.22,2.22,0,0,0,.4-1.15,2.11,2.11,0,0,0-.38-.83l.4-.5V15.65l.79-.29-.32-.68-20.6-1.15-13,2.63-.47.5Z"/><path class="cls-1" d="M4.71,24.08s.83-6.05.5-6.59A2.42,2.42,0,0,1,5,15.14c.43-1-.51-3-.51-3a13,13,0,0,1-1.66-4.5C2.77,5.89,3.09,3,6.16,2.57a5.11,5.11,0,0,1,6,4.21,8.13,8.13,0,0,1-.94,4.86l.14,1.94s5.26.21,5.83,2.38a2.54,2.54,0,0,1,0,1.12l0,7.56H16.6l-.54-7.56-4.65.83.07,5.19-.94.07L10.41,18l-2.12.14,0,8.25H7.56l-.72-8.1-.54-.25s-.32,5.62-.61,6S4.71,24.08,4.71,24.08ZM6,14.28c.36-.07,4.3-.6,4.3-.6a12.07,12.07,0,0,0,0-1.39,4.48,4.48,0,0,1-4.61.77S5.92,13.78,6,14.28Z"/><path class="cls-1" d="M28.6,43.67,28.36,34,28,39.25l-.68-.11-.23-7.07-.58-.9V29.32A7,7,0,0,1,27,27.8c.21-.24,1.7-4,1.94-4.31-.64.11-1.41.16-1.41.16s-.77-.82,0-1,11.12-.29,11.12-.29.48-9.29,4.93-9.29c.78,0,.64,1.32,0,3.44C42.71,18.06,41.78,26,41.78,26a34.63,34.63,0,0,0,.56,16.86c-.24.4-.37.26-.37.26l-.82-.19-.48-2.57h-.74s-.72-7-1-7.44c-1.56.19-8.22.11-9,.48-.24,1.72-.61,10.43-.61,10.43A1.34,1.34,0,0,1,28.6,43.67Zm1.83-18.45c1.35-.38,8.59-.13,8.59-.13v-1l-.21-1-7.91.26A8.91,8.91,0,0,1,30.44,25.22Zm-.56,1.86c.82-.05,8.86.16,8.86.16s.11-.5.19-1.11c-.42.11-8.62.1-8.62.1A1.21,1.21,0,0,0,29.87,27.08Zm10,.93.45.29.24-1.06-.48-.62Z"/></svg>