<svg id="Слой_1" data-name="Слой 1" xmlns="http://www.w3.org/2000/svg" viewBox="0 0 35 35"><defs><style>.cls-1{fill:#8b6239;}</style></defs><title>icon-phone</title><path class="cls-1" d="M19.93,12.16l-.47-.23A2.93,2.93,0,0,1,17.65,10a5.13,5.13,0,0,1,.66-3.16,3.12,3.12,0,0,1,1.36-1.66,2.66,2.66,0,0,1,2,.35l.55.26A8.15,8.15,0,0,0,20.7,7.88,8.35,8.35,0,0,0,19.93,12.16Zm-9,17.4-.61-.29A2.32,2.32,0,0,1,9,28,3.14,3.14,0,0,1,9.39,26q1.79-3.75,4.52-2.44l.58.28a9.06,9.06,0,0,0-2.82,3.42A8.49,8.49,0,0,0,10.93,29.56Zm5.14.75a12.76,12.76,0,0,1-4.58-.48,12.26,12.26,0,0,1,.82-2.31,10.05,10.05,0,0,1,2.82-3.42l.28.13q1.88.9,4.6-4.8,2.81-5.89.93-6.78l-.28-.13a8.52,8.52,0,0,1,.71-4.41,7.18,7.18,0,0,1,1.45-2,13,13,0,0,1,3.25,3.26A30.05,30.05,0,0,1,25,15a35.87,35.87,0,0,1-2.15,5.65A36.85,36.85,0,0,1,19.8,26,29.15,29.15,0,0,1,16.07,30.31Z"/></svg>