<svg id="Слой_1" data-name="Слой 1" xmlns="http://www.w3.org/2000/svg" viewBox="0 0 264.83 37"><title>logo</title><path d="M235.9,3.86c-.38.85.31,2.45,1.75,4.57l-.36,22.66a2,2,0,0,0,2,1.94l7.47.07A3.37,3.37,0,0,0,245.28,30l-.69-18.79c0-4.21,6.71-7.84,8.58-.43.17,4.6-1.75,6.81-6.21,6.08,0,1.55.83,2.67,6,1.58,10.62-3,9.5-11.59,3.93-14.57l-21,0Zm-28,.09h0c-1.71.25-1.59,1.53.45,3.91l.14,20.08a20.59,20.59,0,0,0-.9,5.14l9.39.09a5.23,5.23,0,0,0-1.07-4.3l.09-7.22c-.07-1.69,2.8-3.84,8.25-4.46.26,3.84.36,8.09.21,13.22a4.51,4.51,0,0,0-.5,2.65l9.53.09c-.47-1.44-.95-3-1.42-4.69l-.47-18a28.18,28.18,0,0,0,1.78-6.17L223,4.18c-.92.32.43,2.81,1.71,6.36-.17,2.08-5.74,5.42-8.25,4.18-.66-1.05-.59-4.18-.57-7.2,1.78-1.83,1.47-3.57.38-3.68l-8.44.11ZM186.18,26.86h0c3.29-3.11,2.75-5.19.36-5.12-4,.18-5.88,2.51-5.83,6.52.31,3.27,4.19,6.15,14.5,4.55,6-1.07,10.21-4.5,8.11-10.86-.9-2.74-3.93-4.85-7-5.42,5.76-2.08,9.1-10.27-.54-12.48L183.14,3.9c-2,.8-4.6,5.53-1.16,7.89a21.32,21.32,0,0,0,4.29-5.17c4.38-1.42,13.13,1.58,6.09,8.67a21.1,21.1,0,0,1-5.12,2.13c3.77.71,7.35,1.76,8.67,6.79,1,4.39-4.27,9.6-8.94,4.28l-.81-1.62Zm-28.11,2.72h0l-.52-21.7c-.69-1.83-3.2-4.23.81-3.89L177,4.11c1.21.18,1.9,1.83,1.49,6.45-1.21.71-4.22-4.62-5.85-3.84l-5.57,0c-1.66,1-2.32,3.45-1.61,7.8,2.46-2.83,6.09-5.78,10.07-1.05,1.71,2.56-.31,6.72-3.7,5.88.92-4.94-4.88-4.73-6.4.11l.21,8.83c-.21,2,5.55,4.69,9.6-.5,2.51-2.4,4.65-4.09,4.34-1.17-.62,2.9-1.64,5.4-3.86,6.54l-19.15-.16c-1.42-1.46,1.11-2.15,1.49-3.36Zm-30.93,3.48h0c-1.45-.91-1.61-3.41-.54-6.61A137.17,137.17,0,0,1,132.83,9a3.08,3.08,0,0,0-1.11-3.25c-.33-.8-.14-1.44,1.26-1.81L148.16,4a2.26,2.26,0,0,1-.83,2.79c2.32,9.56,9.91,24.76,5.57,26.34h-8.25c-.66-.73-.88-1.44.92-2.15,1.14-2-.85-8.67-3.44-16.21-1.3-3.66-3.86-8.46-5.9-5.6-2.51,3.38-6.33,12.35-6.73,20.24-.45,1.9,2.2,3.38.88,3.68l-3.25,0ZM96.26,4h0A8.2,8.2,0,0,0,97.87,9.5l.45,19.41a10.85,10.85,0,0,0-1.47,4.18l9.86.09a4,4,0,0,0-1-3.43l-.24-20.12c.52-2.47,5.4-5.51,8.72,0l.33,19.21a8.56,8.56,0,0,0-1.3,4.28l10.55,0a11.6,11.6,0,0,0-1.87-4.07L121.4,9.18c.43-.89,2.7-3.93.31-5.3L96.26,4Zm-30.08.16h0l.09,1.65c2.2,1,3,8.28,1.92,23.41a8.74,8.74,0,0,0,0,4.14l9.29-.09a8.93,8.93,0,0,0-1-3.73l-.43-9.42c1.28-1.49,4.19-3.11,5.14,2,1.07.14,2.13-.41,3.18-2.42.45,3.7,1,7.38-.26,11.57l.12,2H94.1a9.3,9.3,0,0,0-1.52-4.53L92.16,9a6.66,6.66,0,0,0,.43-4.8l-9.69,0a13.6,13.6,0,0,0,1.42,6.15l.31,4.09c-2.16-1.85-4.79-2-8.56,1.6L75.8,7.4a3.59,3.59,0,0,0,.92-3.2L66.18,4.13ZM45.78,4h0A61.78,61.78,0,0,1,54.5,4c6.26.64,11.35,4.82,9.72,17.74-2.75,6.91-6.59,12-13.72,11.57C45.18,33,40,32,36.44,20.43c-2-9.28.4-15.27,9.34-16.42Zm4.05,2.47h0c-5.38-1.05-10.88,14.15-1.35,23.64,1.49.8,3.41,1.37,5.1-.66,4.57-7.48,3.67-23.39-3.74-23Zm-41.74,27h0c-1.83.14-3.53.09-3.77-2.24.52-9.08,1.75-19-.24-24.69L3.76,4.11l6.52-.27c2.25,2.47,5,8,7.56,9.56l1.59-.23c1.07-3.11,2-6.24,5-9.1l7.39-.11a18.08,18.08,0,0,0-.26,9.15,121.22,121.22,0,0,1,2.54,18.79c-.43,1.44-1.61,1.58-2.94,1.49l-5.78,0c-.92-1.14-.9-2.13.47-2.84-.31-7.34-.17-15.87-2.58-17.35-2.18.53-3.22,7.41-6.52,11.14-2.77-1.94-5.43-5.35-8-11-1.11-.59-1.42-.16-1.64.37C7,19.54,6.6,25.3,7.93,31.66a1.48,1.48,0,0,1,.17,1.81Z" style="fill:#feffff;fill-rule:evenodd"/></svg>