<svg id="Слой_1" data-name="Слой 1" xmlns="http://www.w3.org/2000/svg" xmlns:xlink="http://www.w3.org/1999/xlink" viewBox="0 0 240 100"><defs><style>.cls-1{fill:none;}.cls-2{clip-path:url(#clip-path);}.cls-3{fill:#534234;}.cls-3,.cls-4,.cls-5,.cls-6{fill-rule:evenodd;}.cls-4{fill:#6d5949;}.cls-5{fill:#342618;}.cls-6{fill:#fff;}</style><clipPath id="clip-path"><rect class="cls-1" y="0.5" width="240" height="100"/></clipPath></defs><title>Monplaisir_logo_main</title><g class="cls-2"><polygon class="cls-3" points="-11.01 -88.89 -11.01 131.76 293.86 131.76 293.86 -89.34 -11.01 -89.34 -11.01 -88.89"/><path class="cls-4" d="M-10.39,119.87c2.57-.7,3.14-1.73,2.76-2.9a3.33,3.33,0,0,1-2.82,1.3,2.6,2.6,0,0,1-1.94,1.12c1-.94,1-1.42.38-1.18-1,.85-2,1.24-2.54.7a3.52,3.52,0,0,1-1.25.33c1-2.9,8.12.06,7.68-3.27-3.7-.36-3.76-2.45-1.35-3-.31-5.54-4.61-7.66-6-5.75-1.57,2.18,2.23,3.09,2.45,4.93.22,1.54-.5,2.39-2.92,2.45-.28.09-.38.21-.09.39a.7.7,0,0,1,0,1.33c-.56.27-1.29-.3-.72-1.09.22-.33-.31-.82-.6-.51-.75.36-1.29.33-1.47-.39.25-.7.75-.85,1.72-.18.34,0,.5-.42.25-.57-.88-.51-.56-1.36,0-1.36s1.41.58.6,1.33c-.22.3-.13.64.22.61,3.92-.33,2.35-2.78-1.13-3.66-6.21-1.54-4.11-6.81-1-7.32,4.2-.7,9,4.27,9.19,9.68a3.37,3.37,0,0,0,.53,0c-.34-4.21-1.41-7.38-3-9.68-2.2-.27-2.57-.54-2.79-.82l2.45.18a14.86,14.86,0,0,0-1.82-1.82c-2.92.06-4-.06-3.83-.27l3-.33a31.24,31.24,0,0,0-3.76-3.36,2.32,2.32,0,0,0-1.13,1.66c-.6-1.06-.44-1.88.72-2.39-2.13.09-2.1-.7-1.54-1.66,1.51-.64,1.85.21,2,1.27,1.57-1.15,2-.24,2.32.27a1,1,0,0,0-1.63.51l3.76,3.24-.19-2.91.22-.09c.28,1.27.5,2.51.69,3.69L-11.3,102c-.28-2.06,0-2,.19-1.94a10,10,0,0,1,.34,2.72,22.24,22.24,0,0,1,2.89,10.08h.28c.06-.91.16-2,.13-2.94A20.68,20.68,0,0,0-7.85,106c-.85-3.6-3.92-7.35-3.89-10.38,0-2.21,2.6-3.36,5-5,2.35,1.6,4.86,2.75,4.89,5,0,3-3,6.78-3.89,10.38a18.36,18.36,0,0,0-.38,3.93c0,1,.06,2,.13,2.94a.91.91,0,0,0,.28,0,22.23,22.23,0,0,1,2.89-10,10,10,0,0,1,.34-2.72c.19,0,.47-.12.19,1.94l1.54-1.66c.19-1.18.41-2.42.69-3.69l.25.09L0,99.65l3.76-3.24A1,1,0,0,0,2.1,95.9c.31-.51.72-1.42,2.32-.27.16-1.06.47-1.91,2-1.27C7,95.32,7,96.11,4.89,96c1.16.51,1.32,1.33.72,2.39a2.28,2.28,0,0,0-1.16-1.66,31.09,31.09,0,0,0-3.73,3.36l3,.33c.19.21-.91.33-3.86.27a14.92,14.92,0,0,0-1.79,1.82l2.42-.18c-.19.27-.6.54-2.76.82-1.66,2.3-2.73,5.48-3,9.71a3.18,3.18,0,0,1,.53,0c.19-5.42,5-10.44,9.19-9.71,3.14.51,5.24,5.78-1,7.32-3.48.88-5.05,3.33-1.16,3.66.38,0,.44-.3.22-.61-.78-.76-.09-1.36.63-1.33.56,0,.91.85,0,1.36-.25.15-.13.57.25.57.94-.67,1.47-.51,1.72.18-.19.73-.72.76-1.47.39-.28-.3-.85.18-.63.51.56.79-.13,1.36-.69,1.09a.69.69,0,0,1,0-1.33c.25-.18.16-.3-.09-.42-2.42,0-3.14-.88-2.95-2.42.25-1.85,4-2.75,2.48-4.93-1.38-1.94-5.71.21-6,5.78,2.23.61,2.1,2.57-1.54,2.94-.44,3.33,6.71.36,7.68,3.27a3.7,3.7,0,0,1-1.25-.33c-.53.54-1.51.15-2.54-.7-.66-.24-.6.24.38,1.18a2.65,2.65,0,0,1-1.94-1.12A3.33,3.33,0,0,1-6.18,117c-.38,1.18.19,2.21,2.76,2.9,1.44.39,2.41,1,2.6,2.18H-2.14a3.42,3.42,0,0,1-1.07-1.36l-.63,1.12c0-1-1.54-.45-1.66-2l-.85-.39c-.38,1,.28,1.79.82,2.63H-8.29c.53-.85,1.19-1.66.82-2.63l-.85.39c-.13,1.54-1.69,1-1.66,2l-.63-1.12A3.42,3.42,0,0,1-11.67,122H-13c.19-1.15,1.16-1.78,2.6-2.18Z"/><path class="cls-4" d="M63.08,119.87c2.6-.7,3.17-1.73,2.79-2.9a3.36,3.36,0,0,1-2.82,1.3,2.7,2.7,0,0,1-2,1.12c1-.94,1.07-1.42.41-1.18-1,.85-2,1.24-2.54.7a3.69,3.69,0,0,1-1.25.33c1-2.9,8.12.06,7.65-3.27-3.7-.36-3.76-2.45-1.32-3-.31-5.54-4.61-7.66-6-5.75-1.57,2.18,2.23,3.09,2.45,4.93.19,1.54-.53,2.39-2.95,2.45-.25.09-.34.21-.06.39a.71.71,0,0,1,0,1.33c-.6.27-1.29-.3-.72-1.09.22-.33-.31-.82-.6-.51-.78.36-1.32.33-1.51-.39.25-.7.78-.85,1.72-.18.38,0,.53-.42.25-.57-.85-.51-.53-1.36.06-1.36s1.41.58.6,1.33c-.22.3-.16.64.22.61,3.89-.33,2.32-2.78-1.16-3.66-6.18-1.54-4.08-6.81-1-7.32,4.2-.7,9,4.27,9.19,9.68a3.56,3.56,0,0,0,.56,0c-.34-4.21-1.41-7.38-3-9.68-2.2-.27-2.57-.54-2.79-.82l2.45.18a14.88,14.88,0,0,0-1.82-1.82c-2.95.06-4-.06-3.86-.27l3.07-.33a31.27,31.27,0,0,0-3.76-3.36,2.16,2.16,0,0,0-1.13,1.66c-.6-1.06-.44-1.88.72-2.39-2.13.09-2.1-.7-1.54-1.66,1.51-.64,1.82.21,2,1.27,1.6-1.15,2-.24,2.32.27a1,1,0,0,0-1.63.51l3.8,3.24-.22-2.91.25-.09c.28,1.27.5,2.51.69,3.69L62.2,102c-.28-2.06,0-2,.16-1.94a9,9,0,0,1,.38,2.72,22.25,22.25,0,0,1,2.89,10.08h.28c.06-.91.13-2,.13-2.94a18.44,18.44,0,0,0-.41-3.93c-.82-3.6-3.92-7.35-3.86-10.38,0-2.21,2.6-3.36,5-5,2.35,1.6,4.86,2.75,4.89,5,0,3-3.07,6.78-3.89,10.38a18.39,18.39,0,0,0-.41,3.93c0,1,.06,2,.13,2.94a1,1,0,0,0,.31,0,21.48,21.48,0,0,1,2.89-10,8,8,0,0,1,.34-2.72c.16,0,.44-.12.16,1.94l1.57-1.66c.19-1.18.41-2.42.69-3.69l.25.09-.22,2.91,3.79-3.24a1,1,0,0,0-1.63-.51c.31-.51.72-1.42,2.32-.27.16-1.06.47-1.91,2-1.27.6,1,.63,1.76-1.54,1.66,1.16.51,1.32,1.33.75,2.39a2.28,2.28,0,0,0-1.16-1.66,31.09,31.09,0,0,0-3.73,3.36l3,.33c.16.21-.91.33-3.86.27a12.93,12.93,0,0,0-1.79,1.82l2.41-.18c-.22.27-.6.54-2.79.82-1.63,2.3-2.7,5.48-3,9.71a3,3,0,0,1,.53,0c.22-5.42,5-10.44,9.22-9.71,3.1.51,5.21,5.78-1,7.32-3.48.88-5.05,3.33-1.16,3.66.38,0,.44-.3.22-.61-.82-.76-.13-1.36.6-1.33s.91.85.06,1.36c-.28.15-.13.57.22.57,1-.67,1.51-.51,1.76.18-.19.73-.75.76-1.51.39-.28-.3-.82.18-.6.51.56.79-.13,1.36-.72,1.09a.71.71,0,0,1,0-1.33c.28-.18.19-.3-.06-.42-2.41,0-3.14-.88-2.95-2.42.22-1.85,4-2.75,2.45-4.93-1.38-1.94-5.71.21-6,5.78,2.26.61,2.1,2.57-1.51,2.94-.44,3.33,6.68.36,7.68,3.27a3.38,3.38,0,0,1-1.25-.33c-.53.54-1.54.15-2.54-.7-.69-.24-.6.24.38,1.18a2.7,2.7,0,0,1-2-1.12,3.27,3.27,0,0,1-2.79-1.3c-.38,1.18.19,2.21,2.76,2.9,1.41.39,2.38,1,2.6,2.18H71.36a3.43,3.43,0,0,1-1.07-1.36l-.66,1.12c.06-1-1.51-.45-1.66-2l-.85-.39c-.34,1,.28,1.79.85,2.63H65.18c.56-.85,1.22-1.66.85-2.63l-.85.39c-.13,1.54-1.73,1-1.66,2l-.63-1.12a3.46,3.46,0,0,1-1.1,1.36H60.48c.22-1.15,1.19-1.78,2.6-2.18Z"/><path class="cls-4" d="M136.58,119.87c2.57-.7,3.14-1.73,2.76-2.9a3.27,3.27,0,0,1-2.79,1.3,2.7,2.7,0,0,1-2,1.12c1-.94,1.07-1.42.41-1.18-1,.85-2,1.24-2.57.7a3.4,3.4,0,0,1-1.22.33c1-2.9,8.12.06,7.65-3.27-3.7-.36-3.76-2.45-1.35-3-.28-5.54-4.61-7.66-6-5.75-1.54,2.18,2.23,3.09,2.48,4.93.19,1.54-.53,2.39-2.95,2.45-.25.09-.34.21-.06.39a.7.7,0,0,1,0,1.33c-.56.27-1.25-.3-.69-1.09.22-.33-.34-.82-.63-.51-.75.36-1.29.33-1.47-.39.25-.7.78-.85,1.72-.18.38,0,.5-.42.25-.57-.88-.51-.53-1.36,0-1.36.72,0,1.41.58.63,1.33-.22.3-.16.64.22.61,3.89-.33,2.32-2.78-1.16-3.66-6.21-1.54-4.08-6.81-1-7.32,4.2-.7,9,4.27,9.19,9.68a3.19,3.19,0,0,0,.53,0c-.31-4.21-1.38-7.38-3-9.68-2.16-.27-2.54-.54-2.76-.82l2.42.18a13,13,0,0,0-1.79-1.82c-2.95.06-4-.06-3.86-.27l3-.33a31.09,31.09,0,0,0-3.73-3.36,2.28,2.28,0,0,0-1.16,1.66c-.56-1.06-.41-1.88.75-2.39-2.16.09-2.13-.7-1.54-1.66,1.51-.64,1.82.21,2,1.27,1.6-1.15,2-.24,2.32.27a1,1,0,0,0-1.63.51l3.8,3.24-.22-2.91.25-.09c.28,1.27.5,2.51.69,3.69L135.7,102c-.31-2.06,0-2,.16-1.94a8.05,8.05,0,0,1,.34,2.72,21.5,21.5,0,0,1,2.89,10.08h.28c.06-.91.16-2,.13-2.94a18.41,18.41,0,0,0-.38-3.93c-.82-3.6-3.92-7.35-3.89-10.38,0-2.21,2.6-3.36,5-5,2.35,1.6,4.83,2.75,4.86,5,.06,3-3,6.78-3.89,10.38a20.6,20.6,0,0,0-.38,3.93c0,1,.06,2,.13,2.94a.91.91,0,0,0,.28,0,22.23,22.23,0,0,1,2.89-10,10,10,0,0,1,.34-2.72c.19,0,.47-.12.19,1.94l1.57-1.66c.19-1.18.41-2.42.69-3.69l.25.09-.22,2.91,3.79-3.24a1,1,0,0,0-1.63-.51c.31-.51.72-1.42,2.32-.27.13-1.06.47-1.91,2-1.27.56,1,.6,1.76-1.54,1.66,1.16.51,1.32,1.33.72,2.39a2.16,2.16,0,0,0-1.13-1.66,31.25,31.25,0,0,0-3.76,3.36l3.07.33c.16.21-.91.33-3.86.27a14.86,14.86,0,0,0-1.82,1.82l2.45-.18c-.22.27-.6.54-2.79.82-1.63,2.3-2.7,5.48-3,9.71a3,3,0,0,1,.53,0c.22-5.42,5-10.44,9.19-9.71,3.14.51,5.24,5.78-1,7.32-3.48.88-5.05,3.33-1.13,3.66.34,0,.44-.3.22-.61-.82-.76-.13-1.36.6-1.33s.91.85,0,1.36c-.25.15-.09.57.25.57,1-.67,1.51-.51,1.72.18-.16.73-.72.76-1.47.39-.28-.3-.82.18-.6.51.56.79-.16,1.36-.72,1.09a.71.71,0,0,1,0-1.33c.28-.18.19-.3-.09-.42-2.42,0-3.14-.88-2.92-2.42.22-1.85,4-2.75,2.45-4.93-1.38-1.94-5.71.21-6,5.78,2.26.61,2.1,2.57-1.51,2.94-.47,3.33,6.68.36,7.65,3.27a3.4,3.4,0,0,1-1.22-.33c-.53.54-1.54.15-2.57-.7-.66-.24-.56.24.41,1.18a2.7,2.7,0,0,1-2-1.12,3.27,3.27,0,0,1-2.79-1.3c-.38,1.18.19,2.21,2.76,2.9,1.41.39,2.38,1,2.6,2.18h-1.32a3.46,3.46,0,0,1-1.1-1.36l-.63,1.12c.06-1-1.51-.45-1.66-2l-.85-.39c-.38,1,.28,1.79.85,2.63h-2.79c.56-.85,1.22-1.66.85-2.63l-.85.39c-.16,1.54-1.73,1-1.66,2l-.63-1.12a3.75,3.75,0,0,1-1.1,1.36H134c.22-1.15,1.19-1.78,2.6-2.18Z"/><path class="cls-4" d="M210.06,119.87c2.57-.7,3.14-1.73,2.76-2.9a3.27,3.27,0,0,1-2.79,1.3,2.7,2.7,0,0,1-2,1.12c1-.94,1.07-1.42.41-1.18-1,.85-2,1.24-2.57.7a3.4,3.4,0,0,1-1.22.33c1-2.9,8.12.06,7.65-3.27-3.7-.36-3.76-2.45-1.35-3-.28-5.54-4.61-7.66-6-5.75-1.54,2.18,2.23,3.09,2.48,4.93.19,1.54-.53,2.39-2.95,2.45-.25.09-.34.21-.06.39a.7.7,0,0,1,0,1.33c-.56.27-1.25-.3-.69-1.09.22-.33-.34-.82-.63-.51-.75.36-1.29.33-1.47-.39.25-.7.78-.85,1.72-.18.38,0,.5-.42.25-.57-.88-.51-.53-1.36,0-1.36.72,0,1.41.58.63,1.33-.22.3-.16.64.22.61,3.89-.33,2.32-2.78-1.16-3.66-6.21-1.54-4.08-6.81-1-7.32,4.2-.7,9,4.27,9.19,9.68a3.19,3.19,0,0,0,.53,0c-.31-4.21-1.38-7.38-3-9.68-2.17-.27-2.54-.54-2.76-.82l2.42.18a12.94,12.94,0,0,0-1.79-1.82c-2.95.06-4-.06-3.86-.27l3-.33a31.1,31.1,0,0,0-3.73-3.36,2.28,2.28,0,0,0-1.16,1.66c-.56-1.06-.41-1.88.75-2.39-2.16.09-2.13-.7-1.54-1.66,1.51-.64,1.82.21,2,1.27,1.6-1.15,2-.24,2.32.27a1,1,0,0,0-1.63.51l3.79,3.24-.22-2.91.25-.09c.28,1.27.5,2.51.69,3.69l1.57,1.66c-.31-2.06,0-2,.16-1.94a8,8,0,0,1,.34,2.72,21.5,21.5,0,0,1,2.89,10.08h.28c.06-.91.16-2,.13-2.94a18.37,18.37,0,0,0-.38-3.93c-.82-3.6-3.92-7.35-3.89-10.38,0-2.21,2.6-3.36,5-5,2.35,1.6,4.86,2.75,4.86,5,.06,3-3,6.78-3.89,10.38a20.68,20.68,0,0,0-.38,3.93c0,1,.06,2,.13,2.94a.91.91,0,0,0,.28,0,22.24,22.24,0,0,1,2.89-10,10,10,0,0,1,.34-2.72c.19,0,.47-.12.19,1.94l1.57-1.66c.19-1.18.41-2.42.69-3.69l.25.09-.22,2.91,3.8-3.24a1,1,0,0,0-1.63-.51c.31-.51.72-1.42,2.32-.27.13-1.06.47-1.91,2-1.27.56,1,.6,1.76-1.54,1.66,1.16.51,1.32,1.33.72,2.39a2.16,2.16,0,0,0-1.13-1.66,31.26,31.26,0,0,0-3.76,3.36l3.07.33c.16.21-.91.33-3.86.27a14.87,14.87,0,0,0-1.82,1.82l2.45-.18c-.22.27-.6.54-2.79.82-1.63,2.3-2.7,5.48-3,9.71a3,3,0,0,1,.53,0c.22-5.42,5-10.44,9.19-9.71,3.14.51,5.24,5.78-1,7.32-3.48.88-5,3.33-1.13,3.66.34,0,.44-.3.22-.61-.82-.76-.13-1.36.6-1.33s.91.85,0,1.36c-.25.15-.09.57.25.57,1-.67,1.51-.51,1.73.18-.16.73-.72.76-1.47.39-.28-.3-.82.18-.6.51.56.79-.16,1.36-.72,1.09a.71.71,0,0,1,0-1.33c.28-.18.19-.3-.09-.42-2.42,0-3.11-.88-2.92-2.42.22-1.85,4-2.75,2.45-4.93-1.38-1.94-5.71.21-6,5.78,2.26.61,2.1,2.57-1.51,2.94-.47,3.33,6.68.36,7.65,3.27a3.4,3.4,0,0,1-1.22-.33c-.53.54-1.54.15-2.57-.7-.66-.24-.56.24.41,1.18a2.7,2.7,0,0,1-2-1.12,3.27,3.27,0,0,1-2.79-1.3c-.38,1.18.19,2.21,2.76,2.9,1.41.39,2.38,1,2.6,2.18h-1.32a3.45,3.45,0,0,1-1.1-1.36l-.63,1.12c.06-1-1.51-.45-1.66-2l-.85-.39c-.38,1,.28,1.79.85,2.63h-2.79c.56-.85,1.22-1.66.85-2.63l-.85.39c-.16,1.54-1.72,1-1.66,2l-.63-1.12a3.75,3.75,0,0,1-1.1,1.36h-1.32c.22-1.15,1.19-1.78,2.6-2.18Z"/><path class="cls-4" d="M-10.39,10.64c2.57-.7,3.14-1.73,2.76-2.9A3.33,3.33,0,0,1-10.45,9a2.6,2.6,0,0,1-1.94,1.12c1-.94,1-1.42.38-1.18-1,.85-2,1.24-2.54.7a3.53,3.53,0,0,1-1.25.33c1-2.9,8.12.06,7.68-3.27-3.7-.36-3.76-2.45-1.35-3-.31-5.54-4.61-7.66-6-5.75C-17,.2-13.24,1.1-13,3c.22,1.54-.5,2.39-2.92,2.45-.28.09-.38.21-.09.39a.7.7,0,0,1,0,1.33c-.56.27-1.29-.3-.72-1.09.22-.33-.31-.82-.6-.51-.75.36-1.29.33-1.47-.39.25-.7.75-.85,1.72-.18.34,0,.5-.42.25-.57-.88-.51-.56-1.36,0-1.36s1.41.58.6,1.33c-.22.3-.13.64.22.61,3.92-.33,2.35-2.78-1.13-3.66-6.21-1.54-4.11-6.81-1-7.32,4.2-.7,9,4.27,9.19,9.68a3.37,3.37,0,0,0,.53,0c-.34-4.21-1.41-7.38-3-9.68-2.2-.27-2.57-.54-2.79-.82l2.45.18a14.86,14.86,0,0,0-1.82-1.82c-2.92.06-4-.06-3.83-.27l3-.33a31.24,31.24,0,0,0-3.76-3.36,2.32,2.32,0,0,0-1.13,1.66c-.6-1.06-.44-1.88.72-2.39-2.13.09-2.1-.7-1.54-1.66,1.51-.64,1.85.21,2,1.27,1.57-1.15,2-.24,2.32.27a1,1,0,0,0-1.63.51l3.76,3.24-.19-2.91.22-.09c.28,1.27.5,2.51.69,3.69l1.57,1.66c-.28-2.06,0-2,.19-1.94a10,10,0,0,1,.34,2.72A22.24,22.24,0,0,1-7.88,3.65h.28c.06-.91.16-2,.13-2.94a20.68,20.68,0,0,0-.38-3.93c-.85-3.6-3.92-7.35-3.89-10.38,0-2.21,2.6-3.36,5-5,2.35,1.6,4.86,2.75,4.89,5,0,3-3,6.78-3.89,10.38A18.36,18.36,0,0,0-6.15.71c0,1,.06,2,.13,2.94a.91.91,0,0,0,.28,0,22.23,22.23,0,0,1,2.89-10,10,10,0,0,1,.34-2.72c.19,0,.47-.12.19,1.94L-.79-8.88c.19-1.18.41-2.42.69-3.69l.25.09L0-9.58l3.76-3.24a1,1,0,0,0-1.63-.51c.31-.51.72-1.42,2.32-.27.16-1.06.47-1.91,2-1.27.6,1,.63,1.76-1.51,1.66,1.16.51,1.32,1.33.72,2.39a2.28,2.28,0,0,0-1.16-1.66A31.09,31.09,0,0,0,.72-9.12l3,.33c.19.21-.91.33-3.86.27A14.92,14.92,0,0,0-1.89-6.7L.53-6.89c-.19.27-.6.54-2.76.82C-3.89-3.77-5-.59-5.27,3.65a3.18,3.18,0,0,1,.53,0C-4.55-1.74.25-6.76,4.45-6c3.14.51,5.24,5.78-1,7.32C0,2.16-1.57,4.61,2.32,4.95c.38,0,.44-.3.22-.61C1.75,3.59,2.44,3,3.16,3c.56,0,.91.85,0,1.36-.25.15-.13.57.25.57.94-.67,1.47-.51,1.72.18-.19.73-.72.76-1.47.39-.28-.3-.85.18-.63.51.56.79-.13,1.36-.69,1.09a.69.69,0,0,1,0-1.33c.25-.18.16-.3-.09-.42C-.1,5.34-.82,4.49-.63,3-.38,1.1,3.38.2,1.85-2c-1.38-1.94-5.71.21-6,5.78C-1.92,4.4-2,6.37-5.68,6.73-6.12,10.06,1,7.1,2,10A3.7,3.7,0,0,1,.75,9.67c-.53.54-1.51.15-2.54-.7-.66-.24-.6.24.38,1.18A2.65,2.65,0,0,1-3.36,9a3.33,3.33,0,0,1-2.82-1.3c-.38,1.18.19,2.21,2.76,2.9C-2,11-1,11.67-.82,12.81H-2.14A3.42,3.42,0,0,1-3.2,11.45l-.63,1.12c0-1-1.54-.45-1.66-2l-.85-.39c-.38,1,.28,1.79.82,2.63H-8.29c.53-.85,1.19-1.66.82-2.63l-.85.39c-.13,1.54-1.69,1-1.66,2l-.63-1.12a3.42,3.42,0,0,1-1.07,1.36H-13c.19-1.15,1.16-1.78,2.6-2.18Z"/><path class="cls-4" d="M63.08,10.64c2.6-.7,3.17-1.73,2.79-2.9A3.36,3.36,0,0,1,63,9a2.7,2.7,0,0,1-2,1.12c1-.94,1.07-1.42.41-1.18-1,.85-2,1.24-2.54.7a3.7,3.7,0,0,1-1.25.33c1-2.9,8.12.06,7.65-3.27-3.7-.36-3.76-2.45-1.32-3C63.71-1.77,59.41-3.89,58-2,56.46.2,60.26,1.1,60.48,3c.19,1.54-.53,2.39-2.95,2.45-.25.09-.34.21-.06.39a.71.71,0,0,1,0,1.33c-.6.27-1.29-.3-.72-1.09.22-.33-.31-.82-.6-.51-.78.36-1.32.33-1.51-.39.25-.7.78-.85,1.72-.18.38,0,.53-.42.25-.57C55.8,3.86,56.12,3,56.71,3s1.41.58.6,1.33c-.22.3-.16.64.22.61,3.89-.33,2.32-2.78-1.16-3.66C50.19-.26,52.29-5.52,55.4-6c4.2-.7,9,4.27,9.19,9.68a3.56,3.56,0,0,0,.56,0c-.34-4.21-1.41-7.38-3-9.68-2.2-.27-2.57-.54-2.79-.82l2.45.18a14.88,14.88,0,0,0-1.82-1.82c-2.95.06-4-.06-3.86-.27l3.07-.33a31.26,31.26,0,0,0-3.76-3.36,2.16,2.16,0,0,0-1.13,1.66c-.6-1.06-.44-1.88.72-2.39-2.13.09-2.1-.7-1.54-1.66,1.51-.64,1.82.21,2,1.27,1.6-1.15,2-.24,2.32.27a1,1,0,0,0-1.63.51l3.8,3.24-.22-2.91.25-.09c.28,1.27.5,2.51.69,3.69L62.2-7.22c-.28-2.06,0-2,.16-1.94a9,9,0,0,1,.38,2.72A22.25,22.25,0,0,1,65.62,3.65h.28c.06-.91.13-2,.13-2.94a18.44,18.44,0,0,0-.41-3.93c-.82-3.6-3.92-7.35-3.86-10.38,0-2.21,2.6-3.36,5-5,2.35,1.6,4.86,2.75,4.89,5,0,3-3.07,6.78-3.89,10.38A18.39,18.39,0,0,0,67.32.71c0,1,.06,2,.13,2.94a1,1,0,0,0,.31,0,21.48,21.48,0,0,1,2.89-10A8,8,0,0,1,71-9.15c.16,0,.44-.12.16,1.94l1.57-1.66c.19-1.18.41-2.42.69-3.69l.25.09-.22,2.91,3.79-3.24a1,1,0,0,0-1.63-.51c.31-.51.72-1.42,2.32-.27.16-1.06.47-1.91,2-1.27.6,1,.63,1.76-1.54,1.66,1.16.51,1.32,1.33.75,2.39a2.28,2.28,0,0,0-1.16-1.66,31.09,31.09,0,0,0-3.73,3.36l3,.33c.16.21-.91.33-3.86.27A12.93,12.93,0,0,0,71.61-6.7L74-6.89c-.22.27-.6.54-2.79.82-1.63,2.3-2.7,5.48-3,9.71a3,3,0,0,1,.53,0c.22-5.42,5-10.44,9.22-9.71,3.1.51,5.21,5.78-1,7.32-3.48.88-5.05,3.33-1.16,3.66.38,0,.44-.3.22-.61-.82-.76-.13-1.36.6-1.33s.91.85.06,1.36c-.28.15-.13.57.22.57,1-.67,1.51-.51,1.76.18-.19.73-.75.76-1.51.39-.28-.3-.82.18-.6.51.56.79-.13,1.36-.72,1.09a.71.71,0,0,1,0-1.33c.28-.18.19-.3-.06-.42-2.41,0-3.14-.88-2.95-2.42C73.09,1.1,76.88.2,75.31-2c-1.38-1.94-5.71.21-6,5.78,2.26.61,2.1,2.57-1.51,2.94-.44,3.33,6.68.36,7.68,3.27a3.38,3.38,0,0,1-1.25-.33c-.53.54-1.54.15-2.54-.7-.69-.24-.6.24.38,1.18a2.7,2.7,0,0,1-2-1.12,3.27,3.27,0,0,1-2.79-1.3c-.38,1.18.19,2.21,2.76,2.9,1.41.39,2.38,1,2.6,2.18H71.36a3.43,3.43,0,0,1-1.07-1.36l-.66,1.12c.06-1-1.51-.45-1.66-2l-.85-.39c-.34,1,.28,1.79.85,2.63H65.18c.56-.85,1.22-1.66.85-2.63l-.85.39c-.13,1.54-1.73,1-1.66,2l-.63-1.12a3.46,3.46,0,0,1-1.1,1.36H60.48c.22-1.15,1.19-1.78,2.6-2.18Z"/><path class="cls-4" d="M136.58,10.64c2.57-.7,3.14-1.73,2.76-2.9A3.27,3.27,0,0,1,136.54,9a2.7,2.7,0,0,1-2,1.12c1-.94,1.07-1.42.41-1.18-1,.85-2,1.24-2.57.7a3.4,3.4,0,0,1-1.22.33c1-2.9,8.12.06,7.65-3.27-3.7-.36-3.76-2.45-1.35-3-.28-5.54-4.61-7.66-6-5.75C130,.2,133.72,1.1,134,3c.19,1.54-.53,2.39-2.95,2.45-.25.09-.34.21-.06.39a.7.7,0,0,1,0,1.33c-.56.27-1.25-.3-.69-1.09.22-.33-.34-.82-.63-.51-.75.36-1.29.33-1.47-.39.25-.7.78-.85,1.72-.18.38,0,.5-.42.25-.57-.88-.51-.53-1.36,0-1.36.72,0,1.41.58.63,1.33-.22.3-.16.64.22.61,3.89-.33,2.32-2.78-1.16-3.66-6.21-1.54-4.08-6.81-1-7.32,4.2-.7,9,4.27,9.19,9.68a3.19,3.19,0,0,0,.53,0c-.31-4.21-1.38-7.38-3-9.68-2.16-.27-2.54-.54-2.76-.82l2.42.18a13,13,0,0,0-1.79-1.82c-2.95.06-4-.06-3.86-.27l3-.33a31.09,31.09,0,0,0-3.73-3.36,2.28,2.28,0,0,0-1.16,1.66c-.56-1.06-.41-1.88.75-2.39-2.16.09-2.13-.7-1.54-1.66,1.51-.64,1.82.21,2,1.27,1.6-1.15,2-.24,2.32.27a1,1,0,0,0-1.63.51l3.8,3.24-.22-2.91.25-.09c.28,1.27.5,2.51.69,3.69l1.57,1.66c-.31-2.06,0-2,.16-1.94a8.05,8.05,0,0,1,.34,2.72,21.5,21.5,0,0,1,2.89,10.08h.28c.06-.91.16-2,.13-2.94a18.41,18.41,0,0,0-.38-3.93c-.82-3.6-3.92-7.35-3.89-10.38,0-2.21,2.6-3.36,5-5,2.35,1.6,4.83,2.75,4.86,5,.06,3-3,6.78-3.89,10.38a20.6,20.6,0,0,0-.38,3.93c0,1,.06,2,.13,2.94a.91.91,0,0,0,.28,0,22.23,22.23,0,0,1,2.89-10,10,10,0,0,1,.34-2.72c.19,0,.47-.12.19,1.94l1.57-1.66c.19-1.18.41-2.42.69-3.69l.25.09-.22,2.91,3.79-3.24a1,1,0,0,0-1.63-.51c.31-.51.72-1.42,2.32-.27.13-1.06.47-1.91,2-1.27.56,1,.6,1.76-1.54,1.66,1.16.51,1.32,1.33.72,2.39a2.16,2.16,0,0,0-1.13-1.66,31.24,31.24,0,0,0-3.76,3.36l3.07.33c.16.21-.91.33-3.86.27a14.86,14.86,0,0,0-1.82,1.82l2.45-.18c-.22.27-.6.54-2.79.82-1.63,2.3-2.7,5.48-3,9.71a3,3,0,0,1,.53,0c.22-5.42,5-10.44,9.19-9.71,3.14.51,5.24,5.78-1,7.32-3.48.88-5.05,3.33-1.13,3.66.34,0,.44-.3.22-.61-.82-.76-.13-1.36.6-1.33s.91.85,0,1.36c-.25.15-.09.57.25.57,1-.67,1.51-.51,1.72.18-.16.73-.72.76-1.47.39-.28-.3-.82.18-.6.51.56.79-.16,1.36-.72,1.09a.71.71,0,0,1,0-1.33c.28-.18.19-.3-.09-.42-2.42,0-3.14-.88-2.92-2.42.22-1.85,4-2.75,2.45-4.93-1.38-1.94-5.71.21-6,5.78,2.26.61,2.1,2.57-1.51,2.94C140.84,10.06,148,7.1,149,10a3.4,3.4,0,0,1-1.22-.33c-.53.54-1.54.15-2.57-.7-.66-.24-.56.24.41,1.18a2.7,2.7,0,0,1-2-1.12,3.27,3.27,0,0,1-2.79-1.3c-.38,1.18.19,2.21,2.76,2.9,1.41.39,2.38,1,2.6,2.18h-1.32a3.46,3.46,0,0,1-1.1-1.36l-.63,1.12c.06-1-1.51-.45-1.66-2l-.85-.39c-.38,1,.28,1.79.85,2.63h-2.79c.56-.85,1.22-1.66.85-2.63l-.85.39c-.16,1.54-1.73,1-1.66,2l-.63-1.12a3.75,3.75,0,0,1-1.1,1.36H134c.22-1.15,1.19-1.78,2.6-2.18Z"/><path class="cls-4" d="M210.06,10.64c2.57-.7,3.14-1.73,2.76-2.9A3.27,3.27,0,0,1,210,9a2.7,2.7,0,0,1-2,1.12c1-.94,1.07-1.42.41-1.18-1,.85-2,1.24-2.57.7a3.4,3.4,0,0,1-1.22.33c1-2.9,8.12.06,7.65-3.27-3.7-.36-3.76-2.45-1.35-3-.28-5.54-4.61-7.66-6-5.75C203.44.2,207.2,1.1,207.46,3c.19,1.54-.53,2.39-2.95,2.45-.25.09-.34.21-.06.39a.7.7,0,0,1,0,1.33c-.56.27-1.25-.3-.69-1.09.22-.33-.34-.82-.63-.51-.75.36-1.29.33-1.47-.39.25-.7.78-.85,1.72-.18.38,0,.5-.42.25-.57-.88-.51-.53-1.36,0-1.36.72,0,1.41.58.63,1.33-.22.3-.16.64.22.61,3.89-.33,2.32-2.78-1.16-3.66-6.21-1.54-4.08-6.81-1-7.32,4.2-.7,9,4.27,9.19,9.68a3.19,3.19,0,0,0,.53,0c-.31-4.21-1.38-7.38-3-9.68-2.17-.27-2.54-.54-2.76-.82l2.42.18a12.94,12.94,0,0,0-1.79-1.82c-2.95.06-4-.06-3.86-.27l3-.33a31.09,31.09,0,0,0-3.73-3.36,2.28,2.28,0,0,0-1.16,1.66c-.56-1.06-.41-1.88.75-2.39-2.16.09-2.13-.7-1.54-1.66,1.51-.64,1.82.21,2,1.27,1.6-1.15,2-.24,2.32.27a1,1,0,0,0-1.63.51l3.79,3.24-.22-2.91.25-.09c.28,1.27.5,2.51.69,3.69l1.57,1.66c-.31-2.06,0-2,.16-1.94a8,8,0,0,1,.34,2.72,21.5,21.5,0,0,1,2.89,10.08h.28c.06-.91.16-2,.13-2.94a18.37,18.37,0,0,0-.38-3.93c-.82-3.6-3.92-7.35-3.89-10.38,0-2.21,2.6-3.36,5-5,2.35,1.6,4.86,2.75,4.86,5,.06,3-3,6.78-3.89,10.38a20.68,20.68,0,0,0-.38,3.93c0,1,.06,2,.13,2.94a.91.91,0,0,0,.28,0,22.24,22.24,0,0,1,2.89-10,10,10,0,0,1,.34-2.72c.19,0,.47-.12.19,1.94l1.57-1.66c.19-1.18.41-2.42.69-3.69l.25.09-.22,2.91,3.8-3.24a1,1,0,0,0-1.63-.51c.31-.51.72-1.42,2.32-.27.13-1.06.47-1.91,2-1.27.56,1,.6,1.76-1.54,1.66,1.16.51,1.32,1.33.72,2.39a2.16,2.16,0,0,0-1.13-1.66,31.26,31.26,0,0,0-3.76,3.36l3.07.33c.16.21-.91.33-3.86.27a14.87,14.87,0,0,0-1.82,1.82L221-6.89c-.22.27-.6.54-2.79.82-1.63,2.3-2.7,5.48-3,9.71a3,3,0,0,1,.53,0c.22-5.42,5-10.44,9.19-9.71,3.14.51,5.24,5.78-1,7.32-3.48.88-5,3.33-1.13,3.66.34,0,.44-.3.22-.61-.82-.76-.13-1.36.6-1.33s.91.85,0,1.36c-.25.15-.09.57.25.57,1-.67,1.51-.51,1.73.18-.16.73-.72.76-1.47.39-.28-.3-.82.18-.6.51.56.79-.16,1.36-.72,1.09a.71.71,0,0,1,0-1.33c.28-.18.19-.3-.09-.42-2.42,0-3.11-.88-2.92-2.42.22-1.85,4-2.75,2.45-4.93-1.38-1.94-5.71.21-6,5.78,2.26.61,2.1,2.57-1.51,2.94-.47,3.33,6.68.36,7.65,3.27a3.4,3.4,0,0,1-1.22-.33c-.53.54-1.54.15-2.57-.7-.66-.24-.56.24.41,1.18a2.7,2.7,0,0,1-2-1.12,3.27,3.27,0,0,1-2.79-1.3c-.38,1.18.19,2.21,2.76,2.9,1.41.39,2.38,1,2.6,2.18h-1.32a3.45,3.45,0,0,1-1.1-1.36l-.63,1.12c.06-1-1.51-.45-1.66-2l-.85-.39c-.38,1,.28,1.79.85,2.63h-2.79c.56-.85,1.22-1.66.85-2.63l-.85.39c-.16,1.54-1.72,1-1.66,2l-.63-1.12a3.75,3.75,0,0,1-1.1,1.36h-1.32c.22-1.15,1.19-1.78,2.6-2.18Z"/><path class="cls-4" d="M-6.91,69.52v0c-.75-.61-.78-1.88-.34-3.54-.88.48-.82,1.66-1.47,1.66-.94-1.79,2-3.09,1.25-4.9l-.85.39c-.13,1.54-1.69,1-1.66,2L-10.61,64a3.14,3.14,0,0,1-2.45,1.91c0-1.48,1-2.3,2.67-2.72,2.57-.7,3.14-1.72,2.76-2.9a3.32,3.32,0,0,1-2.82,1.3,2.6,2.6,0,0,1-1.94,1.12c1-.94,1-1.42.38-1.18-1,.85-2,1.24-2.54.7a3.56,3.56,0,0,1-1.25.33c1-2.91,8.12.06,7.68-3.27-3.7-.36-3.76-2.45-1.35-3-.31-5.54-4.61-7.66-6-5.75C-17,52.72-13.24,53.63-13,55.48c.22,1.54-.5,2.39-2.92,2.45-.28.09-.38.21-.09.39a.7.7,0,0,1,0,1.33c-.56.27-1.29-.3-.72-1.09.22-.33-.31-.82-.6-.51-.75.36-1.29.33-1.47-.39.25-.7.75-.85,1.72-.15.34,0,.5-.45.25-.61-.88-.51-.56-1.36,0-1.36s1.41.58.6,1.33c-.22.3-.13.64.22.6,3.92-.33,2.35-2.78-1.13-3.63-6.21-1.54-4.11-6.84-1-7.35,4.2-.7,9,4.27,9.19,9.68a3.37,3.37,0,0,0,.53,0c-.34-4.21-1.41-7.38-3-9.68-2.2-.27-2.57-.54-2.79-.82l2.45.18A14.85,14.85,0,0,0-13.56,44c-2.92.06-4-.06-3.83-.27l3-.33A31.31,31.31,0,0,0-18.1,40a2.32,2.32,0,0,0-1.13,1.66c-.6-1.06-.44-1.88.72-2.39-2.13.09-2.1-.7-1.54-1.66,1.51-.64,1.85.21,2,1.27,1.57-1.15,2-.24,2.32.27a1,1,0,0,0-1.63.51l3.76,3.24L-13.78,40l.22-.09c.28,1.27.5,2.51.69,3.69l1.57,1.66c-.28-2.06,0-2,.19-1.94a10,10,0,0,1,.34,2.72A22.25,22.25,0,0,1-7.88,56.17h.28c.06-.94.16-2,.13-2.94a20.68,20.68,0,0,0-.38-3.93c-.85-3.6-3.92-7.35-3.89-10.38,0-2.21,2.6-3.36,5-5,2.35,1.6,4.86,2.75,4.89,5,0,3-3,6.78-3.89,10.38a18.36,18.36,0,0,0-.38,3.93c0,1,.06,2,.13,2.94a.91.91,0,0,0,.28,0,22.23,22.23,0,0,1,2.89-10,10,10,0,0,1,.34-2.72c.19,0,.47-.12.19,1.94l1.54-1.66c.19-1.18.41-2.42.69-3.69L.15,40,0,42.95l3.76-3.24A1,1,0,0,0,2.1,39.2c.31-.51.72-1.42,2.32-.27.16-1.06.47-1.91,2-1.27.6,1,.63,1.76-1.51,1.66,1.16.51,1.32,1.33.72,2.39A2.28,2.28,0,0,0,4.45,40,31.15,31.15,0,0,0,.72,43.4l3,.33c.19.21-.91.33-3.86.27a14.91,14.91,0,0,0-1.79,1.82l2.42-.18c-.19.27-.6.54-2.76.82-1.66,2.33-2.73,5.48-3,9.71a3.08,3.08,0,0,1,.53,0c.19-5.42,5-10.44,9.19-9.71,3.14.51,5.24,5.81-1,7.32-3.48.88-5.05,3.33-1.16,3.66.38,0,.44-.3.22-.6-.78-.76-.09-1.36.63-1.36.56,0,.91.88,0,1.39-.25.15-.13.57.25.57.94-.67,1.47-.51,1.72.18-.19.73-.72.76-1.47.39-.28-.3-.85.18-.63.51.56.79-.13,1.36-.69,1.09a.69.69,0,0,1,0-1.33c.25-.18.16-.3-.09-.39C-.1,57.87-.82,57-.63,55.48c.25-1.85,4-2.75,2.48-4.93-1.38-1.94-5.71.21-6,5.78,2.23.6,2.1,2.6-1.54,2.94C-6.12,62.59,1,59.62,2,62.53A3.74,3.74,0,0,1,.75,62.2c-.53.54-1.51.15-2.54-.7-.66-.24-.6.24.38,1.18a2.65,2.65,0,0,1-1.94-1.12,3.32,3.32,0,0,1-2.82-1.3c-.38,1.18.19,2.21,2.76,2.9,1.66.42,2.7,1.24,2.67,2.72A3.21,3.21,0,0,1-3.2,64l-.63,1.12c0-1-1.54-.45-1.66-2l-.85-.39c-.69,1.82,2.23,3.12,1.25,4.9-.66,0-.6-1.18-1.47-1.66.44,1.66.41,2.91-.31,3.54v0Z"/><path class="cls-4" d="M66.56,69.52v0c-.72-.61-.75-1.88-.34-3.54-.85.48-.82,1.66-1.47,1.66-.94-1.79,2-3.09,1.29-4.9l-.85.39c-.13,1.54-1.73,1-1.66,2L62.89,64a3.14,3.14,0,0,1-2.45,1.91c0-1.48,1-2.3,2.63-2.72,2.6-.7,3.17-1.72,2.79-2.9A3.36,3.36,0,0,1,63,61.56a2.7,2.7,0,0,1-2,1.12c1-.94,1.07-1.42.41-1.18-1,.85-2,1.24-2.54.7a3.74,3.74,0,0,1-1.25.33c1-2.91,8.12.06,7.65-3.27-3.7-.36-3.76-2.45-1.32-3-.31-5.54-4.61-7.66-6-5.75-1.57,2.18,2.23,3.09,2.45,4.93.19,1.54-.53,2.39-2.95,2.45-.25.09-.34.21-.06.39a.71.71,0,0,1,0,1.33c-.6.27-1.29-.3-.72-1.09.22-.33-.31-.82-.6-.51-.78.36-1.32.33-1.51-.39.25-.7.78-.85,1.72-.15.38,0,.53-.45.25-.61-.85-.51-.53-1.36.06-1.36s1.41.58.6,1.33c-.22.3-.16.64.22.6,3.89-.33,2.32-2.78-1.16-3.63-6.18-1.54-4.08-6.84-1-7.35,4.2-.7,9,4.27,9.19,9.68a3.56,3.56,0,0,0,.56,0c-.34-4.21-1.41-7.38-3-9.68-2.2-.27-2.57-.54-2.79-.82l2.45.18A14.87,14.87,0,0,0,59.94,44c-2.95.06-4-.06-3.86-.27l3.07-.33A31.33,31.33,0,0,0,55.4,40a2.16,2.16,0,0,0-1.13,1.66c-.6-1.06-.44-1.88.72-2.39-2.13.09-2.1-.7-1.54-1.66,1.51-.64,1.82.21,2,1.27,1.6-1.15,2-.24,2.32.27a1,1,0,0,0-1.63.51l3.8,3.24L59.69,40l.25-.09c.28,1.27.5,2.51.69,3.69l1.57,1.66c-.28-2.06,0-2,.16-1.94a9,9,0,0,1,.38,2.72,22.25,22.25,0,0,1,2.89,10.08h.28c.06-.94.13-2,.13-2.94a18.44,18.44,0,0,0-.41-3.93c-.82-3.6-3.92-7.35-3.86-10.38,0-2.21,2.6-3.36,5-5,2.35,1.6,4.86,2.75,4.89,5,0,3-3.07,6.78-3.89,10.38a18.39,18.39,0,0,0-.41,3.93c0,1,.06,2,.13,2.94a1,1,0,0,0,.31,0,21.48,21.48,0,0,1,2.89-10A8,8,0,0,1,71,43.37c.16,0,.44-.12.16,1.94l1.57-1.66c.19-1.18.41-2.42.69-3.69l.25.09-.22,2.91,3.79-3.24a1,1,0,0,0-1.63-.51c.31-.51.72-1.42,2.32-.27.16-1.06.47-1.91,2-1.27.6,1,.63,1.76-1.54,1.66,1.16.51,1.32,1.33.75,2.39A2.28,2.28,0,0,0,77.95,40a31.15,31.15,0,0,0-3.73,3.36l3,.33c.16.21-.91.33-3.86.27a12.92,12.92,0,0,0-1.79,1.82L74,45.64c-.22.27-.6.54-2.79.82a19.35,19.35,0,0,0-3,9.71,2.91,2.91,0,0,1,.53,0c.22-5.42,5-10.44,9.22-9.71,3.1.51,5.21,5.81-1,7.32-3.48.88-5.05,3.33-1.16,3.66.38,0,.44-.3.22-.6-.82-.76-.13-1.36.6-1.36s.91.88.06,1.39c-.28.15-.13.57.22.57,1-.67,1.51-.51,1.76.18-.19.73-.75.76-1.51.39-.28-.3-.82.18-.6.51.56.79-.13,1.36-.72,1.09a.71.71,0,0,1,0-1.33c.28-.18.19-.3-.06-.39-2.41-.06-3.14-.91-2.95-2.45.22-1.85,4-2.75,2.45-4.93-1.38-1.94-5.71.21-6,5.78,2.26.6,2.1,2.6-1.51,2.94-.44,3.33,6.68.36,7.68,3.27a3.41,3.41,0,0,1-1.25-.33c-.53.54-1.54.15-2.54-.7-.69-.24-.6.24.38,1.18a2.7,2.7,0,0,1-2-1.12,3.27,3.27,0,0,1-2.79-1.3c-.38,1.18.19,2.21,2.76,2.9,1.66.42,2.7,1.24,2.63,2.72A3.17,3.17,0,0,1,70.29,64l-.66,1.12c.06-1-1.51-.45-1.66-2l-.85-.39c-.69,1.82,2.23,3.12,1.29,4.9-.66,0-.63-1.18-1.47-1.66.41,1.66.41,2.91-.34,3.54v0h0Z"/><path class="cls-4" d="M140.06,69.52v0c-.75-.61-.75-1.88-.34-3.54-.85.48-.82,1.66-1.47,1.66-.94-1.79,2-3.09,1.29-4.9l-.85.39c-.16,1.54-1.73,1-1.66,2L136.39,64a3.18,3.18,0,0,1-2.45,1.91c0-1.48,1-2.3,2.63-2.72,2.57-.7,3.14-1.72,2.76-2.9a3.27,3.27,0,0,1-2.79,1.3,2.7,2.7,0,0,1-2,1.12c1-.94,1.07-1.42.41-1.18-1,.85-2,1.24-2.57.7a3.43,3.43,0,0,1-1.22.33c1-2.91,8.12.06,7.65-3.27-3.7-.36-3.76-2.45-1.35-3-.28-5.54-4.61-7.66-6-5.75-1.54,2.18,2.23,3.09,2.48,4.93.19,1.54-.53,2.39-2.95,2.45-.25.09-.34.21-.06.39a.7.7,0,0,1,0,1.33c-.56.27-1.25-.3-.69-1.09.22-.33-.34-.82-.63-.51-.75.36-1.29.33-1.47-.39.25-.7.78-.85,1.72-.15.38,0,.5-.45.25-.61-.88-.51-.53-1.36,0-1.36.72,0,1.41.58.63,1.33-.22.3-.16.64.22.6,3.89-.33,2.32-2.78-1.16-3.63-6.21-1.54-4.08-6.84-1-7.35,4.2-.7,9,4.27,9.19,9.68a3.19,3.19,0,0,0,.53,0c-.31-4.21-1.38-7.38-3-9.68-2.16-.27-2.54-.54-2.76-.82l2.42.18A12.94,12.94,0,0,0,133.44,44c-2.95.06-4-.06-3.86-.27l3-.33A31.15,31.15,0,0,0,128.89,40a2.28,2.28,0,0,0-1.16,1.66c-.56-1.06-.41-1.88.75-2.39-2.16.09-2.13-.7-1.54-1.66,1.51-.64,1.82.21,2,1.27,1.6-1.15,2-.24,2.32.27a1,1,0,0,0-1.63.51l3.8,3.24L133.19,40l.25-.09c.28,1.27.5,2.51.69,3.69l1.57,1.66c-.31-2.06,0-2,.16-1.94a8.05,8.05,0,0,1,.34,2.72,21.5,21.5,0,0,1,2.89,10.08h.28c.06-.94.16-2,.13-2.94a18.41,18.41,0,0,0-.38-3.93c-.82-3.6-3.92-7.35-3.89-10.38,0-2.21,2.6-3.36,5-5,2.35,1.6,4.83,2.75,4.86,5,.06,3-3,6.78-3.89,10.38a20.6,20.6,0,0,0-.38,3.93c0,1,.06,2,.13,2.94a.91.91,0,0,0,.28,0,22.23,22.23,0,0,1,2.89-10,10,10,0,0,1,.34-2.72c.19,0,.47-.12.19,1.94l1.57-1.66c.19-1.18.41-2.42.69-3.69l.25.09-.22,2.91,3.79-3.24a1,1,0,0,0-1.63-.51c.31-.51.72-1.42,2.32-.27.13-1.06.47-1.91,2-1.27.56,1,.6,1.76-1.54,1.66,1.16.51,1.32,1.33.72,2.39A2.16,2.16,0,0,0,151.44,40a31.31,31.31,0,0,0-3.76,3.36l3.07.33c.16.21-.91.33-3.86.27a14.85,14.85,0,0,0-1.82,1.82l2.45-.18c-.22.27-.6.54-2.79.82a19.35,19.35,0,0,0-3,9.71,2.91,2.91,0,0,1,.53,0c.22-5.42,5-10.44,9.19-9.71,3.14.51,5.24,5.81-1,7.32-3.48.88-5.05,3.33-1.13,3.66.34,0,.44-.3.22-.6-.82-.76-.13-1.36.6-1.36s.91.88,0,1.39c-.25.15-.09.57.25.57,1-.67,1.51-.51,1.72.18-.16.73-.72.76-1.47.39-.28-.3-.82.18-.6.51.56.79-.16,1.36-.72,1.09a.71.71,0,0,1,0-1.33c.28-.18.19-.3-.09-.39-2.42-.06-3.14-.91-2.92-2.45.22-1.85,4-2.75,2.45-4.93-1.38-1.94-5.71.21-6,5.78,2.26.6,2.1,2.6-1.51,2.94-.47,3.33,6.68.36,7.65,3.27a3.43,3.43,0,0,1-1.22-.33c-.53.54-1.54.15-2.57-.7-.66-.24-.56.24.41,1.18a2.7,2.7,0,0,1-2-1.12,3.27,3.27,0,0,1-2.79-1.3c-.38,1.18.19,2.21,2.76,2.9,1.63.42,2.67,1.24,2.63,2.72A3.25,3.25,0,0,1,143.76,64l-.63,1.12c.06-1-1.51-.45-1.66-2l-.85-.39c-.69,1.82,2.23,3.12,1.29,4.9-.66,0-.63-1.18-1.47-1.66.41,1.66.38,2.91-.34,3.54v0Z"/><path class="cls-4" d="M213.54,69.52v0c-.72-.61-.75-1.88-.35-3.54-.85.48-.82,1.66-1.47,1.66-.94-1.79,2-3.09,1.29-4.9l-.85.39c-.16,1.54-1.72,1-1.66,2L209.87,64a3.19,3.19,0,0,1-2.45,1.91c0-1.48,1-2.3,2.64-2.72,2.57-.7,3.14-1.72,2.76-2.9a3.27,3.27,0,0,1-2.79,1.3,2.7,2.7,0,0,1-2,1.12c1-.94,1.07-1.42.41-1.18-1,.85-2,1.24-2.57.7a3.43,3.43,0,0,1-1.22.33c1-2.91,8.12.06,7.65-3.27-3.7-.36-3.76-2.45-1.35-3-.28-5.54-4.61-7.66-6-5.75-1.54,2.18,2.23,3.09,2.48,4.93.19,1.54-.53,2.39-2.95,2.45-.25.09-.34.21-.06.39a.7.7,0,0,1,0,1.33c-.56.27-1.25-.3-.69-1.09.22-.33-.34-.82-.63-.51-.75.36-1.29.33-1.47-.39.25-.7.78-.85,1.72-.15.38,0,.5-.45.25-.61-.88-.51-.53-1.36,0-1.36.72,0,1.41.58.63,1.33-.22.3-.16.64.22.6,3.89-.33,2.32-2.78-1.16-3.63-6.21-1.54-4.08-6.84-1-7.35,4.2-.7,9,4.27,9.19,9.68a3.19,3.19,0,0,0,.53,0c-.31-4.21-1.38-7.38-3-9.68-2.17-.27-2.54-.54-2.76-.82l2.42.18A12.93,12.93,0,0,0,206.92,44c-2.95.06-4-.06-3.86-.27l3-.33A31.16,31.16,0,0,0,202.37,40a2.28,2.28,0,0,0-1.16,1.66c-.56-1.06-.41-1.88.75-2.39-2.16.09-2.13-.7-1.54-1.66,1.51-.64,1.82.21,2,1.27,1.6-1.15,2-.24,2.32.27a1,1,0,0,0-1.63.51l3.79,3.24L206.67,40l.25-.09c.28,1.27.5,2.51.69,3.69l1.57,1.66c-.31-2.06,0-2,.16-1.94a8,8,0,0,1,.34,2.72,21.5,21.5,0,0,1,2.89,10.08h.28c.06-.94.16-2,.13-2.94a18.37,18.37,0,0,0-.38-3.93c-.82-3.6-3.92-7.35-3.89-10.38,0-2.21,2.6-3.36,5-5,2.35,1.6,4.86,2.75,4.86,5,.06,3-3,6.78-3.89,10.38a20.68,20.68,0,0,0-.38,3.93c0,1,.06,2,.13,2.94a.91.91,0,0,0,.28,0,22.25,22.25,0,0,1,2.89-10,10,10,0,0,1,.34-2.72c.19,0,.47-.12.19,1.94l1.57-1.66c.19-1.18.41-2.42.69-3.69l.25.09-.22,2.91,3.8-3.24a1,1,0,0,0-1.63-.51c.31-.51.72-1.42,2.32-.27.13-1.06.47-1.91,2-1.27.56,1,.6,1.76-1.54,1.66,1.16.51,1.32,1.33.72,2.39A2.16,2.16,0,0,0,224.93,40a31.32,31.32,0,0,0-3.76,3.36l3.07.33c.16.21-.91.33-3.86.27a14.86,14.86,0,0,0-1.82,1.82l2.45-.18c-.22.27-.6.54-2.79.82a19.35,19.35,0,0,0-3,9.71,2.92,2.92,0,0,1,.53,0c.22-5.42,5-10.44,9.19-9.71,3.14.51,5.24,5.81-1,7.32-3.48.88-5,3.33-1.13,3.66.34,0,.44-.3.22-.6-.82-.76-.13-1.36.6-1.36s.91.88,0,1.39c-.25.15-.09.57.25.57,1-.67,1.51-.51,1.73.18-.16.73-.72.76-1.47.39-.28-.3-.82.18-.6.51.56.79-.16,1.36-.72,1.09a.71.71,0,0,1,0-1.33c.28-.18.19-.3-.09-.39-2.42-.06-3.11-.91-2.92-2.45.22-1.85,4-2.75,2.45-4.93-1.38-1.94-5.71.21-6,5.78,2.26.6,2.1,2.6-1.51,2.94-.47,3.33,6.68.36,7.65,3.27a3.43,3.43,0,0,1-1.22-.33c-.53.54-1.54.15-2.57-.7-.66-.24-.56.24.41,1.18a2.7,2.7,0,0,1-2-1.12,3.27,3.27,0,0,1-2.79-1.3c-.38,1.18.19,2.21,2.76,2.9,1.63.42,2.67,1.24,2.64,2.72A3.25,3.25,0,0,1,217.24,64l-.63,1.12c.06-1-1.51-.45-1.66-2l-.85-.39c-.69,1.82,2.23,3.12,1.29,4.9-.66,0-.63-1.18-1.47-1.66.41,1.66.41,2.91-.34,3.54v0h0Z"/><path class="cls-5" d="M103.32,97.13c-.75-.63-.75-1.91-.34-3.54-.85.45-.82,1.63-1.47,1.63-.94-1.79,2-3.06,1.25-4.9l-.82.39c-.16,1.57-1.72,1-1.66,2l-.66-1.15A3.1,3.1,0,0,1,97.2,93.5c-.06-1.48,1-2.27,2.63-2.69,2.57-.73,3.14-1.76,2.76-2.94a3.19,3.19,0,0,1-2.79,1.3,2.7,2.7,0,0,1-2,1.12c1-.94,1.07-1.42.38-1.15-1,.85-2,1.21-2.54.67a2.59,2.59,0,0,1-1.26.33c1-2.9,8.12.09,7.68-3.24-3.7-.39-3.76-2.45-1.35-3-.31-5.54-4.61-7.66-6-5.72-1.54,2.18,2.23,3.09,2.48,4.93.19,1.54-.53,2.39-2.95,2.42-.28.09-.38.21-.09.39a.72.72,0,0,1,0,1.36c-.56.24-1.25-.33-.69-1.12.22-.33-.34-.82-.63-.51-.75.36-1.29.33-1.47-.39.25-.67.75-.82,1.72-.15.38,0,.5-.45.25-.6-.88-.51-.53-1.36,0-1.36.72,0,1.41.57.63,1.33-.22.3-.16.67.22.61,3.89-.33,2.32-2.78-1.16-3.63-6.21-1.54-4.11-6.81-1-7.35,4.2-.7,9,4.27,9.19,9.71a3.18,3.18,0,0,1,.53,0c-.31-4.24-1.38-7.38-3-9.71-2.16-.27-2.57-.54-2.76-.82l2.42.18a15,15,0,0,0-1.79-1.82c-2.95.06-4-.06-3.86-.27l3-.33a30.72,30.72,0,0,0-3.73-3.33c-.72.27-.94.94-1.16,1.63-.56-1.06-.41-1.88.72-2.39-2.13.09-2.1-.7-1.51-1.66,1.51-.64,1.82.21,2,1.27,1.6-1.15,2-.24,2.32.27a1,1,0,0,0-1.63.54l3.79,3.21-.22-2.87.25-.12c.28,1.3.5,2.51.69,3.69L99,72.92c-.31-2,0-2,.16-1.94a9.13,9.13,0,0,1,.35,2.72,22,22,0,0,1,2.89,10.08.9.9,0,0,1,.28,0c.06-.94.16-2,.13-2.94a18.63,18.63,0,0,0-.38-4c-.82-3.6-3.92-7.35-3.89-10.38,0-2.21,2.6-3.36,5-5,2.38,1.6,4.86,2.75,4.89,5,0,3-3,6.78-3.89,10.38a21,21,0,0,0-.38,4c0,.94.06,2,.13,2.91h.28a22.37,22.37,0,0,1,2.89-10.08,10.3,10.3,0,0,1,.34-2.72c.19,0,.47-.09.19,1.94l1.57-1.66c.19-1.18.41-2.39.69-3.69l.22.12-.19,2.87L114,67.35a1,1,0,0,0-1.63-.54c.31-.51.75-1.42,2.35-.27.13-1.06.47-1.91,2-1.27.56,1,.6,1.76-1.54,1.66,1.16.51,1.32,1.33.72,2.39-.19-.7-.41-1.36-1.13-1.63A30.89,30.89,0,0,0,110.94,71l3.07.33c.16.21-.94.33-3.86.27a14.87,14.87,0,0,0-1.82,1.82l2.45-.18c-.22.27-.6.54-2.79.82a19.34,19.34,0,0,0-3,9.71c.19,0,.38,0,.53,0,.22-5.42,5-10.41,9.19-9.71,3.14.54,5.24,5.81-1,7.35-3.48.85-5,3.3-1.13,3.63.34.06.44-.3.22-.61-.82-.76-.13-1.36.6-1.33s.91.85,0,1.36c-.25.15-.09.57.25.6,1-.67,1.47-.51,1.72.15-.19.73-.72.76-1.47.39-.28-.3-.85.18-.63.51.6.79-.13,1.36-.69,1.12a.72.72,0,0,1,0-1.36c.28-.18.19-.3-.09-.39-2.41,0-3.14-.88-2.92-2.42.22-1.85,4-2.75,2.45-4.93-1.38-1.94-5.71.18-6,5.75,2.23.61,2.1,2.6-1.51,3-.47,3.33,6.68.33,7.65,3.24a2.68,2.68,0,0,1-1.25-.33c-.5.54-1.51.18-2.54-.67-.66-.27-.6.21.41,1.15a2.7,2.7,0,0,1-2-1.12,3.35,3.35,0,0,1-2.82-1.3c-.38,1.18.19,2.21,2.79,2.94,1.63.42,2.67,1.21,2.64,2.69A3.14,3.14,0,0,1,107,91.59l-.63,1.15c.06-1.06-1.54-.45-1.66-2l-.85-.39c-.69,1.85,2.23,3.12,1.29,4.9-.66,0-.63-1.18-1.47-1.63.41,1.63.38,2.91-.34,3.54Z"/><path class="cls-5" d="M250.29,97.13c-.75-.63-.78-1.91-.34-3.54-.88.45-.82,1.63-1.47,1.63-.94-1.79,1.94-3.06,1.25-4.9l-.85.39c-.13,1.57-1.69,1-1.66,2l-.63-1.15a3.14,3.14,0,0,1-2.45,1.91c0-1.48,1-2.27,2.67-2.69,2.57-.73,3.14-1.76,2.76-2.94a3.24,3.24,0,0,1-2.82,1.3,2.6,2.6,0,0,1-1.94,1.12c1-.94,1-1.42.38-1.15-1,.85-2,1.21-2.54.67a2.59,2.59,0,0,1-1.25.33c1-2.9,8.12.09,7.68-3.24-3.7-.39-3.76-2.45-1.35-3-.31-5.54-4.61-7.66-6-5.72-1.57,2.18,2.23,3.09,2.45,4.93.22,1.54-.5,2.39-2.92,2.42-.28.09-.38.21-.09.39a.72.72,0,0,1,0,1.36c-.56.24-1.29-.33-.72-1.12.22-.33-.31-.82-.6-.51-.75.36-1.29.33-1.47-.39.22-.67.75-.82,1.72-.15.34,0,.5-.45.25-.6-.88-.51-.56-1.36,0-1.36s1.41.57.6,1.33c-.22.3-.13.67.22.61,3.92-.33,2.35-2.78-1.13-3.63-6.21-1.54-4.11-6.81-1-7.35,4.2-.7,9,4.27,9.19,9.71a3,3,0,0,1,.53,0,19.35,19.35,0,0,0-3-9.71c-2.2-.27-2.57-.54-2.79-.82l2.45.18a14.9,14.9,0,0,0-1.82-1.82c-2.92.06-4-.06-3.83-.27l3-.33a30.91,30.91,0,0,0-3.76-3.33c-.72.27-.91.94-1.13,1.63-.6-1.06-.44-1.88.72-2.39-2.13.09-2.1-.7-1.54-1.66,1.51-.64,1.85.21,2,1.27,1.57-1.15,2-.24,2.32.27a1,1,0,0,0-1.63.54l3.76,3.21-.19-2.87.22-.12c.28,1.3.5,2.51.69,3.69l1.57,1.66c-.28-2,0-2,.19-1.94a10.31,10.31,0,0,1,.34,2.72,22.37,22.37,0,0,1,2.89,10.08.91.91,0,0,1,.28,0c.06-.94.16-2,.13-2.94a21,21,0,0,0-.38-4c-.85-3.6-3.92-7.35-3.89-10.38,0-2.21,2.6-3.36,5-5,2.35,1.6,4.86,2.75,4.89,5,0,3-3.07,6.78-3.89,10.38a18.65,18.65,0,0,0-.38,4c0,.94.06,2,.13,2.91h.28a22.37,22.37,0,0,1,2.89-10.08,9.16,9.16,0,0,1,.34-2.72c.19,0,.47-.09.19,1.94l1.54-1.66c.19-1.18.41-2.39.69-3.69l.25.12-.19,2.87,3.76-3.21a1,1,0,0,0-1.63-.54c.31-.51.72-1.42,2.32-.27.16-1.06.47-1.91,2-1.27.6,1,.63,1.76-1.51,1.66,1.16.51,1.29,1.33.72,2.39-.22-.7-.44-1.36-1.16-1.63A30.74,30.74,0,0,0,257.92,71l3,.33c.19.21-.91.33-3.86.27a14.86,14.86,0,0,0-1.79,1.82l2.41-.18c-.19.27-.6.54-2.76.82-1.66,2.33-2.73,5.48-3,9.71.19,0,.34,0,.53,0,.19-5.42,5-10.41,9.19-9.71,3.1.54,5.24,5.81-1,7.35-3.48.85-5.05,3.3-1.16,3.63.38.06.44-.3.22-.61-.78-.76-.09-1.36.63-1.33.56,0,.91.85,0,1.36-.25.15-.13.57.25.6.94-.67,1.47-.51,1.72.15-.19.73-.72.76-1.47.39-.28-.3-.85.18-.63.51.56.79-.13,1.36-.69,1.12a.72.72,0,0,1,0-1.36c.28-.18.19-.3-.06-.39-2.41,0-3.14-.88-2.95-2.42.25-1.85,4-2.75,2.48-4.93-1.38-1.94-5.71.18-6,5.75,2.23.61,2.1,2.6-1.54,3-.44,3.33,6.71.33,7.68,3.24a2.59,2.59,0,0,1-1.25-.33c-.53.54-1.51.18-2.54-.67-.66-.27-.6.21.38,1.15a2.65,2.65,0,0,1-1.94-1.12,3.32,3.32,0,0,1-2.82-1.3c-.38,1.18.19,2.21,2.76,2.94,1.66.42,2.7,1.21,2.67,2.69A3.14,3.14,0,0,1,254,91.59l-.63,1.15c0-1.06-1.54-.45-1.66-2l-.85-.39c-.69,1.85,2.23,3.12,1.25,4.9-.66,0-.6-1.18-1.47-1.63.44,1.63.41,2.91-.31,3.54Z"/><path class="cls-5" d="M29.88,96.77l-.13,0a2.68,2.68,0,0,1-.6-2.51l.16-.79-.16.15c-.38.51-.72,1.27-1.22,1.21-.85-1.54,1.22-2.84,1.32-4.3L29.19,90l-.63.3-.13.48c-.41,1.06-1.57.58-1.54,1.45l0,.48-.78-1.39-.47.7a3.2,3.2,0,0,1-1.95,1.09l-.13,0,0-.15c0-1.54,1.07-2.39,2.76-2.81,1.91-.51,2.64-1.21,2.76-2L29,87.63l-.6.54a3.18,3.18,0,0,1-1.44.64h-.63l-.5.48a2.34,2.34,0,0,1-1.51.64L24,90l.22-.21c.31-.33.5-.58.63-.73l.16-.3-.28,0-.72.54a2.24,2.24,0,0,1-1.41.39l-.44-.24-.69.24a3.6,3.6,0,0,1-.56.09l-.19,0,.06-.18c1-2.87,7.25-.27,7.69-2.66v-.45l-1.13-.21c-2.13-.57-2.45-2-1-2.69l.75-.27-.25-1.82c-1-4.08-4.42-5.24-5.49-3.75-1.6,2.21,2.2,2.69,2.48,4.84.19,1.42-.41,2.3-2.23,2.51l-.82.06-.16.09.13.12.38.24a.83.83,0,0,1-.38,1.27c-.69.3-1.47-.39-.85-1.27.22-.3-.31-.48-.44-.36-.78.39-1.44.39-1.66-.51a.83.83,0,0,1,1.22-.58l.63.33.22-.18,0-.21c-.94-.51-.69-1.54.09-1.57.56,0,1.19.36,1.07.94l-.38.61c-.22.3-.06.42.13.42,3.48-.3,2.32-2.57-1.16-3.42-6.37-1.6-4.2-7.05-1-7.56,3.76-.64,7.9,3.15,9,7.78L28,83.21l.31,0-.38-2.84a18.87,18.87,0,0,0-1.54-4.78l-1.1-1.88L24,73.49c-1.07-.21-1.35-.39-1.54-.63l-.16-.21,2.41.18L24,72l-.82-.76-1.66,0c-1.57,0-2.54-.12-2.23-.51l2.85-.3L20.44,68.8l-1.79-1.48-.38.24a2.74,2.74,0,0,0-.66,1.3l-.06.27-.16-.24a1.61,1.61,0,0,1,.06-2.06l.41-.27h-.34c-1.51-.12-1.47-.94-.88-1.88,1.26-.51,1.76-.09,2,.6l.13.57.41-.27a1.29,1.29,0,0,1,1.94.67l.22.39L21,66.41a1,1,0,0,0-1.29.15l-.16.27,3.51,3-.22-2.69.47-.18,0,.15L24,70.71,25.3,72.1l0-.3c-.16-1.33.06-1.45.47-1.36A7.21,7.21,0,0,1,26,71.86l.06,1.33,1.13,2.21a22.74,22.74,0,0,1,1.47,5.05L29,83.21l.13-2.81a20.36,20.36,0,0,0-.38-3.93C28,73,24.86,69.08,24.89,66.05c0-2.27,2.7-3.48,5-5.08L30,61C32.36,62.57,35,63.78,35,66.05c.06,3-3.07,6.93-3.86,10.41a18.19,18.19,0,0,0-.41,3.93l.19,2.78.31-2.72a21.2,21.2,0,0,1,1.47-5.05l1.1-2.21.06-1.33a5,5,0,0,1,.38-1.45c.31-.06.53.06.41,1.39l-.06.3,1.32-1.39.69-3.63,0-.15.44.18-.19,2.69,3.48-3-.13-.3a1,1,0,0,0-1.29-.12l-.41.24.25-.39c.28-.45.69-1.27,1.91-.67l.41.27.16-.57c.22-.7.75-1.12,2-.57.56.91.63,1.73-.88,1.85H42l.41.27a1.58,1.58,0,0,1,.06,2.06l-.13.24-.09-.27a2.73,2.73,0,0,0-.66-1.3l-.38-.24L39.42,68.8l-1.69,1.66,2.89.33c.31.36-.6.45-2.16.48l-1.73,0-.85.76-.72.82,2.38-.18-.16.21c-.19.24-.47.42-1.54.63l-1.25.18-1.1,1.88A18.87,18.87,0,0,0,32,80.33l-.38,2.88h.28l.28-1.88c1.13-4.63,5.27-8.44,9-7.81,3.23.51,5.4,6-.94,7.56-3.61.88-4.8,3.09-1.19,3.42.19,0,.34-.15.13-.42l-.38-.61c-.13-.57.53-.94,1.1-.94.75,0,1,1.06.09,1.57l-.06.21.22.18.63-.33a.82.82,0,0,1,1.22.64c-.19.85-.88.85-1.66.45-.13-.12-.63.06-.44.36.63.88-.16,1.57-.85,1.27a.83.83,0,0,1-.38-1.27l.38-.24.13-.12L39,85.18l-.82-.06C36.41,84.9,35.84,84,36,82.6c.28-2.15,4.08-2.63,2.48-4.84C37.41,76.28,34,77.43,33,81.51l-.28,1.88.72.27c1.35.76.94,2.09-1.16,2.66l-1.07.18V87c.41,2.3,6.65-.27,7.65,2.66l.06.15h-.19a5.28,5.28,0,0,1-.56-.09l-.66-.24-.47.24a2.29,2.29,0,0,1-1.41-.39l-.72-.54-.25,0,.13.3q.19.23.66.73l.22.21-.31,0a2.48,2.48,0,0,1-1.54-.64l-.47-.48H32.7a3.28,3.28,0,0,1-1.47-.64l-.56-.54-.06.61c.09.76.85,1.45,2.76,2,1.66.42,2.79,1.27,2.73,2.81v.15l-.13,0A3.27,3.27,0,0,1,34,92l-.44-.7-.78,1.39,0-.48c0-.94-1.16-.48-1.57-1.48l-.09-.45-.63-.3-.06.45c.09,1.42,2.16,2.75,1.25,4.39-.47,0-.78-.76-1.16-1.27l-.16-.15.16.82a2.66,2.66,0,0,1-.66,2.51Zm-.06-.45h0l.25-.33A4.62,4.62,0,0,0,30,93.13l-.13-.42.41.21c.75.39.82,1.12,1.07,1.45l.19.09.13-.42c0-1.39-2.2-2.33-1.44-4.27l.06-.21,1.16.54v.09c.09,1,1,1,1.44,1.42l0,.15.63-1.09.19.36a3,3,0,0,0,1.07,1.3l.91.36-.09-.61a3.09,3.09,0,0,0-2.35-1.6c-2.6-.73-3.33-1.82-2.89-3.15l.09-.33.25.24a3,3,0,0,0,2.6,1.24l.13,0,.09.09a2.84,2.84,0,0,0,.94.82l.25.06-.25-.33c-.22-.33-.19-.54-.06-.64l.25-.06-.82-.06c-1.72-.09-3.2-.33-3-2l0-.15.16,0c3.36-.33,3.42-2,1.47-2.54l-.16-.06v-.15c.28-5.42,4.71-8.2,6.37-5.87s-2.23,3.54-2.42,5.05.38,2.18,2.73,2.24c.38.09.69.42.19.76a.52.52,0,0,0-.06,1c.38.15.91-.18.47-.82a.75.75,0,0,1,.47-1l.38.15c.56.27.88.3,1.07.06l.13-.27-.16-.24c-.19-.24-.56-.24-1.25.24l-.09,0c-.47,0-.88-.67-.38-1,.78-.42.34-1,.06-1-.66,0-1,.45-.44,1,.22.33.28,1-.41.94-4.17-.36-2.48-3.15,1.13-4,5.93-1.48,4-6.48,1-7-4-.7-8.75,4.15-9,9.53v.21l-.22,0c-.16,0-.34,0-.53-.06h-.19v-.21c.34-4.24,1.41-7.44,3.07-9.8l.09-.06,1.38-.21.6-.15-2,.15.31-.36A13,13,0,0,1,36.53,71l.09-.06h2.67l-2.23-.27.25-.27A31.06,31.06,0,0,1,41.08,67l.09-.09.13.06a1.57,1.57,0,0,1,.85.76l.22.51.09-.21c.13-.64-.16-1.09-.91-1.45l-.47-.39c-.75-.54-1.16-.61-1.47-.48l-.22.21a1.14,1.14,0,0,1,1.29.85l0,.12-4.23,3.6.16-2.06-.47,2.36-2,2.24.09-.64c0-.36.06-.64.09-.85l0-.51-.19.82c0,.45-.06.91-.06,1.36a22.19,22.19,0,0,0-2.89,10v.18l-.66,0,0-.18c-.06-.94-.16-2-.13-2.94a21.32,21.32,0,0,1,.38-4c.88-3.78,4-7.29,3.89-10.35,0-1.54-1.35-2.54-3-3.63L30,61.33l-1.66,1.09c-1.72,1.09-3.07,2.09-3.11,3.63,0,3.06,3,6.54,3.89,10.35a18.93,18.93,0,0,1,.38,4c0,1-.06,2-.13,2.94v.21l-.66-.06,0-.18a22.09,22.09,0,0,0-2.85-10c0-.51,0-1-.09-1.42l-.16-.82v.51c0,.21.06.48.13.85l.06.64-2-2.24-.44-2.36.16,2.06-4.27-3.6,0-.12a1.24,1.24,0,0,1,1.29-.88l-.22-.18c-.28-.12-.72-.06-1.44.48l-.47.39c-.78.36-1.07.82-.91,1.45l.09.21.19-.51a1.64,1.64,0,0,1,.88-.76l.09-.06.09.09a29,29,0,0,1,3.8,3.36l.25.27L20.6,71h2.6l.13,0a13.45,13.45,0,0,1,1.85,1.85l.28.36-2-.15.63.15,1.32.21.09,0a19.11,19.11,0,0,1,3.1,9.83l0,.21h-.22c-.19,0-.34,0-.53,0l-.22,0v-.21c-.22-5.36-4.92-10.2-8.94-9.5-3,.48-5,5.48,1,7,3.73.91,5.36,3.66,1.13,4-.69.09-.63-.64-.41-.91.6-.61.22-1.06-.44-1.06-.28,0-.72.54.06,1,.5.3.13.94-.35,1h-.09c-.72-.51-1.07-.51-1.29-.27l-.13.24.09.27c.19.24.5.21,1.07-.06l.38-.15a.77.77,0,0,1,.5,1c-.47.64.06,1,.44.82a.51.51,0,0,0,0-1c-.53-.36-.25-.67.09-.79,2.38-.06,2.95-.85,2.79-2.24-.22-1.63-4.11-2.72-2.45-5.05s6.09.42,6.37,5.84v.15l-.16,0c-2.07.45-2.2,2.27,1.32,2.6l.16,0,0,.15c.25,1.79-1.47,2-3.32,2l-.38,0,.25.15a.58.58,0,0,1-.16.48l-.25.36.25-.06a2.84,2.84,0,0,0,.94-.82l.06-.09.13,0A3.08,3.08,0,0,0,29,87.26l.25-.24.09.33c.44,1.33-.28,2.42-2.92,3.15A3.21,3.21,0,0,0,24,92.1l-.09.61.91-.36A2.83,2.83,0,0,0,26,91l.19-.36.6,1.12.06-.12c.41-.39,1.35-.42,1.44-1.48v-.09l1.16-.54.06.21C30.16,91.59,28,92.68,28,94l.13.42.13-.09a2.51,2.51,0,0,1,1.1-1.45l.41-.21-.09.42A4.68,4.68,0,0,0,29.6,96l.22.33Zm-8.53-6.9h0l.16,0a2,2,0,0,0,.66-.24l.13-.06.13.09c.38.42,1.19.21,2.26-.67l.22-.06-.75,0a3.8,3.8,0,0,0-2.7.82l-.09.12Zm17.09,0h0l-.06-.12a2.68,2.68,0,0,0-1.88-.79l-1.76-.09.34.06c1.13.91,1.95,1.09,2.32.73l.13-.12.13.06a1.78,1.78,0,0,0,.66.24l.13,0ZM18.24,66.26h.28l0-.18c-.13-.79-.28-1.33-.91-1.3l-.72.18-.25.51c-.16.51.16.85,1.63.79Zm25-.79h0L43,65l-.75-.18c-.63,0-.78.51-.88,1.3l0,.18h.28c1.47.06,1.76-.27,1.6-.79Z"/><path class="cls-5" d="M176.82,96.77l-.09,0a2.76,2.76,0,0,1-.63-2.51l.16-.79-.16.15c-.38.51-.69,1.27-1.22,1.21-.82-1.54,1.25-2.84,1.35-4.3l-.06-.48-.66.3-.09.48c-.41,1.06-1.6.58-1.54,1.45l0,.48-.78-1.39-.47.7a3.2,3.2,0,0,1-1.94,1.09l-.16,0V93c0-1.54,1.07-2.39,2.73-2.81,1.91-.51,2.67-1.21,2.79-2l-.06-.61-.6.54a3.18,3.18,0,0,1-1.44.64h-.63l-.5.48a2.4,2.4,0,0,1-1.51.64L171,90l.22-.21c.31-.33.5-.58.63-.73l.16-.3-.28,0-.72.54a2.24,2.24,0,0,1-1.41.39l-.44-.24-.69.24a4.27,4.27,0,0,1-.57.09l-.19,0,.06-.18c1-2.87,7.25-.27,7.65-2.66v-.45l-1.1-.21c-2.13-.57-2.48-2-1-2.69l.75-.27-.25-1.82c-1.07-4.08-4.42-5.24-5.49-3.75-1.6,2.21,2.2,2.69,2.48,4.84.16,1.42-.41,2.3-2.23,2.51l-.82.06-.16.09.13.12.38.24a.83.83,0,0,1-.38,1.27c-.69.3-1.47-.39-.85-1.27.19-.3-.31-.48-.44-.36-.78.39-1.47.39-1.66-.51a.82.82,0,0,1,1.22-.58l.63.33.22-.18-.06-.21c-.91-.51-.66-1.54.09-1.57.6,0,1.22.36,1.1.94l-.38.61c-.22.3-.06.42.09.42,3.51-.3,2.35-2.57-1.16-3.42-6.34-1.6-4.17-7.05-.94-7.56,3.76-.64,7.9,3.15,9,7.78l.28,1.91.28,0-.35-2.84a18.89,18.89,0,0,0-1.54-4.78l-1.1-1.88L171,73.49c-1.07-.21-1.35-.39-1.54-.63l-.16-.21,2.38.18L171,72l-.85-.76-1.63,0c-1.57,0-2.54-.12-2.23-.51l2.85-.3-1.69-1.66-1.79-1.48-.38.24a2.73,2.73,0,0,0-.66,1.3l-.06.27-.16-.24a1.61,1.61,0,0,1,.06-2.06l.41-.27h-.38c-1.47-.12-1.44-.94-.85-1.88,1.22-.51,1.76-.09,2,.6l.16.57.41-.27a1.29,1.29,0,0,1,1.94.67l.22.39-.41-.24a.94.94,0,0,0-1.25.15l-.16.27,3.48,3-.19-2.69.47-.18,0,.15.69,3.63,1.29,1.39,0-.3c-.16-1.33.06-1.45.47-1.36a10.4,10.4,0,0,1,.28,1.42l.06,1.33,1.13,2.21a21.16,21.16,0,0,1,1.44,5.05l.34,2.75.16-2.81a20.44,20.44,0,0,0-.38-3.93c-.82-3.48-3.92-7.38-3.89-10.41,0-2.27,2.7-3.48,5.05-5.08l.09,0c2.32,1.57,4.89,2.78,4.92,5.05.06,3-3.07,6.93-3.89,10.41a20.41,20.41,0,0,0-.38,3.93l.19,2.78.31-2.72a21.17,21.17,0,0,1,1.44-5.05l1.13-2.21.06-1.33a6.07,6.07,0,0,1,.34-1.45c.34-.06.56.06.41,1.39l0,.3,1.29-1.39.69-3.63,0-.15.47.18-.19,2.69,3.48-3-.16-.3a1,1,0,0,0-1.25-.12l-.41.24.25-.39a1.25,1.25,0,0,1,1.91-.67l.41.27.13-.57c.25-.7.78-1.12,2-.57.56.91.6,1.73-.88,1.85H189l.41.27a1.61,1.61,0,0,1,.06,2.06l-.16.24-.06-.27a2.73,2.73,0,0,0-.66-1.3l-.38-.24-1.79,1.48-1.69,1.66,2.89.33c.28.36-.6.45-2.16.48l-1.73,0-.85.76-.75.82,2.42-.18-.16.21c-.19.24-.47.42-1.54.63l-1.25.18-1.1,1.88a18.85,18.85,0,0,0-1.54,4.78l-.34,2.88h.28l.28-1.88c1.1-4.63,5.27-8.44,9-7.81,3.23.51,5.4,6-1,7.56-3.61.88-4.77,3.09-1.16,3.42.19,0,.34-.15.13-.42l-.38-.61c-.13-.57.5-.94,1.07-.94.78,0,1,1.06.13,1.57l-.06.21.22.18.63-.33q.9-.36,1.22.64c-.19.85-.88.85-1.66.45-.13-.12-.66.06-.44.36.63.88-.16,1.57-.85,1.27a.83.83,0,0,1-.38-1.27l.38-.24.13-.12-.16-.09-.82-.06c-1.82-.21-2.42-1.09-2.23-2.51.28-2.15,4.08-2.63,2.48-4.84-1.07-1.48-4.45-.33-5.49,3.75l-.28,1.88.72.27c1.35.76.94,2.09-1.16,2.66l-1.07.18V87c.41,2.3,6.65-.27,7.65,2.66l.06.15h-.19a5.28,5.28,0,0,1-.56-.09l-.66-.24-.47.24a2.24,2.24,0,0,1-1.41-.39l-.72-.54-.25,0,.13.3a7.59,7.59,0,0,0,.66.73l.22.21-.31,0a2.48,2.48,0,0,1-1.54-.64l-.47-.48h-.63a3.28,3.28,0,0,1-1.47-.64l-.56-.54-.06.61c.09.76.85,1.45,2.76,2,1.66.42,2.76,1.27,2.73,2.81v.15l-.16,0A3.2,3.2,0,0,1,181,92l-.44-.7-.78,1.39v-.48c.06-.94-1.13-.48-1.54-1.48l-.09-.45-.66-.3-.06.45c.13,1.42,2.2,2.75,1.29,4.39-.47,0-.78-.76-1.16-1.27l-.16-.15.16.82a2.66,2.66,0,0,1-.69,2.51Zm0-.45h0L177,96a4.62,4.62,0,0,0-.06-2.84l-.13-.42.41.21c.75.39.82,1.12,1.07,1.45l.19.09.13-.42c0-1.39-2.2-2.33-1.48-4.27l.09-.21,1.13.54,0,.09c.09,1,1,1,1.44,1.42l0,.15.63-1.09.16.36a3.25,3.25,0,0,0,1.1,1.3l.91.36-.09-.61a3.09,3.09,0,0,0-2.35-1.6c-2.6-.73-3.33-1.82-2.92-3.15l.13-.33.22.24a3.11,3.11,0,0,0,2.63,1.24l.13,0,.06.09a3.63,3.63,0,0,0,.94.82l.25.06-.25-.33c-.19-.33-.16-.54,0-.64l.25-.06-.85-.06c-1.73-.09-3.2-.33-2.95-2v-.15l.16,0c3.39-.33,3.45-2,1.47-2.54l-.16-.06,0-.15c.28-5.42,4.71-8.2,6.37-5.87s-2.26,3.54-2.45,5.05.41,2.18,2.76,2.24c.38.09.69.42.16.76a.53.53,0,0,0,0,1c.38.15.91-.18.44-.82a.77.77,0,0,1,.5-1l.38.15c.56.27.88.3,1.07.06l.09-.27-.13-.24c-.22-.24-.56-.24-1.25.24l-.09,0c-.47,0-.88-.67-.38-1,.78-.42.34-1,.06-1-.66,0-1,.45-.44,1,.22.33.28,1-.41.94-4.17-.36-2.48-3.15,1.13-4,5.93-1.48,4-6.48,1-7-4-.7-8.72,4.15-8.94,9.53v.21l-.22,0-.53-.06h-.22l0-.21c.34-4.24,1.41-7.44,3.07-9.8l.09-.06,1.38-.21.6-.15-2,.15.28-.36A14.9,14.9,0,0,1,183.5,71l.09-.06h2.64L184,70.68l.28-.27A27,27,0,0,1,188.05,67l.09-.09.09.06a1.54,1.54,0,0,1,.88.76l.22.51.06-.21c.16-.64-.13-1.09-.88-1.45l-.47-.39c-.75-.54-1.19-.61-1.47-.48l-.22.21a1.16,1.16,0,0,1,1.29.85l0,.12-4.24,3.6.13-2.06-.44,2.36-2,2.24.09-.64c0-.36.06-.64.09-.85l0-.51-.19.82c0,.45-.06.91-.06,1.36a22.19,22.19,0,0,0-2.89,10v.18l-.69,0v-.18c-.06-.94-.16-2-.13-2.94a21.27,21.27,0,0,1,.38-4c.88-3.78,3.92-7.29,3.89-10.35,0-1.54-1.35-2.54-3-3.63l-1.63-1.09-1.69,1.09c-1.69,1.09-3,2.09-3.07,3.63,0,3.06,3,6.54,3.89,10.35a18.93,18.93,0,0,1,.38,4c0,1-.06,2-.13,2.94v.21l-.69-.06V83.3a22.09,22.09,0,0,0-2.85-10c0-.51-.06-1-.09-1.42l-.19-.82,0,.51c0,.21.06.48.09.85l.09.64-2-2.24-.44-2.36.13,2.06-4.23-3.6,0-.12a1.21,1.21,0,0,1,1.29-.88l-.22-.18c-.28-.12-.72-.06-1.44.48l-.47.39c-.78.36-1.07.82-.94,1.45l.09.21.22-.51a1.54,1.54,0,0,1,.88-.76l.09-.06.09.09a27,27,0,0,1,3.76,3.36l.28.27-2.23.27h2.6l.09,0a15.34,15.34,0,0,1,1.88,1.85l.28.36-2-.15.6.15,1.32.21.13,0c1.69,2.39,2.76,5.6,3.1,9.83l0,.21h-.22c-.19,0-.38,0-.53,0l-.22,0v-.21c-.22-5.36-4.92-10.2-9-9.5-2.95.48-4.92,5.48,1,7,3.7.91,5.36,3.66,1.13,4-.72.09-.63-.64-.41-.91.6-.61.22-1.06-.44-1.06-.28,0-.72.54.06,1,.5.3.09.94-.34,1h-.09c-.72-.51-1.1-.51-1.29-.27l-.16.24.13.27c.19.24.5.21,1.07-.06l.38-.15a.8.8,0,0,1,.5,1c-.47.64.06,1,.44.82a.51.51,0,0,0,0-1c-.53-.36-.28-.67.06-.79,2.42-.06,3-.85,2.82-2.24-.22-1.63-4.11-2.72-2.45-5.05s6.09.42,6.37,5.84v.15l-.16,0c-2.07.45-2.2,2.27,1.32,2.6l.16,0,0,.15c.22,1.79-1.47,2-3.32,2l-.38,0,.22.15a.65.65,0,0,1-.13.48l-.25.36.25-.06a3.62,3.62,0,0,0,.94-.82l.06-.09.13,0a3.11,3.11,0,0,0,2.64-1.24l.25-.24.09.33c.41,1.33-.31,2.42-2.92,3.15A3.09,3.09,0,0,0,171,92.1l-.09.61.91-.36a3,3,0,0,0,1.1-1.3l.16-.36.63,1.12.06-.12c.41-.39,1.35-.42,1.44-1.48v-.09l1.16-.54.06.21c.69,1.82-1.51,2.91-1.44,4.27l.09.42.16-.09a2.52,2.52,0,0,1,1.1-1.45l.41-.21-.09.42a4.68,4.68,0,0,0-.09,2.84l.22.33Zm-8.53-6.9h0l.16,0a1.67,1.67,0,0,0,.63-.24l.16-.06.09.09c.38.42,1.22.21,2.29-.67l.22-.06-.75,0a3.94,3.94,0,0,0-2.73.82l-.06.12Zm17.09,0h0l-.06-.12a2.75,2.75,0,0,0-1.88-.79l-1.76-.09.34.06c1.1.91,1.94,1.09,2.32.73l.09-.12.16.06a1.88,1.88,0,0,0,.63.24l.16,0ZM165.22,66.26h.25v-.18c-.13-.79-.28-1.33-.91-1.3l-.72.18-.25.51c-.16.51.13.85,1.63.79Zm25-.79h0L190,65l-.72-.18c-.63,0-.78.51-.91,1.3v.18h.28c1.47.06,1.76-.27,1.6-.79Z"/><path class="cls-5" d="M30,42.51c-.75-.63-.75-1.91-.34-3.54-.85.45-.82,1.63-1.47,1.63-.94-1.79,2-3.06,1.25-4.9l-.82.39c-.16,1.57-1.72,1-1.66,2L26.29,37a3.1,3.1,0,0,1-2.42,1.91c-.06-1.48,1-2.27,2.63-2.69,2.57-.73,3.14-1.76,2.76-2.94a3.19,3.19,0,0,1-2.79,1.3,2.7,2.7,0,0,1-2,1.12c1-.94,1.07-1.42.38-1.15-1,.85-2,1.21-2.54.67a2.59,2.59,0,0,1-1.26.33c1-2.9,8.12.09,7.68-3.24-3.7-.39-3.76-2.45-1.35-3-.31-5.54-4.61-7.66-6-5.72-1.54,2.18,2.23,3.09,2.48,4.93.19,1.54-.53,2.39-2.95,2.42-.28.09-.38.21-.09.39a.72.72,0,0,1,0,1.36c-.56.24-1.25-.33-.69-1.12.22-.33-.34-.82-.63-.51-.75.36-1.29.33-1.47-.39.25-.67.75-.82,1.72-.15.38,0,.5-.45.25-.6-.88-.51-.53-1.36,0-1.36.72,0,1.41.57.63,1.33-.22.3-.16.67.22.61,3.89-.33,2.32-2.78-1.16-3.63-6.21-1.54-4.11-6.81-1-7.35,4.2-.7,9,4.27,9.19,9.71a3.19,3.19,0,0,1,.53,0c-.31-4.24-1.38-7.38-3-9.71-2.16-.27-2.57-.54-2.76-.82l2.42.18A15,15,0,0,0,23.37,17c-2.95.06-4-.06-3.86-.27l3-.33a30.72,30.72,0,0,0-3.73-3.33c-.72.27-.94.94-1.16,1.63-.56-1.06-.41-1.88.72-2.39-2.13.09-2.1-.7-1.51-1.66,1.51-.64,1.82.21,2,1.27,1.6-1.15,2-.24,2.32.27a1,1,0,0,0-1.63.54l3.79,3.21-.22-2.87.25-.12c.28,1.3.5,2.51.69,3.69l1.57,1.66c-.31-2,0-2,.16-1.94a9.13,9.13,0,0,1,.34,2.72A22,22,0,0,1,29,29.17a.91.91,0,0,1,.28,0c.06-.94.16-2,.13-2.94a18.63,18.63,0,0,0-.38-4c-.82-3.6-3.92-7.35-3.89-10.38,0-2.21,2.6-3.36,5-5,2.38,1.6,4.86,2.75,4.89,5,0,3-3,6.78-3.89,10.38a21,21,0,0,0-.38,4c0,.94.06,2,.13,2.91h.28A22.37,22.37,0,0,1,34,19.09a10.3,10.3,0,0,1,.34-2.72c.19,0,.47-.09.19,1.94l1.57-1.66c.19-1.18.41-2.39.69-3.69l.22.12-.19,2.87,3.76-3.21A1,1,0,0,0,39,12.19c.31-.51.75-1.42,2.35-.27.13-1.06.47-1.91,2-1.27.56,1,.6,1.76-1.54,1.66,1.16.51,1.32,1.33.72,2.39-.19-.7-.41-1.36-1.13-1.63a30.89,30.89,0,0,0-3.76,3.33l3.07.33c.16.21-.94.33-3.86.27A14.88,14.88,0,0,0,35,18.82l2.45-.18c-.22.27-.6.54-2.79.82a19.34,19.34,0,0,0-3,9.71c.19,0,.38,0,.53,0,.22-5.42,5-10.41,9.19-9.71,3.14.54,5.24,5.81-1,7.35-3.48.85-5,3.3-1.13,3.63.34.06.44-.3.22-.61-.82-.76-.13-1.36.6-1.33s.91.85,0,1.36c-.25.15-.09.57.25.6,1-.67,1.47-.51,1.72.15-.19.73-.72.76-1.47.39-.28-.3-.85.18-.63.51.6.79-.13,1.36-.69,1.12a.72.72,0,0,1,0-1.36c.28-.18.19-.3-.09-.39-2.41,0-3.14-.88-2.92-2.42.22-1.85,4-2.75,2.45-4.93-1.38-1.94-5.71.18-6,5.75,2.23.61,2.1,2.6-1.51,3-.47,3.33,6.68.33,7.65,3.24a2.68,2.68,0,0,1-1.25-.33c-.5.54-1.51.18-2.54-.67-.66-.27-.6.21.41,1.15a2.7,2.7,0,0,1-2-1.12,3.35,3.35,0,0,1-2.82-1.3c-.38,1.18.19,2.21,2.79,2.94,1.63.42,2.67,1.21,2.64,2.69A3.14,3.14,0,0,1,33.69,37l-.63,1.15c.06-1.06-1.54-.45-1.66-2l-.85-.39c-.69,1.85,2.23,3.12,1.29,4.9-.66,0-.63-1.18-1.47-1.63.41,1.63.38,2.91-.34,3.54Z"/><path class="cls-5" d="M177,42.51c-.75-.63-.78-1.91-.34-3.54-.88.45-.82,1.63-1.47,1.63-.94-1.79,1.94-3.06,1.25-4.9l-.85.39c-.13,1.57-1.69,1-1.66,2L173.26,37a3.14,3.14,0,0,1-2.45,1.91c0-1.48,1-2.27,2.67-2.69,2.57-.73,3.14-1.76,2.76-2.94a3.24,3.24,0,0,1-2.82,1.3,2.6,2.6,0,0,1-1.94,1.12c1-.94,1-1.42.38-1.15-1,.85-2,1.21-2.54.67a2.59,2.59,0,0,1-1.25.33c1-2.9,8.12.09,7.68-3.24-3.7-.39-3.76-2.45-1.35-3-.31-5.54-4.61-7.66-6-5.72-1.57,2.18,2.23,3.09,2.45,4.93.22,1.54-.5,2.39-2.92,2.42-.28.09-.38.21-.09.39a.72.72,0,0,1,0,1.36c-.56.24-1.29-.33-.72-1.12.22-.33-.31-.82-.6-.51-.75.36-1.29.33-1.47-.39.22-.67.75-.82,1.72-.15.34,0,.5-.45.25-.6-.88-.51-.56-1.36,0-1.36s1.41.57.6,1.33c-.22.3-.13.67.22.61,3.92-.33,2.35-2.78-1.13-3.63-6.21-1.54-4.11-6.81-1-7.35,4.2-.7,9,4.27,9.19,9.71a3,3,0,0,1,.53,0,19.35,19.35,0,0,0-3-9.71c-2.2-.27-2.57-.54-2.79-.82l2.45.18A14.9,14.9,0,0,0,170.31,17c-2.92.06-4-.06-3.83-.27l3-.33a30.91,30.91,0,0,0-3.76-3.33c-.72.27-.91.94-1.13,1.63-.6-1.06-.44-1.88.72-2.39-2.13.09-2.1-.7-1.54-1.66,1.51-.64,1.85.21,2,1.27,1.57-1.15,2-.24,2.32.27a1,1,0,0,0-1.63.54l3.76,3.21-.19-2.87.22-.12c.28,1.3.5,2.51.69,3.69l1.57,1.66c-.28-2,0-2,.19-1.94a10.31,10.31,0,0,1,.34,2.72A22.37,22.37,0,0,1,176,29.17a.91.91,0,0,1,.28,0c.06-.94.16-2,.13-2.94a21,21,0,0,0-.38-4c-.85-3.6-3.92-7.35-3.89-10.38,0-2.21,2.6-3.36,5-5,2.35,1.6,4.86,2.75,4.89,5,0,3-3.07,6.78-3.89,10.38a18.64,18.64,0,0,0-.38,4c0,.94.06,2,.13,2.91h.28A22.37,22.37,0,0,1,181,19.09a9.16,9.16,0,0,1,.34-2.72c.19,0,.47-.09.19,1.94l1.54-1.66c.19-1.18.41-2.39.69-3.69l.25.12-.19,2.87,3.76-3.21a1,1,0,0,0-1.63-.54c.31-.51.72-1.42,2.32-.27.16-1.06.47-1.91,2-1.27.6,1,.63,1.76-1.51,1.66,1.16.51,1.29,1.33.72,2.39-.22-.7-.44-1.36-1.16-1.63a30.74,30.74,0,0,0-3.73,3.33l3,.33c.19.21-.91.33-3.86.27A14.86,14.86,0,0,0,182,18.82l2.41-.18c-.19.27-.6.54-2.76.82-1.66,2.33-2.73,5.48-3,9.71.19,0,.34,0,.53,0,.19-5.42,5-10.41,9.19-9.71,3.1.54,5.24,5.81-1,7.35-3.48.85-5.05,3.3-1.16,3.63.38.06.44-.3.22-.61-.78-.76-.09-1.36.63-1.33.56,0,.91.85,0,1.36-.25.15-.13.57.25.6.94-.67,1.47-.51,1.72.15-.19.73-.72.76-1.47.39-.28-.3-.85.18-.63.51.56.79-.13,1.36-.69,1.12a.72.72,0,0,1,0-1.36c.28-.18.19-.3-.06-.39-2.41,0-3.14-.88-2.95-2.42.25-1.85,4-2.75,2.48-4.93-1.38-1.94-5.71.18-6,5.75,2.23.61,2.1,2.6-1.54,3-.44,3.33,6.71.33,7.68,3.24a2.59,2.59,0,0,1-1.25-.33c-.53.54-1.51.18-2.54-.67-.66-.27-.6.21.38,1.15a2.65,2.65,0,0,1-1.94-1.12,3.32,3.32,0,0,1-2.82-1.3c-.38,1.18.19,2.21,2.76,2.94,1.66.42,2.7,1.21,2.67,2.69A3.14,3.14,0,0,1,180.66,37L180,38.13c0-1.06-1.54-.45-1.66-2l-.85-.39c-.69,1.85,2.23,3.12,1.25,4.9-.66,0-.6-1.18-1.47-1.63.44,1.63.41,2.91-.31,3.54Z"/><path class="cls-5" d="M250.21,42.15l-.13,0a2.68,2.68,0,0,1-.6-2.51l.16-.79-.16.15c-.38.51-.72,1.27-1.22,1.21-.85-1.54,1.22-2.84,1.32-4.3l-.06-.48-.63.3-.13.48c-.41,1.06-1.57.58-1.54,1.45l0,.48-.78-1.39-.47.7a3.2,3.2,0,0,1-1.95,1.09l-.13,0,0-.15c0-1.54,1.07-2.39,2.76-2.81,1.91-.51,2.64-1.21,2.76-2l-.06-.61-.6.54a3.18,3.18,0,0,1-1.44.64h-.63l-.5.48a2.34,2.34,0,0,1-1.51.64l-.31,0,.22-.21c.31-.33.5-.58.63-.73l.16-.3-.28,0-.72.54a2.24,2.24,0,0,1-1.41.39l-.44-.24-.69.24a3.61,3.61,0,0,1-.56.09l-.19,0,.06-.18c1-2.87,7.25-.27,7.69-2.66v-.45l-1.13-.21c-2.13-.57-2.45-2-1-2.69l.75-.27-.25-1.82c-1-4.08-4.42-5.24-5.49-3.75-1.6,2.21,2.2,2.69,2.48,4.84.19,1.42-.41,2.3-2.23,2.51l-.82.06-.16.09.13.12.38.24a.83.83,0,0,1-.38,1.27c-.69.3-1.47-.39-.85-1.27.22-.3-.31-.48-.44-.36-.78.39-1.44.39-1.66-.51a.83.83,0,0,1,1.22-.58l.63.33.22-.18,0-.21c-.94-.51-.69-1.54.09-1.57.56,0,1.19.36,1.07.94l-.38.61c-.22.3-.06.42.13.42,3.48-.3,2.32-2.57-1.16-3.42-6.37-1.6-4.2-7.05-1-7.56,3.76-.64,7.9,3.15,9,7.78l.28,1.91.31,0-.38-2.84a18.87,18.87,0,0,0-1.54-4.78l-1.1-1.88-1.25-.18c-1.07-.21-1.35-.39-1.54-.63l-.16-.21,2.41.18-.75-.82-.82-.76-1.66,0c-1.57,0-2.54-.12-2.23-.51l2.85-.3-1.69-1.66L239,12.71l-.38.24a2.74,2.74,0,0,0-.66,1.3l-.06.27-.16-.24a1.61,1.61,0,0,1,.06-2.06l.41-.27h-.34c-1.51-.12-1.47-.94-.88-1.88,1.26-.51,1.76-.09,2,.6l.13.57.41-.27a1.29,1.29,0,0,1,1.94.67l.22.39-.38-.24A1,1,0,0,0,240,12l-.16.27,3.51,3-.22-2.69.47-.18,0,.15.69,3.63,1.29,1.39,0-.3c-.16-1.33.06-1.45.47-1.36a7.21,7.21,0,0,1,.28,1.42l.06,1.33,1.13,2.21A22.74,22.74,0,0,1,249,25.84l.34,2.75.13-2.81a20.36,20.36,0,0,0-.38-3.93c-.82-3.48-3.92-7.38-3.89-10.41,0-2.27,2.7-3.48,5-5.08l.09,0c2.32,1.57,4.92,2.78,4.92,5.05.06,3-3.07,6.93-3.86,10.41a18.19,18.19,0,0,0-.41,3.93l.19,2.78.31-2.72A21.2,21.2,0,0,1,253,20.79l1.1-2.21.06-1.33a5,5,0,0,1,.38-1.45c.31-.06.53.06.41,1.39l-.06.3,1.32-1.39.69-3.63,0-.15.44.18-.19,2.69,3.48-3-.13-.3a1,1,0,0,0-1.29-.12l-.41.24.25-.39c.28-.45.69-1.27,1.91-.67l.41.27.16-.57c.22-.7.75-1.12,2-.57.56.91.63,1.73-.88,1.85h-.38l.41.27a1.58,1.58,0,0,1,.06,2.06l-.13.24-.09-.27a2.73,2.73,0,0,0-.66-1.3l-.38-.24-1.79,1.48-1.69,1.66,2.89.33c.31.36-.6.45-2.16.48l-1.73,0-.85.76-.72.82,2.38-.18-.16.21c-.19.24-.47.42-1.54.63l-1.25.18-1.1,1.88a18.87,18.87,0,0,0-1.51,4.78l-.38,2.88h.28l.28-1.88c1.13-4.63,5.27-8.44,9-7.81,3.23.51,5.4,6-.94,7.56-3.61.88-4.8,3.09-1.19,3.42.19,0,.35-.15.13-.42l-.38-.61c-.13-.57.53-.94,1.1-.94.75,0,1,1.06.09,1.57l-.06.21.22.18.63-.33a.82.82,0,0,1,1.22.64c-.19.85-.88.85-1.66.45-.13-.12-.63.06-.44.36.63.88-.16,1.57-.85,1.27A.83.83,0,0,1,259,31l.38-.24.13-.12-.16-.09-.82-.06c-1.82-.21-2.38-1.09-2.23-2.51.28-2.15,4.08-2.63,2.48-4.84-1.07-1.48-4.45-.33-5.49,3.75L253,28.77l.72.27c1.35.76.94,2.09-1.16,2.66l-1.07.18v.45c.41,2.3,6.65-.27,7.65,2.66l.06.15h-.19a5.31,5.31,0,0,1-.56-.09l-.66-.24-.47.24a2.29,2.29,0,0,1-1.41-.39l-.72-.54-.25,0,.13.3q.19.23.66.73l.22.21-.31,0a2.48,2.48,0,0,1-1.54-.64l-.47-.48H253a3.28,3.28,0,0,1-1.47-.64L251,33l-.06.61c.09.76.85,1.45,2.76,2,1.66.42,2.79,1.27,2.73,2.81v.15l-.13,0a3.27,3.27,0,0,1-2-1.09l-.44-.7-.78,1.39,0-.48c0-.94-1.16-.48-1.57-1.48l-.09-.45-.63-.3-.06.45c.09,1.42,2.16,2.75,1.25,4.39-.47,0-.78-.76-1.16-1.27l-.16-.15.16.82a2.66,2.66,0,0,1-.66,2.51Zm-.06-.45h0l.25-.33a4.62,4.62,0,0,0-.06-2.84l-.13-.42.41.21c.75.39.82,1.12,1.07,1.45l.19.09.13-.42c0-1.39-2.2-2.33-1.44-4.27l.06-.21,1.16.54v.09c.09,1,1,1,1.44,1.42l0,.15.63-1.09.19.36a3,3,0,0,0,1.07,1.3l.91.36-.09-.61a3.09,3.09,0,0,0-2.35-1.6c-2.6-.73-3.33-1.82-2.89-3.15l.09-.33.25.24a3,3,0,0,0,2.6,1.24l.13,0,.09.09a2.84,2.84,0,0,0,.94.82l.25.06-.25-.33c-.22-.33-.19-.54-.06-.64l.25-.06-.82-.06c-1.72-.09-3.2-.33-3-2l0-.15.16,0c3.36-.33,3.42-2,1.47-2.54l-.16-.06v-.15c.28-5.42,4.71-8.2,6.37-5.87s-2.23,3.54-2.42,5.05.38,2.18,2.73,2.24c.38.09.69.42.19.76a.52.52,0,0,0-.06,1c.38.15.91-.18.47-.82a.75.75,0,0,1,.47-1l.38.15c.56.27.88.3,1.07.06l.13-.27-.16-.24c-.19-.24-.56-.24-1.25.24l-.09,0c-.47,0-.88-.67-.38-1,.78-.42.34-1,.06-1-.66,0-1,.45-.44,1,.22.33.28,1-.41.94-4.17-.36-2.48-3.15,1.13-4,5.93-1.48,4-6.48,1-7-4-.7-8.75,4.15-9,9.53V29l-.22,0c-.16,0-.34,0-.53-.06h-.19v-.21c.34-4.24,1.41-7.44,3.07-9.8l.09-.06,1.38-.21.6-.15-2,.15.31-.36a13,13,0,0,1,1.82-1.82l.09-.06h2.67l-2.23-.27.25-.27a31.06,31.06,0,0,1,3.76-3.36l.09-.09.13.06a1.57,1.57,0,0,1,.85.76l.22.51.09-.21c.13-.64-.16-1.09-.91-1.45l-.47-.39c-.75-.54-1.16-.61-1.47-.48l-.22.21a1.14,1.14,0,0,1,1.29.85l0,.12-4.23,3.6.16-2.06-.47,2.36-2,2.24.09-.64c0-.36.06-.64.09-.85l0-.51-.19.82c0,.45-.06.91-.06,1.36a22.19,22.19,0,0,0-2.89,10v.18l-.66,0,0-.18c-.06-.94-.16-2-.13-2.94a21.32,21.32,0,0,1,.38-4C252,18,255,14.49,255,11.44c0-1.54-1.35-2.54-3-3.63l-1.66-1.09L248.65,7.8c-1.72,1.09-3.07,2.09-3.11,3.63,0,3.06,3,6.54,3.89,10.35a18.93,18.93,0,0,1,.38,4c0,1-.06,2-.13,2.94v.21l-.66-.06,0-.18a22.09,22.09,0,0,0-2.85-10c0-.51,0-1-.09-1.42l-.16-.82V17c0,.21.06.48.13.85l.06.64-2-2.24-.44-2.36.16,2.06-4.27-3.6,0-.12a1.24,1.24,0,0,1,1.29-.88l-.22-.18c-.28-.12-.72-.06-1.44.48l-.47.39c-.78.36-1.07.82-.91,1.45l.09.21.19-.51a1.64,1.64,0,0,1,.88-.76l.09-.06.09.09a29,29,0,0,1,3.8,3.36l.25.27-2.23.27h2.6l.13,0a13.45,13.45,0,0,1,1.85,1.85l.28.36-2-.15.63.15,1.32.21.09,0a19.11,19.11,0,0,1,3.1,9.83l0,.21h-.22c-.19,0-.34,0-.53,0l-.22,0v-.21c-.22-5.36-4.92-10.2-8.94-9.5-3,.48-5,5.48,1,7,3.73.91,5.36,3.66,1.13,4-.69.09-.63-.64-.41-.91.6-.61.22-1.06-.44-1.06-.28,0-.72.54.06,1,.5.3.13.94-.35,1h-.09c-.72-.51-1.07-.51-1.29-.27l-.13.24.09.27c.19.24.5.21,1.07-.06l.38-.15a.77.77,0,0,1,.5,1c-.47.64.06,1,.44.82a.51.51,0,0,0,0-1c-.53-.36-.25-.67.09-.79,2.38-.06,2.95-.85,2.79-2.24-.22-1.63-4.11-2.72-2.45-5.05s6.09.42,6.37,5.84V29l-.16,0c-2.07.45-2.2,2.27,1.32,2.6l.16,0,0,.15c.25,1.78-1.47,2-3.32,2l-.38,0,.25.15a.58.58,0,0,1-.16.48l-.25.36.25-.06a2.84,2.84,0,0,0,.94-.82l.06-.09.13,0a3.08,3.08,0,0,0,2.64-1.24l.25-.24.09.33c.44,1.33-.28,2.42-2.92,3.15a3.21,3.21,0,0,0-2.35,1.6l-.09.61.91-.36a2.82,2.82,0,0,0,1.1-1.3l.19-.36.6,1.12.06-.12c.41-.39,1.35-.42,1.44-1.48v-.09l1.16-.54.06.21c.69,1.82-1.51,2.91-1.44,4.27l.13.42.13-.09a2.51,2.51,0,0,1,1.1-1.45l.41-.21-.09.42a4.68,4.68,0,0,0-.09,2.84l.22.33Zm-8.53-6.9h0l.16,0a2,2,0,0,0,.66-.24l.13-.06.13.09c.38.42,1.19.21,2.26-.67l.22-.06-.75,0a3.8,3.8,0,0,0-2.7.82l-.09.12Zm17.09,0h0l-.06-.12a2.68,2.68,0,0,0-1.88-.79L255,33.8l.34.06c1.13.91,1.95,1.09,2.32.73l.13-.12.13.06a1.78,1.78,0,0,0,.66.24l.13,0ZM238.58,11.65h.28l0-.18c-.13-.79-.28-1.33-.91-1.3l-.72.18-.25.51c-.16.51.16.85,1.63.79Zm25-.79h0l-.22-.51-.75-.18c-.63,0-.78.51-.88,1.3l0,.18H262c1.47.06,1.76-.27,1.6-.79Z"/><path class="cls-5" d="M103.49,42.15l-.09,0a2.76,2.76,0,0,1-.63-2.51l.16-.79-.16.15c-.38.51-.69,1.27-1.22,1.21-.82-1.54,1.25-2.84,1.35-4.3l-.06-.48-.66.3-.09.48c-.41,1.06-1.6.58-1.54,1.45l0,.48-.78-1.39-.47.7a3.2,3.2,0,0,1-1.94,1.09l-.16,0V38.4c0-1.54,1.07-2.39,2.73-2.81,1.91-.51,2.67-1.21,2.79-2l-.06-.61-.6.54a3.18,3.18,0,0,1-1.44.64H100l-.5.48a2.4,2.4,0,0,1-1.51.64l-.31,0,.22-.21c.31-.33.5-.58.63-.73l.16-.3-.28,0-.72.54a2.24,2.24,0,0,1-1.41.39l-.44-.24-.69.24a4.28,4.28,0,0,1-.57.09l-.19,0,.06-.18c1-2.87,7.25-.27,7.65-2.66v-.45l-1.1-.21c-2.13-.57-2.48-2-1-2.69l.75-.27-.25-1.82c-1.07-4.08-4.42-5.24-5.49-3.75-1.6,2.21,2.2,2.69,2.48,4.84.16,1.42-.41,2.3-2.23,2.51l-.82.06-.16.09.13.12.38.24a.83.83,0,0,1-.38,1.27c-.69.3-1.47-.39-.85-1.27.19-.3-.31-.48-.44-.36-.78.39-1.47.39-1.66-.51a.82.82,0,0,1,1.22-.58l.63.33.22-.18-.06-.21c-.91-.51-.66-1.54.09-1.57.6,0,1.22.36,1.1.94l-.38.61c-.22.3-.06.42.09.42,3.51-.3,2.35-2.57-1.16-3.42-6.34-1.6-4.17-7.05-.94-7.56,3.76-.64,7.9,3.15,9,7.78l.28,1.91.28,0-.35-2.84A18.89,18.89,0,0,0,100,20.94l-1.1-1.88-1.25-.18c-1.07-.21-1.35-.39-1.54-.63L96,18l2.38.18-.72-.82-.85-.76-1.63,0c-1.57,0-2.54-.12-2.23-.51l2.85-.3-1.69-1.66-1.79-1.48-.38.24a2.73,2.73,0,0,0-.66,1.3l-.06.27L91,14.28a1.61,1.61,0,0,1,.06-2.06l.41-.27h-.38c-1.47-.12-1.44-.94-.85-1.88,1.22-.51,1.76-.09,2,.6l.16.57.41-.27a1.29,1.29,0,0,1,1.94.67L95,12l-.41-.24a.94.94,0,0,0-1.25.15l-.16.27,3.48,3-.19-2.69.47-.18,0,.15.69,3.63,1.29,1.39,0-.3c-.16-1.33.06-1.45.47-1.36a10.4,10.4,0,0,1,.28,1.42l.06,1.33,1.13,2.21a21.16,21.16,0,0,1,1.44,5.05l.34,2.75.16-2.81a20.43,20.43,0,0,0-.38-3.93c-.82-3.48-3.92-7.38-3.89-10.41,0-2.27,2.7-3.48,5.05-5.08l.09,0c2.32,1.57,4.89,2.78,4.92,5.05.06,3-3.07,6.93-3.89,10.41a20.41,20.41,0,0,0-.38,3.93l.19,2.78.31-2.72a21.17,21.17,0,0,1,1.44-5.05l1.13-2.21.06-1.33a6.07,6.07,0,0,1,.34-1.45c.34-.06.56.06.41,1.39l0,.3,1.29-1.39.69-3.63,0-.15.47.18-.19,2.69,3.48-3-.16-.3a1,1,0,0,0-1.25-.12l-.41.24.25-.39a1.25,1.25,0,0,1,1.91-.67l.41.27.13-.57c.25-.7.78-1.12,2-.57.56.91.6,1.73-.88,1.85h-.38l.41.27a1.61,1.61,0,0,1,.06,2.06l-.16.24-.06-.27a2.73,2.73,0,0,0-.66-1.3l-.38-.24-1.79,1.48-1.69,1.66,2.89.33c.28.36-.6.45-2.16.48l-1.73,0-.85.76-.75.82,2.42-.18-.16.21c-.19.24-.47.42-1.54.63l-1.25.18-1.1,1.88a18.85,18.85,0,0,0-1.54,4.78l-.34,2.88h.28l.28-1.88c1.1-4.63,5.27-8.44,9-7.81,3.23.51,5.4,6-1,7.56-3.61.88-4.77,3.09-1.16,3.42.19,0,.34-.15.13-.42l-.38-.61c-.13-.57.5-.94,1.07-.94.78,0,1,1.06.13,1.57l-.06.21.22.18.63-.33q.9-.36,1.22.64c-.19.85-.88.85-1.66.45-.13-.12-.66.06-.44.36.63.88-.16,1.57-.85,1.27a.83.83,0,0,1-.38-1.27l.38-.24.13-.12-.16-.09-.82-.06c-1.82-.21-2.42-1.09-2.23-2.51.28-2.15,4.08-2.63,2.48-4.84-1.07-1.48-4.45-.33-5.49,3.75l-.28,1.88.72.27c1.35.76.94,2.09-1.16,2.66l-1.07.18v.45c.41,2.3,6.65-.27,7.65,2.66l.06.15h-.19a5.3,5.3,0,0,1-.56-.09l-.66-.24-.47.24a2.24,2.24,0,0,1-1.41-.39l-.72-.54-.25,0,.13.3a7.58,7.58,0,0,0,.66.73l.22.21-.31,0a2.48,2.48,0,0,1-1.54-.64l-.47-.48h-.63a3.28,3.28,0,0,1-1.47-.64l-.56-.54-.06.61c.09.76.85,1.45,2.76,2,1.66.42,2.76,1.27,2.73,2.81v.15l-.16,0a3.2,3.2,0,0,1-1.94-1.09l-.44-.7-.78,1.39v-.48c.06-.94-1.13-.48-1.54-1.48l-.09-.45-.66-.3-.06.45c.13,1.42,2.2,2.75,1.29,4.39-.47,0-.78-.76-1.16-1.27l-.16-.15.16.82a2.66,2.66,0,0,1-.69,2.51Zm0-.45h0l.25-.33a4.62,4.62,0,0,0-.06-2.84l-.13-.42.41.21c.75.39.82,1.12,1.07,1.45l.19.09.13-.42c0-1.39-2.2-2.33-1.48-4.27l.09-.21,1.13.54,0,.09c.09,1,1,1,1.44,1.42l0,.15.63-1.09.16.36a3.25,3.25,0,0,0,1.1,1.3l.91.36-.09-.61a3.09,3.09,0,0,0-2.35-1.6c-2.6-.73-3.33-1.82-2.92-3.15l.13-.33.22.24A3.11,3.11,0,0,0,107,33.89l.13,0,.06.09a3.63,3.63,0,0,0,.94.82l.25.06-.25-.33c-.19-.33-.16-.54,0-.64l.25-.06-.85-.06c-1.73-.09-3.2-.33-2.95-2v-.15l.16,0c3.39-.33,3.45-2,1.47-2.54L106,29l0-.15c.28-5.42,4.71-8.2,6.37-5.87S110.14,26.5,110,28s.41,2.18,2.76,2.24c.38.09.69.42.16.76a.53.53,0,0,0,0,1c.38.15.91-.18.44-.82a.77.77,0,0,1,.5-1l.38.15c.56.27.88.3,1.07.06l.09-.27-.13-.24c-.22-.24-.56-.24-1.25.24l-.09,0c-.47,0-.88-.67-.38-1,.78-.42.34-1,.06-1-.66,0-1,.45-.44,1,.22.33.28,1-.41.94-4.17-.36-2.48-3.15,1.13-4,5.93-1.48,4-6.48,1-7-4-.7-8.72,4.15-8.94,9.53V29l-.22,0-.53-.06h-.22l0-.21c.34-4.24,1.41-7.44,3.07-9.8l.09-.06,1.38-.21.6-.15-2,.15.28-.36a14.89,14.89,0,0,1,1.85-1.82l.09-.06h2.64l-2.23-.27.28-.27a27,27,0,0,1,3.76-3.36l.09-.09.09.06a1.54,1.54,0,0,1,.88.76l.22.51.06-.21c.16-.64-.13-1.09-.88-1.45l-.47-.39c-.75-.54-1.19-.61-1.47-.48l-.22.21a1.16,1.16,0,0,1,1.29.85l0,.12-4.24,3.6.13-2.06-.44,2.36-2,2.24.09-.64c0-.36.06-.64.09-.85l0-.51-.19.82c0,.45-.06.91-.06,1.36a22.19,22.19,0,0,0-2.89,10v.18l-.69,0v-.18c-.06-.94-.16-2-.13-2.94a21.27,21.27,0,0,1,.38-4c.88-3.78,3.92-7.29,3.89-10.35,0-1.54-1.35-2.54-3-3.63l-1.63-1.09L101.92,7.8c-1.69,1.09-3,2.09-3.07,3.63,0,3.06,3,6.54,3.89,10.35a18.93,18.93,0,0,1,.38,4c0,1-.06,2-.13,2.94v.21l-.69-.06v-.18a22.08,22.08,0,0,0-2.85-10c0-.51-.06-1-.09-1.42l-.19-.82,0,.51c0,.21.06.48.09.85l.09.64-2-2.24-.44-2.36L97,15.91l-4.23-3.6,0-.12a1.21,1.21,0,0,1,1.29-.88l-.22-.18c-.28-.12-.72-.06-1.44.48L92,12c-.78.36-1.07.82-.94,1.45l.09.21.22-.51a1.54,1.54,0,0,1,.88-.76l.09-.06.09.09a27,27,0,0,1,3.76,3.36l.28.27-2.23.27h2.6l.09,0a15.34,15.34,0,0,1,1.88,1.85l.28.36-2-.15.6.15,1.32.21.13,0c1.69,2.39,2.76,5.6,3.11,9.83l0,.21H102c-.19,0-.38,0-.53,0l-.22,0v-.21c-.22-5.36-4.92-10.2-9-9.5-2.95.48-4.92,5.48,1,7,3.7.91,5.36,3.66,1.13,4-.72.09-.63-.64-.41-.91.6-.61.22-1.06-.44-1.06-.28,0-.72.54.06,1,.5.3.09.94-.34,1h-.09c-.72-.51-1.1-.51-1.29-.27l-.16.24.13.27c.19.24.5.21,1.07-.06l.38-.15a.8.8,0,0,1,.5,1c-.47.64.06,1,.44.82a.51.51,0,0,0,0-1c-.53-.36-.28-.67.06-.79,2.42-.06,3-.85,2.82-2.24C97,26.38,93.08,25.29,94.74,23s6.09.42,6.37,5.84V29L101,29c-2.07.45-2.2,2.27,1.32,2.6l.16,0,0,.15c.22,1.78-1.47,2-3.32,2l-.38,0L99,34a.64.64,0,0,1-.13.48l-.25.36.25-.06a3.62,3.62,0,0,0,.94-.82l.06-.09.13,0a3.11,3.11,0,0,0,2.64-1.24l.25-.24.09.33c.41,1.33-.31,2.42-2.92,3.15a3.09,3.09,0,0,0-2.35,1.6l-.09.61.91-.36a3,3,0,0,0,1.1-1.3l.16-.36.63,1.12.06-.12c.41-.39,1.35-.42,1.44-1.48v-.09l1.16-.54.06.21c.69,1.82-1.51,2.91-1.44,4.27l.09.42.16-.09a2.52,2.52,0,0,1,1.1-1.45l.41-.21-.09.42a4.68,4.68,0,0,0-.09,2.84l.22.33Zm-8.53-6.9h0l.16,0a1.67,1.67,0,0,0,.63-.24l.16-.06.09.09c.38.42,1.22.21,2.29-.67l.22-.06-.75,0a3.94,3.94,0,0,0-2.73.82l-.06.12Zm17.09,0h0l-.06-.12a2.75,2.75,0,0,0-1.88-.79l-1.76-.09.34.06c1.1.91,1.94,1.09,2.32.73l.09-.12.16.06a1.88,1.88,0,0,0,.63.24l.16,0ZM91.89,11.65h.25v-.18c-.13-.79-.28-1.33-.91-1.3l-.72.18-.25.51c-.16.51.13.85,1.63.79Zm25-.79h0l-.25-.51-.72-.18c-.63,0-.78.51-.91,1.3v.18h.28c1.47.06,1.76-.27,1.6-.79Z"/></g><path class="cls-6" d="M200.67,39c-.3.66.24,1.91,1.37,3.57l-.28,17.66a1.55,1.55,0,0,0,1.55,1.52l5.82.05A2.62,2.62,0,0,0,208,59.34l-.54-14.65c0-3.28,5.23-6.11,6.69-.34.13,3.58-1.37,5.31-4.84,4.74,0,1.21.65,2.09,4.69,1.23,8.28-2.34,7.41-9,3.07-11.35l-16.39,0ZM178.82,39h0c-1.33.2-1.24,1.19.35,3l.11,15.65a16.05,16.05,0,0,0-.7,4l7.32.07a4.07,4.07,0,0,0-.83-3.35l.07-5.63c-.06-1.32,2.18-3,6.43-3.48.2,3,.28,6.31.17,10.3a3.52,3.52,0,0,0-.39,2.07l7.43.07c-.37-1.12-.74-2.37-1.11-3.65l-.37-14.06a22,22,0,0,0,1.39-4.81l-8-.05c-.72.25.33,2.19,1.33,5-.13,1.62-4.47,4.22-6.43,3.26-.52-.82-.46-3.26-.44-5.61,1.39-1.43,1.15-2.78.3-2.87l-6.58.09Zm-16.9,17.86h0c2.57-2.42,2.14-4,.28-4-3.09.14-4.58,2-4.54,5.08.24,2.55,3.27,4.79,11.31,3.55,4.71-.84,8-3.51,6.32-8.47-.7-2.14-3.07-3.78-5.49-4.22,4.49-1.62,7.09-8-.42-9.73L159.55,39c-1.57.62-3.58,4.31-.91,6.15a16.62,16.62,0,0,0,3.34-4c3.42-1.1,10.24,1.23,4.75,6.76a16.45,16.45,0,0,1-4,1.66c2.94.55,5.73,1.37,6.76,5.29.78,3.42-3.33,7.49-7,3.33l-.63-1.27ZM140,59h0l-.41-16.92c-.54-1.43-2.49-3.3.63-3l14.54.09c.94.14,1.48,1.43,1.16,5-.94.55-3.29-3.6-4.56-3l-4.34,0c-1.29.77-1.81,2.69-1.26,6.08,1.92-2.21,4.75-4.51,7.85-.82,1.33,2-.24,5.24-2.88,4.58.72-3.85-3.81-3.69-5,.09l.17,6.88c-.17,1.59,4.32,3.65,7.48-.39,2-1.87,3.62-3.19,3.38-.91-.48,2.26-1.27,4.21-3,5.1l-14.93-.12c-1.11-1.14.87-1.68,1.16-2.62Zm-24.11,2.71h0c-1.13-.71-1.26-2.66-.42-5.15A106.93,106.93,0,0,1,120.32,43a2.4,2.4,0,0,0-.87-2.53c-.26-.62-.11-1.12,1-1.41l11.84.05a1.76,1.76,0,0,1-.65,2.17c1.81,7.45,7.72,19.3,4.34,20.53h-6.43c-.52-.57-.68-1.12.72-1.68.89-1.59-.67-6.76-2.68-12.64-1-2.85-3-6.6-4.6-4.37-2,2.64-4.93,9.63-5.25,15.77-.35,1.48,1.72,2.64.68,2.87l-2.53,0ZM91.81,39h0a6.39,6.39,0,0,0,1.26,4.31l.35,15.13a8.46,8.46,0,0,0-1.15,3.26l7.69.07a3.14,3.14,0,0,0-.81-2.67L99,43.46c.41-1.93,4.21-4.3,6.8,0l.26,15a6.67,6.67,0,0,0-1,3.33l8.22,0a9,9,0,0,0-1.46-3.17l-.35-15.54c.33-.7,2.11-3.07.24-4.14L91.81,39Zm-23.45.12h0l.07,1.28c1.72.8,2.31,6.45,1.5,18.25a6.82,6.82,0,0,0,0,3.23l7.24-.07a7,7,0,0,0-.78-2.91l-.33-7.34c1-1.16,3.27-2.42,4,1.57.83.11,1.66-.32,2.48-1.89.35,2.89.79,5.76-.2,9l.09,1.55h7.65A7.25,7.25,0,0,0,89,58.33L88.62,43A5.19,5.19,0,0,0,89,39.22l-7.56,0A10.61,10.61,0,0,0,82.5,44l.24,3.19c-1.68-1.44-3.73-1.57-6.67,1.25l-.2-6.7a2.8,2.8,0,0,0,.72-2.5l-8.22-.05Zm-15.91-.09h0a48.16,48.16,0,0,1,6.8,0c4.88.5,8.85,3.76,7.58,13.83-2.14,5.38-5.14,9.34-10.7,9-4.14-.23-8.2-1-11-10-1.55-7.24.31-11.91,7.28-12.8ZM55.62,41h0c-4.19-.82-8.48,11-1.05,18.43,1.16.62,2.66,1.07,4-.52C62.11,53.09,61.4,40.68,55.62,41ZM23.09,62h0c-1.42.11-2.75.07-2.94-1.75C20.55,53.21,21.52,45.44,20,41l-.26-1.89,5.08-.21c1.76,1.93,3.94,6.22,5.89,7.45l1.24-.18c.83-2.42,1.53-4.87,3.92-7.09L41.6,39a14.1,14.1,0,0,0-.2,7.13,94.5,94.5,0,0,1,2,14.65C43,61.93,42.12,62,41.08,62l-4.51,0c-.72-.89-.7-1.66.37-2.21-.24-5.72-.13-12.37-2-13.53-1.7.41-2.51,5.78-5.08,8.68-2.16-1.51-4.23-4.17-6.23-8.57-.87-.46-1.11-.12-1.27.28-.13,4.55-.43,9,.61,14A1.16,1.16,0,0,1,23.09,62Z"/></svg>