<svg id="Слой_1" data-name="Слой 1" xmlns="http://www.w3.org/2000/svg" xmlns:xlink="http://www.w3.org/1999/xlink" viewBox="0 0 37 37"><defs><clipPath id="clip-path"><rect x="-17.17" y="-565.17" width="386.67" height="272" style="fill:none"/></clipPath></defs><title>search</title><circle cx="13.95" cy="14.33" r="10.63" style="fill:none;stroke:#deb887;stroke-miterlimit:10;stroke-width:2px"/><line x1="22.67" y1="22.43" x2="34.82" y2="34.58" style="fill:none;stroke:#deb887;stroke-miterlimit:10;stroke-width:2px"/><g style="clip-path:url(#clip-path)"><path d="M-4.73,28.59c-1.87-1.58-1.87-4.75-.86-8.82-2.11,1.13-2,4.07-3.67,4.07-2.34-4.45,4.92-7.61,3.12-12.21l-2,1c-.39,3.92-4.3,2.41-4.14,5l-1.64-2.86a7.73,7.73,0,0,1-6,4.75c-.16-3.69,2.42-5.65,6.56-6.71C-7,11-5.59,8.47-6.53,5.54c-2.5,2.71-4.84,3.54-7,3.24a6.73,6.73,0,0,1-4.92,2.79C-16,9.23-15.75,8-17.47,8.7c-2.5,2.11-5,3-6.33,1.66a6.46,6.46,0,0,1-3.13.83c2.5-7.23,20.23.23,19.14-8.06-9.21-1-9.37-6.1-3.36-7.46-.78-13.79-11.48-19.06-14.92-14.24-3.83,5.43,5.55,7.69,6.17,12.28.47,3.84-1.33,6-7.34,6-.7.23-.94.53-.23,1,1.56.3,1.72,2.71.08,3.39-1.41.6-3.12-.83-1.72-2.79.55-.83-.86-2-1.56-1.28-1.88.9-3.2.83-3.67-1,.62-1.66,1.88-2,4.3-.38.94-.08,1.25-1.13.63-1.51-2.19-1.28-1.33-3.39.08-3.39,1.8-.07,3.51,1.43,1.56,3.32-.55.75-.39,1.66.55,1.51,9.69-.83,5.78-6.93-2.89-9-15.46-3.84-10.23-17-2.42-18.31C-22.07-30.48-10.2-18.13-9.65-4.56a7.93,7.93,0,0,1,1.33-.07C-9.11-15.19-11.76-23-15.9-28.82c-5.39-.68-6.4-1.36-6.87-2l6,.45a37.28,37.28,0,0,0-4.45-4.52c-7.34.15-10.08-.15-9.61-.68l7.57-.83a76.48,76.48,0,0,0-9.29-8.29c-1.8.68-2.34,2.34-2.89,4.07-1.41-2.64-1-4.67,1.8-6-5.31.23-5.23-1.73-3.75-4.14,3.75-1.58,4.53.53,4.92,3.17,4-2.86,5-.6,5.78.68-2.11-1.2-3.67-.07-4.06,1.36l9.45,8-.55-7.16.63-.3c.7,3.24,1.25,6.25,1.72,9.19l3.91,4.14c-.78-5-.08-4.9.39-4.82a22.74,22.74,0,0,1,.86,6.78A54.74,54.74,0,0,1-7.15-4.64a2.25,2.25,0,0,1,.7.07c.16-2.33.39-5,.31-7.31a46.38,46.38,0,0,0-.94-9.87c-2-9-9.76-18.31-9.68-25.85.08-5.5,6.48-8.36,12.34-12.36C1.52-56,7.68-53.09,7.76-47.59,7.84-40.05.19-30.71-1.92-21.74a52.22,52.22,0,0,0-.94,9.87c-.08,2.34.16,4.9.31,7.23h.7A55.71,55.71,0,0,1,5.34-29.73a25.64,25.64,0,0,1,.86-6.78c.47-.07,1.17-.22.47,4.82l3.91-4.14c.47-2.94,1-6,1.72-9.19l.55.3-.47,7.16,9.37-8c-.39-1.43-2-2.56-4.06-1.36.78-1.28,1.87-3.54,5.86-.68.31-2.64,1.17-4.75,4.92-3.17,1.41,2.41,1.49,4.37-3.83,4.14,2.89,1.28,3.28,3.32,1.8,6-.47-1.73-1-3.39-2.81-4.07a76.92,76.92,0,0,0-9.37,8.29l7.65.83c.39.53-2.34.83-9.61.68a37,37,0,0,0-4.53,4.52l6.09-.45c-.55.68-1.48,1.36-6.95,2C2.84-23,.19-15.19-.67-4.64c.47,0,.94.07,1.33.07C1.2-18.05,13.08-30.48,23.54-28.75c7.81,1.36,13,14.47-2.42,18.31-8.67,2.11-12.57,8.22-2.81,9,.86.15,1.09-.75.55-1.51-2-1.88-.31-3.39,1.48-3.32,1.49,0,2.27,2.11.08,3.39-.62.38-.23,1.43.62,1.51,2.42-1.66,3.67-1.28,4.3.38C24.87.86,23.54.94,21.67,0c-.7-.75-2.11.45-1.56,1.28,1.48,2-.31,3.39-1.72,2.79C16.75,3.43,16.9,1,18.46.71c.7-.45.47-.75-.23-1-6-.07-7.81-2.19-7.26-6,.55-4.6,10-6.86,6.09-12.28C13.62-23.4,2.84-18.13,2.14-4.26,7.68-2.75,7.37,2.22-1.61,3.12-2.78,11.41,15,4,17.45,11.19a6.67,6.67,0,0,1-3.12-.83c-1.25,1.36-3.75.45-6.33-1.66C6.36,8,6.51,9.23,9,11.57A6.73,6.73,0,0,1,4.09,8.78c-2.11.3-4.45-.6-7-3.24C-3.88,8.47-2.47,11,4,12.84c4.06,1.06,6.64,3,6.56,6.71a7.82,7.82,0,0,1-6.09-4.75L2.92,17.67c.16-2.64-3.83-1.13-4.14-5l-2.11-1C-5,16.24,2.22,19.4-.12,23.85c-1.64,0-1.56-2.94-3.67-4.07,1,4.07.94,7.24-.86,8.82Z" style="fill:#493a2f;fill-rule:evenodd"/></g></svg>