<svg id="Слой_1" data-name="Слой 1" xmlns="http://www.w3.org/2000/svg" viewBox="0 0 45 45"><defs><style>.cls-1{fill:#754c24;}.cls-2{fill:none;stroke:#fff;stroke-linecap:round;stroke-linejoin:round;stroke-width:0.5px;}</style></defs><title>10_living_room</title><path class="cls-1" d="M39.65,1.09,28.94,2l1.78,1.78-.06,26.67L12.94,29.09,12.83,29l-.45,0,0-23.67.72-2.09L7.83,3,0,3.54l1.53,2,.14,23.2-1,0v.64l.7,0-.08,7.56-.53.25.07.92,38.85,5.8L44.11,43V3.76L45,1.09ZM7.25,28.35,2.34,28V6.3l4.91-.2Zm4.32-.25-2.7.25V6l2.76.14ZM38.31,30.7l-6.41-.56V5l6.75-.33ZM43,30.53l-2.9.45.5-26.32h2.68Z"/><line class="cls-2" x1="9.2" y1="31.63" x2="28.92" y2="33.75"/><line class="cls-2" x1="8.79" y1="35.46" x2="29.5" y2="38.17"/><line class="cls-2" x1="7" y1="30.5" x2="7" y2="37.5"/><line class="cls-2" x1="31.17" y1="33.17" x2="31.17" y2="41.42"/><line class="cls-2" x1="38.92" y1="33.5" x2="38.92" y2="42.42"/></svg>