<svg id="aa0f021b-020f-44df-9465-83b1278695c8" data-name="Ğ¡Ğ»Ğ¾Ğ¹ 1" xmlns="http://www.w3.org/2000/svg" viewBox="0 0 60 60"><title>03_stand</title><path d="M17.88,47.55c-.18-.69-.44-1-.19-1.7.33-.91,1.06-1.65,1.39-2.56.52-1.43.19-3.33.05-4.82a82.59,82.59,0,0,0-2.21-12.19c-.83-3.32-1.67-6.49-.57-9.86C17,14.57,18,13,17.63,11c-.07-.36,0-.33-.16-.53S16.34,10.18,16,10s-.63,0-.53-.47c0-.19.58-.53.67-.56a8,8,0,0,1,2.11-.3l12.26-.92c2.41-.18,5.2-.8,7.61-.49C40,7.52,42,8.1,43.85,8.5a23.78,23.78,0,0,1,3.7.85c.49.2,1.41.72.69,1.08-.53.26-1.89-.17-2.22.27s0,2.41,0,2.88a13,13,0,0,0,1.07,2.57c2.12,5.39-.52,10.66-1.6,16a59.72,59.72,0,0,0-1.19,8.51c0,.51-.06,1,0,1.54,0,1.65.88,2.68,1.53,4.13a2,2,0,0,1,0,1.8,7.76,7.76,0,0,1-.38,1.56,1.39,1.39,0,0,1-1.57-.12c-.25-.36,0-1.34-.07-1.79-.18-1-.77-1.93-1-2.93a16.78,16.78,0,0,1-.17-4.91q.1-1.43.24-2.86l-4.43.85c-.79.15-.8,0-.93.66-.24,1.24.45,2.34.63,3.51A4,4,0,0,1,38,43.7a8.34,8.34,0,0,1-.15,1.37,1.1,1.1,0,0,1-1.31,0c-.23-.26-.07-1.17-.13-1.54A15.63,15.63,0,0,1,36,41c0-.86,0-1.71,0-2.57l-7.83,1.42c-1,.19-1.4-.06-1.37,1,.05,1.55.12,3.11.14,4.66a25.87,25.87,0,0,1-.45,6.42A11.29,11.29,0,0,1,26.27,54c-.51.89-1.44.25-1.63-.35-.68-2.15,0-3.87.38-6a18.93,18.93,0,0,0,.15-4.14c0-1,.3-3-.19-3.82-.32-.52-1.58-1-2.09-1.34-.72-.46-1.45-.92-2.16-1.4.23,2.78.67,5.72-.32,8.39a10.34,10.34,0,0,0-.7,2.94c-.05.66.08.86-.82.86C17.83,49.11,18.1,48.4,17.88,47.55Zm2.26-32.82a6,6,0,0,1-.72,1.77,14.09,14.09,0,0,0-1,2.92,11.61,11.61,0,0,0,.32,4.88c.8,4,1.56,8,2,12,.34-.5,1.85-.57,2.43-.67s1.54,0,1.72-.6a4.72,4.72,0,0,0-.17-1.43l-.26-2.16c-.17-1.4-.34-2.8-.52-4.2s-.63-2.74-.88-4.13a11.85,11.85,0,0,1,.17-2.37c0-.83-.21-1.66-.24-2.49a3.44,3.44,0,0,1,.54-2.1c.23-.37.73-.83.48-1.35s-1.22-.37-1.76-.33a2.15,2.15,0,0,1-2-.61C20.19,14.15,20.17,14.44,20.15,14.73Zm6.72,1a3.08,3.08,0,0,1,.54,2.76,23.19,23.19,0,0,0-.47,3.72c0,1-.59,2-.66,3,0,.49,0,1,0,1.48.05,2.78.24,5.56.36,8.33l6.54-1.1c.6-.1,2.46-.07,2.9-.49.24-.22.15-.79.16-1.19q.1-4.19.18-8.37c0-1.28,0-2.57,0-3.85s-.59-2.41-.56-3.62c0-.43.23-1-.07-1.43s-.06-.16-.56-.29a10.12,10.12,0,0,0-1.83,0c-.64,0-1.28-.11-1.92-.17a8.89,8.89,0,0,0-3.41.09C27.18,14.85,26.89,14.83,26.87,15.72Zm12.23,0c-.1.69.29,1.22.1,1.93-.1.4-.32.74-.41,1.15a26.86,26.86,0,0,0-.39,3.36c-.31,3.09-.53,6.19-.68,9.3,0,.49-.34,1.85-.1,2.3.15.29.85.49,1.16.64A25.53,25.53,0,0,1,43,36.55c.28-2.65.71-5.29,1.22-7.9S46,22.78,45.38,20a20.55,20.55,0,0,0-1.49-3.79,4.85,4.85,0,0,1-.41-1.34c0-.36.19-1.36,0-1.63-.39-.58-2.36.09-3,.29-.19.06-.87.17-1,.34A5.46,5.46,0,0,0,39.1,15.75Z" style="fill:#754c24"/></svg>