<svg id="3d5600cb-cf21-4d2a-8924-f3fa575f7d0e" data-name="Слой 1" xmlns="http://www.w3.org/2000/svg" viewBox="0 0 60 60"><title>09_hall</title><path d="M18.26,3.73a21.49,21.49,0,0,1,4.23.33L41.15,5.81c.34,0,5.07.1,5.13.73A11.79,11.79,0,0,0,45,7.67c-.16.18-.33.29-.48.49s.09.48-.06.64-.87.09-1.13.08c0,.38-.2.64-.25,1-.11.83,0,1.73-.07,2.57,0,.46,0,1,0,1.49q0,4,0,8.06-.06,10.51-.13,21c0,1.76,0,3.09.1,4.82,0,.43-.06,1,.29,1.29s1.17,0,1.46.49a2.77,2.77,0,0,1,0,1.46c-.21.41.1.12-.26.32a9,9,0,0,1-2.62.34L37,52.4l-11.4,1.49-4.84.63a9.43,9.43,0,0,1-1.94.25c-1.53-.15-3.27-1.09-4.73-1.58a3.16,3.16,0,0,1-.92-.31c-.19-.18,0-.26-.13-.47-.18-.39-.85-1.86.11-1.78-.18-5.36.33-41.59,0-42.3-.12-.29-.43-.26-.52-.49s0-.52,0-.73-.17-.1-.22-.21-.8-1.55-.81-1.55C13.78,4.94,16,4,18.26,3.73ZM33.39,44.94v3.62l3.16-.31L39,48c.35,0,1.4.06,1.68-.16s.16-1.9.16-2.52v-3.6L37.66,42l-2.42.23c-.35,0-1.4-.06-1.68.16S33.39,44.33,33.39,44.94Zm3.16-5.49,2.51-.13c.24,0,1.41.09,1.6-.08.47-.46.11-3.17.11-3.86l.13-19.6,0-5.44-7.72-.56q0,13,0,26.09,0,1.88,0,3.76ZM16.39,50.61l7.87-1a10.11,10.11,0,0,1,4.24.76c.49.16,1,.32,1.44.45l.21.06.09-.2a.42.42,0,0,0,0-.37c-.22-.42-1.18-.64-2.72-1a7.94,7.94,0,0,1-1.91-.51c-.11-.12-.08-.62-.06-.88s0-.26,0-.36l.11-36.31c0-.09,0-.27,0-.49a5.27,5.27,0,0,1,0-1.49A8.21,8.21,0,0,1,27.72,9c1.58-.17,2.56-.29,2.81-.7v0A.85.85,0,0,0,31,8.07a.44.44,0,0,0,.13-.37l0-.2L22.8,6.82c-2.63-.21-5.86-.33-6.36.36a.47.47,0,0,0-.05.47l.08.19.2,0,.81-.16a10.84,10.84,0,0,1,2-.29A23.61,23.61,0,0,1,22,7.53l1.27.13,5.16.42.14,0a13,13,0,0,1-4.06.45L19.9,8.06,19.51,8c-1.33-.23-2.16-.3-2.48,0a.43.43,0,0,0-.14.35l0,.21,6.32.66h.42a6.49,6.49,0,0,1,1.26.1c0,.08,0,.22,0,.29a1.94,1.94,0,0,0,0,.2c.09,2.35.05,4.75,0,7.08,0,1.18,0,2.35,0,3.53L24.75,48c0,.85,0,.85-.66.91l-.65.06-7.15.88Z" style="fill:#754c24"/></svg>