<svg id="Слой_1" data-name="Слой 1" xmlns="http://www.w3.org/2000/svg" viewBox="0 0 45 45"><defs><style>.cls-1{fill:#754c24;}.cls-2{fill:none;stroke:#fff;stroke-miterlimit:10;stroke-width:0.5px;}</style></defs><title>13_cabinet</title><path class="cls-1" d="M-6.71,45l-.07-1.57.71-.54V30.51l-1.69-.27v-.91H-8.1L-8,29l.88-.14v-.27L-4,28.22l1.16-.14,16.23-2.23,7.37.81V3.43l-.3-.17-.26-.91-.28-.51.28-.2,26-1.56,3.52.41-.2.41-.07.71L49.21,2l.27,35.74.17.61-.17.74-3.08,1.08L29,36.73s-.07,1.39-.24,2.37a40.34,40.34,0,0,0-.51,5.49,3.14,3.14,0,0,1-.92-.17A19.08,19.08,0,0,1,27,39.3c-.57,0-5.12.07-5.12.07a4.37,4.37,0,0,1,0,1.71l-.2,1.09L21.28,45l-.78,0-.35-3.09-1.3.1-2.16.64-4.29-.71-2.6.81v.2l.41.3.1.57-.14.51L7.84,45Z"/><polyline class="cls-2" points="-5.72 30.47 2.4 31.5 24.94 28"/><path class="cls-2" d="M28.81,36.38a51.76,51.76,0,0,1,1-8c.73-2.11,1.49-2.44,1.75-2.56a.55.55,0,0,0,.61-.45c.26-.64,0-.61,0-.61a48,48,0,0,0-5.29-.6c-2,.62-1.66,4.4-2.08,5.78-.6,2-7.28,1.7-7.87,1.75s-1.81.23-1.67,1.3,1.31,1.54,1.31,1.54c1.34,1.17-.85,2.06-.75,3.44"/><path class="cls-2" d="M28.94,32.56a5.39,5.39,0,0,1-3.1,1c-2.16.16-5,0-5.2,1.25C20.49,35.85,22,36,21.82,37c-.09.57-.85,1.15-.79,1.46"/><polyline class="cls-2" points="30.38 29.06 38.6 29.96 38.6 32.49 29.79 31.45"/><polyline class="cls-2" points="38.6 32.72 38.6 35.1 29.52 33.91"/><polyline class="cls-2" points="38.66 35.28 38.66 37.81 29 36.13"/><polyline class="cls-2" points="38.83 29.97 45.42 30.69 45.54 38.9 38.89 37.9"/><line class="cls-2" x1="22.38" y1="3.63" x2="44.5" y2="2.13"/><line class="cls-2" x1="25.88" y1="24.13" x2="25.88" y2="4.63"/><line class="cls-2" x1="33.75" y1="27" x2="33.75" y2="4.25"/><line class="cls-2" x1="41.38" y1="27.75" x2="41.38" y2="3.38"/><line class="cls-2" x1="2.31" y1="31.75" x2="2.31" y2="44.69"/><polygon class="cls-1" points="15.56 42.25 15.94 45.25 16.88 45.13 17.31 41.56 15.81 42.06 15.56 42.25"/><line class="cls-2" x1="15.81" y1="42.06" x2="15.75" y2="38.25"/><line class="cls-2" x1="21.25" y1="39.42" x2="16.42" y2="38.67"/></svg>