<svg id="Слой_1" data-name="Слой 1" xmlns="http://www.w3.org/2000/svg" viewBox="0 0 45 45"><defs><style>.cls-1,.cls-2{fill:#754c24;}.cls-2,.cls-3{stroke:#fff;stroke-miterlimit:10;stroke-width:0.5px;}.cls-3{fill:none;}</style></defs><title>12_bedroom</title><polygon class="cls-1" points="17.29 32.15 17.29 31.39 17.7 31.01 17.5 6.19 16.66 5.45 16.66 5.15 45 5.15 45 5.74 44.26 6.53 44.26 32.45 44.7 32.86 44.74 33.45 17.29 32.15"/><polygon class="cls-2" points="33.42 30.07 36.82 30.14 36.82 31.39 33.39 31.25 33.42 30.07"/><polygon class="cls-2" points="23.23 29.68 31.89 29.93 31.89 31.15 23.23 30.86 23.23 29.68"/><polygon class="cls-1" points="5.01 24.75 4.5 24.53 16.48 22.52 16.73 22.62 16.38 22.89 16.38 27.95 37.3 28.77 41.32 27.43 41.84 27.53 41.72 27.82 41.4 27.92 41.45 34.4 41.97 34.79 41.97 35.76 34.13 39.5 32.79 39.5 32.87 37.25 7.51 35.86 4.77 35.39 5.01 24.75"/><path class="cls-1" d="M.46,39.33l5.6.52,4-1.38v-.89a5.27,5.27,0,0,0-.6-.41c-.11,0,0-7.14,0-7.14l.6-.28v-.5L4.17,29,0,29.83v.39l.24.17-.15,8.2Z"/><polyline class="cls-3" points="10.02 32.82 32.2 33.97 32.3 30.53 32 30.29 32.3 30.03 36.02 28.81"/><line class="cls-3" x1="10.02" y1="29.25" x2="16.38" y2="27.95"/><polyline class="cls-3" points="5.01 28.95 10.02 29.25 10.02 29.75"/><line class="cls-3" x1="9.36" y1="30.46" x2="9.36" y2="35.95"/><line class="cls-3" x1="16.38" y1="27.95" x2="35.96" y2="28.62"/><polyline class="cls-3" points="36.02 28.81 41.32 27.43 41.84 27.53 41.72 27.82 41.4 28.14 41.45 34.4"/><line class="cls-3" x1="22.19" y1="7.63" x2="22.19" y2="27.44"/><line class="cls-3" x1="27.5" y1="7.63" x2="27.5" y2="27.44"/><line class="cls-3" x1="33.56" y1="7.63" x2="33.56" y2="27.44"/><line class="cls-3" x1="39" y1="7.63" x2="39" y2="27.44"/><line class="cls-3" x1="19.06" y1="7.38" x2="41.94" y2="7.38"/><line class="cls-3" x1="5.69" y1="38.5" x2="5.69" y2="31.56"/><line class="cls-3" x1="9.38" y1="30.46" x2="5.69" y2="31.56"/><line class="cls-3" x1="1.13" y1="30.94" x2="5.69" y2="31.56"/><line class="cls-3" x1="5.81" y1="35.44" x2="8.63" y2="34.63"/></svg>