<svg id="8fe791ac-3893-4ca3-a65b-1c077dfda59b" data-name="Слой 1" xmlns="http://www.w3.org/2000/svg" viewBox="0 0 60 60"><title>02_chair</title><path d="M19.37,46.39c1.16-6.78.85-18.09.85-18.09-.1-10.27-4-23.9-4.14-24.23s.19-.34.19-.34a7.41,7.41,0,0,1,.93,0,1.54,1.54,0,0,1,1.36.78,37.73,37.73,0,0,0,16.61-.84c.11-.58.41-.59.41-.59h1c.27,0,.19,0,.34.23-.73,7.58-.76,19.72-.71,21.48,4.81,0,11.65,4,11.65,4v1L47.3,30l-.89,21.34c0,.41-.73.57-1,.56s-.95-.52-.95-.73-.29-12.48-.29-12.48l-7.56,1.46s.18,3.12.18,3.31-.31.83-.67.81-.93-.17-.95-.49-.36-3.34-.36-3.34l-7,1.36s-.21,13.89-.26,14.12c-.21.45-1.13.44-1.35.41s-.55-.53-.65-.67S24.93,41,24.93,41s-1.27-1.11-2.43-2.33a37.83,37.83,0,0,1-1.11,7.95s-.39.61-.8.57A10.61,10.61,0,0,1,19.51,47C19.41,46.95,19.3,46.74,19.37,46.39Zm1.15-35c3.39.18,12.39-.71,14.14-.92,0-.48.08-1.83.15-2.85a57.57,57.57,0,0,1-9.07,1.22,37.34,37.34,0,0,1-5.86-.23S20.3,10.42,20.52,11.38Zm.93,5.22,13-1.07s.08-2,.11-3.26c-3.4.59-13.63,1-13.63,1Zm.74,5c1-.17,4.16-.57,5.9-.74s6.21-.39,6.21-.39l.08-3.2-12.6,1.15S22.07,20.49,22.19,21.6ZM22.46,26a18.82,18.82,0,0,1,4.89-1.19,33.89,33.89,0,0,1,7-.17s0-1.74,0-2.36c-.15,0-3.44.15-6.48.46s-5.46.82-5.46.82S22.46,25,22.46,26Zm1,9.1a3.5,3.5,0,0,0-.92.81v.22l2.3,2-.06-3.19-.34-.31A5.94,5.94,0,0,0,23.49,35.07Zm4.37,4.36,6.84-1.22-.15-3.82-6.78,1Zm8.43-5.33.17,3.82,6.67-1.16L41,35.44a14.41,14.41,0,0,0-3.65-1.5C36.9,34,36.29,34.1,36.29,34.1Zm8.12,1.08.08-2.29-3.23.5C41.44,33.41,44.41,35.18,44.41,35.18Z" style="fill:#754c24"/></svg>