<svg id="Слой_1" data-name="Слой 1" xmlns="http://www.w3.org/2000/svg" viewBox="0 0 45 45"><defs><style>.cls-1{fill:#754c24;}.cls-2{fill:#fff;}.cls-3{fill:none;stroke:#fff;stroke-miterlimit:10;stroke-width:0.75px;}</style></defs><title>05_commode</title><path class="cls-1" d="M42.38,32c0-.37.57-.75.53-1.11s-.62-.5-.6-1c-.87-.76-.58-1.58-.58-2.71q0-3.25,0-6.5l0-14.64c0-.67,0-1.34,0-2s0-.37.26-.64,1.22-.45.48-1a13.13,13.13,0,0,0-3-1.08A16.68,16.68,0,0,0,35.6,0a20.21,20.21,0,0,0-3.2.29L5.47,2.79A14,14,0,0,0,2.69,3c-.09,0,0,.1-.07.12-.58.24-.68.28-.28.78s.49.32.61.84a22,22,0,0,1,0,4.32v20a3.15,3.15,0,0,1,0,1c-.06.12-.42.24-.54.43a5,5,0,0,0-.28.76c-.09.54.21.7.5,1.22a3,3,0,0,1,.31,1.28c.12.73.59,1.33.42,2.1-.06.27-.29.46-.3.75s.2.44.24.7c.07.41-.17,1.13.59,1,.46-.1.66-1.44.68-1.91.54.76,1.4,1.1,1.61,2.07.1.47,0,1,.13,1.43a6,6,0,0,1,.53,1.75c0,.53-.41.94-.32,1.45,0,.23.28.37.33.55s0,.34,0,.49c.09.35-.11.47.22.69.81.53.71-.47.84-.78a7.47,7.47,0,0,0,.42-.84,5.23,5.23,0,0,0-.16-1.66c0-.6.24-1.92.67-2.15.69-.37,2,0,2.82-.27A23.12,23.12,0,0,1,16,37.93c1.49-.14,3.15.29,4.6-.1.66-.18,1.27-.55,1.92-.78A4.78,4.78,0,0,1,24.91,37c1.28.12,2.08-.94,3.27-1a15.17,15.17,0,0,0,3,0c1.14-.29,2.2-.94,3.35-1.28a20.68,20.68,0,0,1,4.42-.41c.57,0,1.4-.58,1.93-.47.88.18.12,2.15.21,2.85.07.54.26,2.27,1.15,1.7.36-.23.17-.58.21-1,0-.14.21-.27.21-.45,0-.4-.22-.54-.31-.85-.26-.88.35-1.34.45-2.18C42.84,33.27,42.34,32.67,42.38,32Z"/><circle class="cls-2" cx="25.54" cy="9.67" r="0.94"/><circle class="cls-2" cx="21.56" cy="16.79" r="0.94"/><circle class="cls-2" cx="29.38" cy="15.86" r="0.94"/><polygon class="cls-3" points="9.44 7.56 40.44 4.4 40.44 30.64 9.44 36.05 9.44 7.56"/><polygon class="cls-2" points="40.27 11.7 9.44 15.39 9.44 14.4 40.27 10.71 40.27 11.7"/><rect class="cls-2" x="24.6" y="13.05" width="1.87" height="20.11"/></svg>